<?xml version="1.0" encoding="utf-8"?>
<!-- Generator: Adobe Illustrator 18.1.1, SVG Export Plug-In . SVG Version: 6.00 Build 0)  -->
<!DOCTYPE svg PUBLIC "-//W3C//DTD SVG 1.1//EN" "http://www.w3.org/Graphics/SVG/1.1/DTD/svg11.dtd">
<svg version="1.1" id="Calque_1" xmlns="http://www.w3.org/2000/svg" xmlns:xlink="http://www.w3.org/1999/xlink" x="0px" y="0px"
	 viewBox="0 0 23.8 21" enable-background="new 0 0 23.8 21" xml:space="preserve">
<path fill="#010202" d="M21.8,5H2C0.9,5,0,4.1,0,3V2c0-1.1,0.9-2,2-2l19.8,0c1.1,0,2,0.9,2,2v1C23.8,4.1,22.9,5,21.8,5z"/>
<path fill="#010202" d="M21.8,13H2c-1.1,0-2-0.9-2-2v-1c0-1.1,0.9-2,2-2h19.8c1.1,0,2,0.9,2,2v1C23.8,12.1,22.9,13,21.8,13z"/>
<path fill="#010202" d="M21.8,21H2c-1.1,0-2-0.9-2-2v-1c0-1.1,0.9-2,2-2h19.8c1.1,0,2,0.9,2,2v1C23.8,20.1,22.9,21,21.8,21z"/>
</svg>
