<?xml version="1.0" encoding="utf-8"?>
<!-- Generator: Adobe Illustrator 18.1.1, SVG Export Plug-In . SVG Version: 6.00 Build 0)  -->
<!DOCTYPE svg PUBLIC "-//W3C//DTD SVG 1.1//EN" "http://www.w3.org/Graphics/SVG/1.1/DTD/svg11.dtd">
<svg version="1.1" id="Calque_1" xmlns="http://www.w3.org/2000/svg" xmlns:xlink="http://www.w3.org/1999/xlink" x="0px" y="0px"
	 viewBox="0 0 25 11.6" enable-background="new 0 0 25 11.6" xml:space="preserve">
<g display="none">
	
		<image display="inline" overflow="visible" width="41" height="19" xlink:href="F425A4BDBE03934A.jpg"  transform="matrix(1 0 0 1 -0.5 3)">
	</image>
	<g display="inline">
		<defs>
			<path id="SVGID_1_" d="M2.5,3h35c1.7,0,3,1.3,3,3v13c0,1.7-1.3,3-3,3h-35c-1.7,0-3-1.3-3-3V6C-0.5,4.3,0.8,3,2.5,3L2.5,3z"/>
		</defs>
		<clipPath id="SVGID_2_">
			<use xlink:href="#SVGID_1_"  overflow="visible"/>
		</clipPath>
	</g>
</g>
<g>
	<path d="M11.9,3.6h-1v2H12c0.4,0,0.7-0.1,0.9-0.3c0.2-0.2,0.3-0.5,0.3-0.8c0-0.3-0.1-0.6-0.3-0.7C12.6,3.7,12.3,3.6,11.9,3.6z"/>
	<path d="M19.2,3.6c-0.6,0-1,0.2-1.3,0.6c-0.3,0.4-0.5,0.9-0.5,1.6c0,0.7,0.2,1.3,0.5,1.7C18.1,7.8,18.6,8,19.1,8
		c0.6,0,1-0.2,1.4-0.6C20.8,7,21,6.5,21,5.8c0-0.7-0.2-1.3-0.5-1.6C20.2,3.7,19.7,3.6,19.2,3.6z"/>
	<path d="M5.9,3.6H5v2.1h0.9c0.4,0,0.6-0.1,0.8-0.3C7,5.2,7.1,4.9,7.1,4.6C7.1,4.3,7,4,6.8,3.9C6.6,3.7,6.3,3.6,5.9,3.6z"/>
	<path d="M22.6,0H2.4C1.1,0,0,1.1,0,2.4v6.7c0,1.3,1.1,2.4,2.4,2.4h20.1c1.3,0,2.4-1.1,2.4-2.4V2.4C25,1.1,23.9,0,22.6,0z M8.4,5.5
		C8.3,5.8,8.1,6,7.9,6.2C7.7,6.5,7.4,6.6,7.1,6.7C6.8,6.9,6.4,6.9,6,6.9H5v2.2H3.6V2.4H6c0.8,0,1.5,0.2,1.9,0.6
		C8.3,3.4,8.6,4,8.6,4.6C8.6,5,8.5,5.3,8.4,5.5z M13.4,9.2L12,6.9h-0.2h-1v2.3H9.4V2.4H12c0.9,0,1.6,0.2,2,0.6
		c0.4,0.4,0.7,0.9,0.7,1.5c0,1-0.4,1.7-1.3,2.1L15,9.2H13.4z M22.3,7c-0.1,0.4-0.3,0.7-0.5,1c-0.2,0.3-0.5,0.5-0.8,0.7
		c-0.3,0.2-0.6,0.3-0.9,0.4c-0.3,0.1-0.7,0.1-1,0.1s-0.7,0-1-0.1c-0.3-0.1-0.6-0.2-0.9-0.4c-0.3-0.2-0.5-0.4-0.8-0.7
		c-0.2-0.3-0.4-0.6-0.5-1c-0.1-0.4-0.2-0.8-0.2-1.3c0-0.5,0.1-0.9,0.2-1.3c0.1-0.4,0.3-0.7,0.5-1c0.2-0.3,0.5-0.5,0.8-0.7
		s0.6-0.3,0.9-0.4c0.3-0.1,0.7-0.1,1-0.1s0.7,0,1,0.1s0.6,0.2,0.9,0.4c0.3,0.2,0.5,0.4,0.8,0.7c0.2,0.3,0.4,0.6,0.5,1
		c0.1,0.4,0.2,0.8,0.2,1.3C22.5,6.2,22.5,6.6,22.3,7z"/>
</g>
</svg>
