<?xml version="1.0" encoding="utf-8"?>
<!-- Generator: Adobe Illustrator 18.1.1, SVG Export Plug-In . SVG Version: 6.00 Build 0)  -->
<!DOCTYPE svg PUBLIC "-//W3C//DTD SVG 1.1//EN" "http://www.w3.org/Graphics/SVG/1.1/DTD/svg11.dtd">
<svg version="1.1" id="Calque_1" xmlns="http://www.w3.org/2000/svg" xmlns:xlink="http://www.w3.org/1999/xlink" x="0px" y="0px"
	 viewBox="0 5.4 24.2 18.6" enable-background="new 0 5.4 24.2 18.6" xml:space="preserve">
<desc>Created with Avocode</desc>
<path fill="#FF6300" d="M21.7,5.4l2.6,1.2c-1,0.9-3.7,3.4-5.1,6.3c2.4,0.2,4.3,2.2,3.9,5.4c-0.3,3.4-3.1,5.4-6.1,5.4
	c-3.2,0-5.1-2.6-4.8-6.1C12.6,13.1,15.5,9,21.7,5.4z"/>
<path fill="#FF6300" d="M9.6,5.4l2.6,1.4c-1,0.9-3.7,3.4-5.1,6.3c2.4,0.2,4.3,2.2,3.9,5.4C10.6,22,7.9,24,4.8,24
	c-3.2,0-5.1-2.6-4.8-6.1C0.7,13.1,3.6,9,9.6,5.4z"/>
</svg>
