<?xml version="1.0" encoding="utf-8"?>
<!-- Generator: Adobe Illustrator 18.1.1, SVG Export Plug-In . SVG Version: 6.00 Build 0)  -->
<!DOCTYPE svg PUBLIC "-//W3C//DTD SVG 1.1//EN" "http://www.w3.org/Graphics/SVG/1.1/DTD/svg11.dtd">
<svg version="1.1" id="Calque_1" xmlns="http://www.w3.org/2000/svg" xmlns:xlink="http://www.w3.org/1999/xlink" x="0px" y="0px"
	 viewBox="-1 3 20 20" enable-background="new -1 3 20 20" xml:space="preserve">
<desc>Created with Avocode</desc>
<path d="M18.4,19.8l-4.6-4.6C14.6,14,15,12.5,15,11c0-4.4-3.6-8-8-8s-8,3.6-8,8c0,4.4,3.6,8,8,8c1.6,0,3-0.4,4.2-1.2l4.6,4.6
	c0.4,0.4,0.9,0.6,1.4,0.6c0.4,0,0.9-0.2,1.2-0.5c0.4-0.3,0.5-0.8,0.5-1.2C19,20.7,18.8,20.2,18.4,19.8z M7.1,15.5
	c-2.6,0-4.6-2.1-4.6-4.6c0-2.6,2.1-4.6,4.6-4.6c2.6,0,4.6,2.1,4.6,4.6C11.7,13.4,9.7,15.5,7.1,15.5z"/>
</svg>
