<?xml version="1.0" encoding="utf-8"?>
<!-- Generator: Adobe Illustrator 18.1.1, SVG Export Plug-In . SVG Version: 6.00 Build 0)  -->
<!DOCTYPE svg PUBLIC "-//W3C//DTD SVG 1.1//EN" "http://www.w3.org/Graphics/SVG/1.1/DTD/svg11.dtd">
<svg version="1.1" id="Calque_1" xmlns="http://www.w3.org/2000/svg" xmlns:xlink="http://www.w3.org/1999/xlink" x="0px" y="0px"
	 viewBox="0 0 150 150" enable-background="new 0 0 150 150" xml:space="preserve">
<g display="none">
	
		<image display="inline" overflow="visible" width="16" height="18" xlink:href="367DD41A7021ACFA.jpg"  transform="matrix(1 0 0 1 67 66)">
	</image>
	<g display="inline">
		<image overflow="visible" width="16" height="18" xlink:href="367DD41A7021ACFE.jpg"  transform="matrix(1 0 0 1 67 66)">
		</image>
	</g>
</g>
<path fill-rule="evenodd" clip-rule="evenodd" d="M100.6,137.2H48.1H21.9v-31.5h0.5c2.4-12,13-21,25.7-21h52.5
	c12.7,0,23.3,9,25.7,21h0.5v31.5H100.6L100.6,137.2z M79.6,74.2H69.1c-14.5,0-26.2-11.7-26.2-26.2V37.5c0-14.5,11.7-26.3,26.2-26.3
	h10.5c14.5,0,26.2,11.7,26.2,26.3V48C105.9,62.5,94.1,74.2,79.6,74.2L79.6,74.2z"/>
</svg>
