<?xml version="1.0" standalone="no"?>
<!DOCTYPE svg PUBLIC "-//W3C//DTD SVG 1.1//EN" "http://www.w3.org/Graphics/SVG/1.1/DTD/svg11.dtd" >
<svg xmlns="http://www.w3.org/2000/svg">
<metadata></metadata>
<defs>
<font id="motiva_sansregular" horiz-adv-x="1638" >
<font-face units-per-em="2048" ascent="1540" descent="-508" />
<missing-glyph horiz-adv-x="589" />
<glyph horiz-adv-x="2048" />
<glyph horiz-adv-x="2048" />
<glyph unicode="&#xd;" horiz-adv-x="2048" />
<glyph unicode=" "  horiz-adv-x="589" />
<glyph unicode="&#x09;" horiz-adv-x="589" />
<glyph unicode="&#xa0;" horiz-adv-x="589" />
<glyph unicode="!" horiz-adv-x="618" d="M172 113q0 67 39 104t98 37q61 0 100.5 -37t39.5 -104q0 -68 -39.5 -105t-100.5 -37q-60 0 -98.5 37t-38.5 105zM203 1436h229l-37 -1010h-162z" />
<glyph unicode="&#x22;" horiz-adv-x="903" d="M207 1434h178l-29 -455h-118zM518 1434h178l-28 -455h-121z" />
<glyph unicode="#" horiz-adv-x="1400" d="M70 410v125h303l49 380h-309v125h325l51 394h132l-52 -394h326l49 394h129l-49 -394h307v-125h-321l-47 -380h323v-125h-338l-51 -410h-131l51 410h-328l-53 -410h-133l53 410h-286zM506 535h325l50 380h-328z" />
<glyph unicode="$" horiz-adv-x="1181" d="M102 106l68 158q192 -110 412 -110q156 0 237.5 62t81.5 161q0 51 -18 88t-73 71t-90 50t-134 54q-24 10 -37 15q-67 26 -111.5 46t-98.5 49t-88 59t-64.5 69t-45 88t-14.5 107q0 162 112.5 266t309.5 117l-8 193h153l-8 -195q203 -17 375 -129l-84 -145 q-173 114 -369 114q-130 0 -207 -57t-77 -154q0 -27 6 -51t20 -44.5t28.5 -36.5t41.5 -33t48 -29t57.5 -27.5t61.5 -25.5t70 -27.5t72 -28.5q75 -30 127 -55t101.5 -59t78.5 -71.5t46.5 -88.5t17.5 -113q0 -176 -123 -289.5t-334 -126.5l10 -208h-155l8 211 q-229 19 -404 126z" />
<glyph unicode="%" horiz-adv-x="1552" d="M70 1128q0 154 89 242t224 88q136 0 223.5 -88.5t87.5 -243.5q0 -154 -87 -241.5t-224 -87.5q-135 0 -224 87.5t-89 243.5zM217 1128q0 -102 43.5 -157.5t122.5 -55.5q81 0 122.5 54.5t41.5 158.5q0 101 -41.5 156t-122.5 55q-78 0 -122 -55.5t-44 -155.5zM227 0 l969 1434h139l-968 -1434h-140zM860 307q0 157 89.5 244.5t226.5 87.5q134 0 221.5 -88.5t87.5 -243.5q0 -154 -87 -243t-222 -89q-137 0 -226.5 88t-89.5 244zM1008 307q0 -100 44 -155.5t122 -55.5q80 0 120.5 54.5t40.5 156.5q0 103 -40.5 158t-120.5 55q-78 0 -122 -56 t-44 -157z" />
<glyph unicode="&#x26;" horiz-adv-x="1501" d="M162 315q0 104 58 195.5t179 179.5l54 39q-60 57 -93 91.5t-68 83.5t-50 99t-15 109q0 156 104.5 252t293.5 96q174 0 278.5 -85.5t104.5 -219.5q0 -201 -209 -362l-86 -66l293 -272q32 65 47 108l86 211l153 -63l-82 -207q-39 -98 -77 -170l260 -244l-119 -125l-236 219 q-86 -111 -191.5 -160t-244.5 -49q-212 0 -326 93t-114 247zM352 334q0 -88 61 -140.5t177 -52.5q188 0 319 162l-340 315l-73 -55q-144 -107 -144 -229zM410 1112q0 -27 4 -50t19.5 -48.5t23.5 -39t40 -44.5t44 -42t57 -52l74 55q157 118 157 250q0 58 -30 95.5t-73.5 52 t-100.5 14.5q-105 0 -160 -50.5t-55 -140.5z" />
<glyph unicode="'" horiz-adv-x="497" d="M160 1434h178l-29 -455h-119z" />
<glyph unicode="(" horiz-adv-x="774" d="M150 711q0 125 19 238.5t48 197t70.5 158t80.5 124t84.5 92t74.5 64t59 39.5l80 -86q-77 -71 -109 -108q-235 -272 -235 -719q0 -106 15 -204.5t34.5 -170t54.5 -143t59 -112t65.5 -89.5t56.5 -64.5t49 -46.5l10 -10l-78 -84q-31 21 -58 41.5t-74 66t-85 94.5t-81 125 t-72 160t-48.5 198t-19.5 239z" />
<glyph unicode=")" horiz-adv-x="776" d="M109 -129q16 14 30.5 28.5t52 57.5t68 88.5t68.5 119t63.5 151t43.5 181.5t18 214t-18 214t-42.5 179.5t-64 149t-67.5 115.5t-68 86.5t-51 55t-31 27.5l77 86q20 -13 43 -30.5t68.5 -60.5t86 -92.5t86.5 -127t78.5 -162.5t54.5 -200t22 -240t-22 -241t-55 -201.5 t-79.5 -164t-86.5 -128.5t-86.5 -95t-69 -62.5t-42.5 -31.5z" />
<glyph unicode="*" horiz-adv-x="880" d="M156 1143l192 96l-192 102l57 97l178 -113l-12 211h123l-17 -213l183 117l59 -101l-192 -100l190 -96l-57 -99l-183 115l17 -211h-123l12 211l-176 -115z" />
<glyph unicode="+" horiz-adv-x="1476" d="M231 649v137h437v461h139v-461h436v-137h-436v-461h-139v461h-437z" />
<glyph unicode="," horiz-adv-x="630" d="M184 -201q97 97 115 201q-42 7 -74 39.5t-32 81.5q0 56 34 85.5t84 29.5q54 0 89.5 -39t35.5 -107q0 -87 -46.5 -177.5t-141.5 -162.5z" />
<glyph unicode="-" horiz-adv-x="929" d="M166 524v158h600v-158h-600z" />
<glyph unicode="." horiz-adv-x="649" d="M197 102q0 64 36.5 99t92.5 35q55 0 92 -35.5t37 -98.5q0 -62 -37 -96.5t-92 -34.5q-56 0 -92.5 34.5t-36.5 96.5z" />
<glyph unicode="/" horiz-adv-x="731" d="M33 -86l538 1626h162l-536 -1626h-164z" />
<glyph unicode="0" horiz-adv-x="1341" d="M100 713q0 152 30.5 277t83.5 211t125.5 145t155.5 86.5t175 27.5q117 0 217.5 -44.5t181 -133t126.5 -234.5t46 -335q0 -148 -30.5 -271.5t-83.5 -209.5t-125.5 -145.5t-156 -87.5t-175.5 -28q-115 0 -216.5 45.5t-181 134t-126 233.5t-46.5 329zM301 713 q0 -268 98 -417t271 -149t271.5 149.5t98.5 416.5q0 275 -98 424t-272 149t-271.5 -149t-97.5 -424z" />
<glyph unicode="1" horiz-adv-x="1159" d="M102 1208l457 232h146v-1268h303v-172h-809v172h309v1047l-330 -152z" />
<glyph unicode="2" horiz-adv-x="1308" d="M125 1305q218 155 487 155q240 0 377 -116.5t137 -309.5q0 -46 -10 -90t-24 -80t-43.5 -78t-55 -72.5t-73.5 -77t-82 -77.5t-97 -86l-338 -295h766v-178h-1015v166l403 356q26 23 76 66t72 62.5t60 56t55.5 57.5t41.5 54t34 60t18 60.5t8 69.5q0 131 -91 200.5t-249 69.5 q-203 0 -365 -119z" />
<glyph unicode="3" horiz-adv-x="1261" d="M70 135l96 148q76 -58 178 -94.5t217 -36.5q187 0 292 80t105 194q0 132 -97 191t-298 59h-166v160h148q156 0 254 59t98 174q0 94 -87 154.5t-235 60.5q-196 0 -366 -127l-96 137q201 166 493 166q123 0 218.5 -27.5t154 -75t88 -106.5t29.5 -127q0 -121 -69.5 -212.5 t-188.5 -133.5v-8q142 -20 232.5 -115.5t90.5 -226.5q0 -201 -161 -327t-418 -126q-150 0 -284 42.5t-228 117.5z" />
<glyph unicode="4" horiz-adv-x="1355" d="M119 375v139l749 920h166v-902h221v-157h-221v-375h-190l-4 375h-721zM324 532h520v637z" />
<glyph unicode="5" horiz-adv-x="1310" d="M176 104l82 150q147 -100 352 -100q169 0 272 84.5t103 228.5q0 133 -89.5 203.5t-231.5 70.5q-175 0 -318 -110l-135 80v729h876v-180h-688v-445q122 86 310 86q95 0 179 -26.5t151 -78.5t106 -136.5t39 -192.5q0 -222 -152.5 -357t-413.5 -135q-278 0 -442 129z" />
<glyph unicode="6" horiz-adv-x="1288" d="M100 696q0 159 34 288.5t92 216.5t137.5 146t167 85t184.5 26q155 0 261.5 -30.5t192.5 -86.5l-98 -147q-153 88 -338 88q-69 0 -130 -16.5t-118.5 -57.5t-99 -104t-67 -162t-27.5 -225q94 88 198 135t246 47q90 0 174 -27t154 -78.5t112 -137t42 -193.5q0 -135 -68 -247 t-188.5 -176.5t-268.5 -64.5q-284 0 -438 178t-154 543zM309 541q9 -183 108.5 -286t262.5 -103q153 0 244.5 85.5t91.5 219.5q0 129 -91 200.5t-233 71.5q-112 0 -212.5 -50t-170.5 -138z" />
<glyph unicode="7" horiz-adv-x="1181" d="M55 1260v174h1026v-162l-626 -1272h-211l630 1260h-819z" />
<glyph unicode="8" horiz-adv-x="1273" d="M100 397q0 136 80 239t199 136q-106 39 -169 123.5t-63 196.5q0 163 135 264.5t355 101.5q221 0 355 -101t134 -265q0 -114 -60 -198t-167 -122q116 -30 195.5 -131.5t79.5 -234.5q0 -195 -142 -314t-395 -119q-256 0 -396.5 116.5t-140.5 307.5zM297 420q0 -123 89 -198 t251 -75q163 0 249.5 74.5t86.5 198.5q0 119 -93 194.5t-243 75.5q-149 0 -244.5 -75.5t-95.5 -194.5zM346 1071q0 -103 82.5 -161t208.5 -58q128 0 209.5 57.5t81.5 161.5q0 100 -78 158.5t-213 58.5q-134 0 -212.5 -58.5t-78.5 -158.5z" />
<glyph unicode="9" horiz-adv-x="1253" d="M63 997q0 139 70 246t184.5 162t251.5 55q286 0 438 -171.5t152 -512.5q0 -173 -34 -310t-92 -228t-141 -151t-176.5 -86t-201.5 -26q-221 0 -405 105l69 149q158 -82 338 -82q95 0 174 32t142.5 98.5t99.5 180t37 265.5q-101 -95 -201.5 -136.5t-239.5 -41.5 q-92 0 -174.5 28.5t-148 82.5t-104 142t-38.5 199zM260 1001q0 -133 78 -206.5t215 -73.5q120 0 237.5 52.5t165.5 133.5q-4 96 -38 170.5t-87 118.5t-115 66t-130 22q-136 0 -231 -79.5t-95 -203.5z" />
<glyph unicode=":" horiz-adv-x="649" d="M188 113q0 66 39 102.5t97 36.5q61 0 99 -36t38 -103q0 -68 -38 -105t-99 -37q-58 0 -97 37t-39 105zM188 958q0 66 39 103t97 37q61 0 99 -36.5t38 -103.5q0 -68 -38 -103.5t-99 -35.5q-59 0 -97.5 36t-38.5 103z" />
<glyph unicode=";" horiz-adv-x="649" d="M188 -201q97 97 115 201q-42 7 -74 39.5t-32 81.5q0 56 34 85.5t84 29.5q54 0 89.5 -39t35.5 -107q0 -87 -46.5 -177.5t-141.5 -162.5zM195 965q0 62 36.5 96.5t90.5 34.5q56 0 92.5 -34.5t36.5 -96.5q0 -64 -36.5 -99t-92.5 -35q-54 0 -90.5 35.5t-36.5 98.5z" />
<glyph unicode="&#x3c;" horiz-adv-x="1024" d="M57 530v129l756 474l78 -132l-662 -407l662 -416l-80 -119z" />
<glyph unicode="=" horiz-adv-x="1400" d="M227 340v129h944v-129h-944zM227 748v131h944v-131h-944z" />
<glyph unicode="&#x3e;" horiz-adv-x="1021" d="M131 178l664 416l-660 407l74 132l756 -476v-127l-754 -471z" />
<glyph unicode="?" horiz-adv-x="1079" d="M66 1323q73 59 189 97t245 38q199 0 315.5 -96t116.5 -238q0 -63 -21.5 -119t-56 -98t-76 -81.5t-83.5 -79t-77 -80.5t-57.5 -95.5t-23.5 -115.5h-156q0 97 36.5 176.5t88 133t103 102t88 106t36.5 121.5q0 94 -68.5 146t-187.5 52q-196 0 -332 -100zM330 115 q0 63 37 100t96 37q61 0 98 -36.5t37 -100.5t-37 -101t-98 -37q-59 0 -96 37t-37 101z" />
<glyph unicode="@" horiz-adv-x="1824" d="M102 473q0 189 68.5 347.5t189 267t288 169t362.5 60.5q211 0 371.5 -78.5t250.5 -231.5t90 -362q0 -231 -114 -379.5t-308 -148.5q-154 0 -221 106q-101 -98 -258 -98q-120 0 -204.5 87.5t-84.5 258.5q0 199 126 313.5t329 114.5q150 0 275 -53l-60 -416 q-11 -88 20.5 -131t88.5 -43q112 0 180 103t68 282q0 261 -153.5 397t-422.5 136q-153 0 -283 -47.5t-226.5 -136.5t-151 -225.5t-54.5 -305.5q0 -128 30.5 -230t85 -172t132 -116t168 -67t197.5 -21q73 0 173 15t169 38l45 -133q-83 -30 -188 -48t-189 -18q-133 0 -246 23 t-215 79t-173.5 142t-113 219t-41.5 303zM698 477q0 -109 45.5 -162t118.5 -53q108 0 182 94q0 8 5 58l45 329q-5 2 -18.5 6.5t-46.5 9.5t-68 5q-122 0 -192.5 -80.5t-70.5 -206.5z" />
<glyph unicode="A" horiz-adv-x="1441" d="M74 0l534 1434h219l541 -1434h-211l-123 342h-635l-123 -342h-202zM455 502h524l-262 733z" />
<glyph unicode="B" horiz-adv-x="1312" d="M168 0v1434h457q231 0 349 -91.5t118 -257.5q0 -106 -57 -193t-152 -132q131 -31 215 -124.5t84 -238.5q0 -196 -137.5 -296.5t-364.5 -100.5h-512zM360 164h297q163 0 243.5 64t80.5 175q0 246 -315 246h-306v-485zM360 805h242q138 0 217.5 65t79.5 179q0 221 -303 221 h-236v-465z" />
<glyph unicode="C" horiz-adv-x="1355" d="M131 715v8q0 146 34 267q35 124 97 210.5t148 145.5t186.5 86.5t214.5 27.5q139 0 258.5 -34t200.5 -95l-94 -147q-153 102 -367 102q-98 0 -183 -34t-152 -101.5t-105.5 -179.5t-38.5 -256q0 -119 25.5 -215t70 -161.5t106.5 -108.5q62 -44 132 -64q67 -19 141 -19h8 q222 3 389 138l101 -140q-92 -81 -220.5 -126.5t-279.5 -45.5q-109 0 -207 27t-183 85.5t-147 144t-98 210t-37 275.5z" />
<glyph unicode="D" horiz-adv-x="1423" d="M168 0v1434h418q119 0 223 -25.5t193.5 -80.5t153.5 -136.5t100 -200t36 -264.5q0 -180 -55 -321t-152.5 -228.5t-224 -132.5t-274.5 -45h-418zM360 176h244q235 0 362.5 138t127.5 413q0 535 -490 535h-244v-1086z" />
<glyph unicode="E" horiz-adv-x="1187" d="M168 0v1434h913v-166h-723v-453h637v-168h-637v-475h723v-172h-913z" />
<glyph unicode="F" horiz-adv-x="1077" d="M168 0v1432h840v-166h-650v-494h568v-168h-568v-604h-190z" />
<glyph unicode="G" horiz-adv-x="1519" d="M131 723q0 178 53 320t145.5 232.5t214.5 138.5t263 48q172 0 291.5 -47.5t214.5 -126.5l-103 -137q-178 137 -405 137q-103 0 -189 -35.5t-149.5 -104t-99 -176t-35.5 -243.5q0 -279 129.5 -426t345.5 -147q119 0 211 41t141 98v344h-424v160h611v-592 q-91 -108 -232 -170t-326 -62q-105 0 -200 27t-179 86t-145.5 145t-97 211.5t-35.5 278.5z" />
<glyph unicode="H" horiz-adv-x="1478" d="M168 0v1434h190v-627h764v627h191v-1434h-191v641h-764v-641h-190z" />
<glyph unicode="I" horiz-adv-x="569" d="M188 0v1434h191v-1434h-191z" />
<glyph unicode="J" horiz-adv-x="948" d="M92 -10l19 168q24 -8 104 -8q75 0 128.5 7t103 28t79 57.5t47 97t17.5 145.5v949h190v-969q0 -117 -26.5 -205t-70.5 -142.5t-109.5 -88t-135.5 -46t-157 -12.5q-107 0 -189 19z" />
<glyph unicode="K" horiz-adv-x="1320" d="M168 0v1434h194v-684l617 684h246l-623 -664l670 -770h-252l-551 627l-107 -113v-514h-194z" />
<glyph unicode="L" horiz-adv-x="1134" d="M168 0v1434h190v-1264h691v-170h-881z" />
<glyph unicode="M" horiz-adv-x="1783" d="M168 0v1434h190l541 -1174l526 1174h193v-1434h-186v1059l-488 -1043h-106l-486 1043v-1059h-184z" />
<glyph unicode="N" horiz-adv-x="1499" d="M168 0v1434h166l805 -1102v1102h192v-1434h-162l-811 1100v-1100h-190z" />
<glyph unicode="O" d="M131 723q0 151 39 275t105 208.5t155.5 142.5t187.5 84.5t203 26.5t202.5 -26.5t186 -84.5t154 -142.5t104.5 -208.5t39 -275t-39 -277t-104.5 -212t-154 -146t-186.5 -87.5t-202 -27.5q-105 0 -203.5 27.5t-187.5 87.5t-155 146t-105 212t-39 277zM332 723 q0 -138 38 -248.5t104.5 -181.5t153.5 -108.5t187 -37.5q101 0 189.5 36.5t157 106.5t108 181.5t39.5 251.5q0 139 -39 248.5t-107 177t-155 102.5t-187 35q-102 0 -189.5 -35t-155 -102.5t-106 -176.5t-38.5 -249z" />
<glyph unicode="P" horiz-adv-x="1169" d="M168 0v1434h442q244 0 373 -118t129 -317q0 -96 -32 -178t-93 -145t-157.5 -99t-217.5 -36h-254v-541h-190zM358 707h240q151 0 232 77.5t81 219.5q0 264 -313 264h-240v-561z" />
<glyph unicode="Q" d="M131 723q0 151 39 275t105 208.5t155.5 142.5t187.5 84.5t203 26.5t202.5 -26.5t186 -84.5t154 -142.5t104.5 -208.5t39 -275q0 -145 -35.5 -267t-98 -208.5t-142.5 -146t-176 -91.5l401 -178l-90 -151l-551 292q-104 1 -201.5 28.5t-186 87.5t-154 146t-104 211.5 t-38.5 276.5zM332 723q0 -138 38 -248.5t104.5 -181.5t153.5 -108.5t187 -37.5q101 0 189.5 36.5t157 106.5t108 181.5t39.5 251.5q0 139 -39 248.5t-107 177t-155 102.5t-187 35q-102 0 -189.5 -35t-155 -102.5t-106 -176.5t-38.5 -249z" />
<glyph unicode="R" horiz-adv-x="1327" d="M168 0v1434h491q140 0 242 -32t160.5 -91t85.5 -132.5t27 -164.5q0 -159 -75 -272t-216 -162l356 -580h-213l-332 545h-32h-304v-545h-190zM358 711h324q137 0 214 79.5t77 204.5q0 137 -78 205t-256 68h-281v-557z" />
<glyph unicode="S" horiz-adv-x="1181" d="M102 106l68 158q90 -52 197 -81t206 -29q165 0 246.5 62t81.5 165q0 29 -9 54.5t-22.5 45.5t-40.5 40.5t-51.5 35t-66.5 33.5t-74.5 31.5t-87.5 33.5q-58 23 -97 39.5t-87 41t-79.5 47t-64.5 54t-51.5 66t-30.5 79t-12 95.5q0 170 129.5 275.5t345.5 105.5 q256 0 459 -133l-84 -145q-173 114 -369 114q-132 0 -208 -57t-76 -160q0 -34 11 -63t36.5 -54t51 -43.5t72.5 -40.5t82.5 -36.5t97.5 -38.5l54 -21q93 -36 154.5 -69t114 -78t77.5 -103t25 -133q0 -193 -138.5 -307.5t-375.5 -114.5q-122 0 -252.5 34.5t-231.5 96.5z" />
<glyph unicode="T" horiz-adv-x="1325" d="M98 1268v166h1131v-166h-471v-1268h-191v1268h-469z" />
<glyph unicode="U" horiz-adv-x="1433" d="M168 518v916h190v-924q0 -169 94.5 -263.5t264.5 -94.5q172 0 265 94t93 264v924h191v-916q0 -143 -44 -251t-121.5 -171.5t-173.5 -94t-210 -30.5q-90 0 -169 18.5t-149.5 60.5t-121 104.5t-80 155.5t-29.5 208z" />
<glyph unicode="V" horiz-adv-x="1443" d="M66 1434h208l455 -1241l438 1241h211l-542 -1434h-226z" />
<glyph unicode="W" horiz-adv-x="2060" d="M43 1434h205l340 -1160l358 1160h180l355 -1162l340 1162h196l-444 -1434h-180l-365 1139l-360 -1139h-181z" />
<glyph unicode="X" horiz-adv-x="1406" d="M49 0l500 743l-479 691h243l349 -545l346 545h243l-487 -680l545 -754h-242l-414 600l-377 -600h-227z" />
<glyph unicode="Y" horiz-adv-x="1339" d="M49 1434h223l379 -680l375 680h215l-500 -863v-571h-190v573z" />
<glyph unicode="Z" horiz-adv-x="1339" d="M117 0v143l817 1125h-772v166h1005v-134l-823 -1134h866v-166h-1093z" />
<glyph unicode="[" horiz-adv-x="600" d="M150 -244v1868h348v-141h-187v-1585h187v-142h-348z" />
<glyph unicode="\" horiz-adv-x="753" d="M-8 1540h162l485 -1626h-162z" />
<glyph unicode="]" horiz-adv-x="600" d="M104 -102h185v1585h-185v141h347v-1868h-347v142z" />
<glyph unicode="^" horiz-adv-x="1398" d="M129 852l463 692h178l463 -692h-201l-350 528l-352 -528h-201z" />
<glyph unicode="_" horiz-adv-x="1462" d="M141 -14h1182v-146h-1182v146z" />
<glyph unicode="`" horiz-adv-x="663" d="M139 1458h240l147 -250h-133z" />
<glyph unicode="a" horiz-adv-x="1148" d="M104 293q0 81 33.5 141.5t93 96t133.5 52.5t162 17q59 0 125 -5.5t99.5 -10t44.5 -6.5v137q0 127 -62 178t-180 51q-185 0 -317 -104l-78 118q168 142 409 142q215 0 313.5 -91.5t98.5 -291.5v-502q0 -86 65 -86q8 0 22.5 1t16.5 1l-18 -123q-29 -20 -96 -20 q-59 0 -94.5 28t-55.5 95q-120 -138 -334 -138q-113 0 -196.5 32t-134 105.5t-50.5 182.5zM283 297q0 -49 18.5 -84.5t51.5 -54.5t71 -28t84 -9q96 0 171.5 36.5t117.5 108.5v174q-119 27 -250 27q-264 0 -264 -170z" />
<glyph unicode="b" horiz-adv-x="1241" d="M166 0v1540h184v-590h4q60 72 146 111t186 39q203 0 327 -143.5t124 -399.5q0 -275 -135.5 -429.5t-362.5 -154.5q-195 0 -311 144h-6l-33 -117h-123zM350 274q41 -65 112 -101t167 -36q141 0 230 113t89 305q0 178 -83 278.5t-216 100.5q-171 0 -299 -168v-492z" />
<glyph unicode="c" horiz-adv-x="1095" d="M102 543q0 131 42.5 238t115 176t167 106t200.5 37q229 0 381 -129l-86 -131q-66 50 -129.5 75t-153.5 25q-155 0 -251.5 -104t-96.5 -293q0 -190 99.5 -299t252.5 -109q161 0 299 111l88 -123q-67 -65 -169 -107.5t-228 -42.5q-112 0 -208.5 37.5t-168.5 108.5t-113 180 t-41 244z" />
<glyph unicode="d" horiz-adv-x="1232" d="M102 537q0 138 39.5 248t106 177.5t148.5 102.5t173 35q199 0 316 -113v553h184v-1540h-131l-29 125h-6q-58 -66 -143.5 -109t-179.5 -43q-71 0 -137.5 19t-129 62t-109 107t-74.5 160.5t-28 215.5zM293 537q0 -99 27 -177t72 -125t99 -71.5t113 -24.5q87 0 159 41 t122 111v516q-118 127 -277 127q-62 0 -117 -23t-100 -69.5t-71.5 -124.5t-26.5 -180z" />
<glyph unicode="e" horiz-adv-x="1196" d="M102 530q0 265 137 417.5t363 152.5q117 0 210 -43t150 -115.5t87 -163t30 -190.5q0 -60 -10 -125h-776q38 -334 344 -334q189 0 330 117l86 -119q-177 -154 -445 -154q-103 0 -192.5 34.5t-160.5 101t-112 175t-41 246.5zM287 600h622q-6 157 -87 252.5t-216 95.5 q-139 0 -224.5 -90t-94.5 -258z" />
<glyph unicode="f" horiz-adv-x="712" d="M70 915v158h157v193q0 153 85.5 229t238.5 76q98 0 168 -25l-33 -143q-49 14 -108 14q-166 0 -166 -149v-195h266v-158h-266v-915h-185v915h-157z" />
<glyph unicode="g" horiz-adv-x="1251" d="M102 563q0 129 44.5 234.5t117 170t157.5 98.5t173 34q200 0 324 -117h8l45 90h116v-1024q0 -244 -129.5 -361.5t-355.5 -117.5q-124 0 -232 35.5t-184 91.5l76 141q134 -104 326 -104q67 0 123.5 15t101 46t69.5 83.5t25 121.5v158q-73 -72 -148 -99.5t-175 -27.5 q-97 0 -183 34.5t-153 99.5t-106.5 168t-39.5 230zM295 567q0 -179 91.5 -274.5t236.5 -95.5q170 0 280 143v477q-49 54 -112 85.5t-162 31.5q-65 0 -124 -23.5t-106.5 -67.5t-75.5 -115.5t-28 -160.5z" />
<glyph unicode="h" horiz-adv-x="1226" d="M166 0v1540h182v-614q76 90 159 131t189 41q159 0 262 -92t103 -269v-737h-184v698q0 66 -19.5 113.5t-53.5 73.5t-73.5 37.5t-87.5 11.5q-167 0 -293 -197v-737h-184z" />
<glyph unicode="i" horiz-adv-x="536" d="M145 1354q0 57 36 86.5t85 29.5q52 0 87.5 -29t35.5 -87t-36 -88.5t-87 -30.5q-49 0 -85 30.5t-36 88.5zM178 0v1073h180v-1073h-180z" />
<glyph unicode="j" horiz-adv-x="550" d="M-145 -401l34 147q70 -14 109 -14q98 0 145 42.5t47 147.5v1151h185v-1196q0 -149 -96 -228t-248 -79q-100 0 -176 29zM160 1354q0 58 35.5 87t85.5 29q51 0 86.5 -29t35.5 -87t-36 -88.5t-86 -30.5t-85.5 30.5t-35.5 88.5z" />
<glyph unicode="k" horiz-adv-x="1105" d="M166 0v1540h184v-975l422 508h236l-402 -450l477 -623h-233l-365 487l-135 -151v-336h-184z" />
<glyph unicode="l" horiz-adv-x="526" d="M170 0v1540h184v-1540h-184z" />
<glyph unicode="m" horiz-adv-x="1830" d="M166 0v1073h143l25 -153h8q64 92 138.5 135t183.5 43q112 0 186.5 -47t118.5 -150q74 104 161 150.5t193 46.5q162 0 252 -95t90 -274v-729h-186v715q0 219 -187 219q-167 0 -282 -195v-739h-189v721q0 114 -53 163.5t-135 49.5q-88 0 -161.5 -53.5t-119.5 -141.5v-739 h-186z" />
<glyph unicode="n" horiz-adv-x="1226" d="M166 0v1073h127l29 -164h6q79 95 165.5 143t211.5 48q168 0 262 -91.5t94 -265.5v-743h-184v690q0 132 -52.5 186t-150.5 54q-196 0 -328 -199v-731h-180z" />
<glyph unicode="o" horiz-adv-x="1257" d="M102 537q0 142 44 253t119 177t167.5 99.5t196.5 33.5q83 0 158.5 -20.5t143 -65t117 -109t78.5 -159.5t29 -209t-29 -209t-78.5 -160t-117 -109.5t-143 -65t-158.5 -20.5q-104 0 -196.5 33.5t-167.5 100t-119 177.5t-44 253zM293 537q0 -189 90.5 -294.5t245.5 -105.5 q156 0 247 106.5t91 293.5q0 186 -91 292.5t-247 106.5q-155 0 -245.5 -105t-90.5 -294z" />
<glyph unicode="p" horiz-adv-x="1216" d="M166 -422v1495h129l37 -155h4q68 91 149 135.5t191 44.5q91 0 169 -33.5t139 -98t95.5 -168t34.5 -235.5q0 -133 -40.5 -245.5t-109 -187t-157.5 -116t-186 -41.5q-164 0 -271 70v-465h-184zM350 207q54 -43 106 -60.5t132 -17.5q134 0 236 114t102 308q0 191 -83 287 t-204 96q-90 0 -159.5 -50t-129.5 -151v-526z" />
<glyph unicode="q" horiz-adv-x="1241" d="M102 537q0 113 29.5 207.5t79 159t115 110t136.5 66t144 20.5q176 0 301 -115h6l52 88h110v-1495h-186v481q-126 -86 -295 -86q-93 0 -180 36.5t-157 105t-112.5 178t-42.5 244.5zM293 535q0 -84 21.5 -153t56 -113t78.5 -74.5t87.5 -43t84.5 -12.5q148 0 268 99v577 q-112 119 -258 119q-68 0 -128 -24.5t-107.5 -72.5t-75 -125.5t-27.5 -176.5z" />
<glyph unicode="r" horiz-adv-x="806" d="M166 0v1073h139l33 -158h6q83 185 295 185q76 0 125 -25l-39 -170q-61 21 -109 21q-184 0 -268 -230v-696h-182z" />
<glyph unicode="s" horiz-adv-x="974" d="M100 90l58 148q58 -49 140.5 -77t158.5 -28q118 0 180.5 46.5t62.5 117.5q0 28 -11 49.5t-25 35.5t-46 29t-54 23t-70.5 23.5t-75.5 25.5q-77 27 -126.5 52t-91.5 60.5t-61.5 84t-19.5 113.5q0 142 109 224.5t282 82.5q106 0 201.5 -30t160.5 -81l-71 -131 q-145 90 -289 90q-97 0 -155 -41t-58 -108q0 -20 4.5 -37t16 -32t21.5 -26t32 -22.5t35 -18t43.5 -17t44 -15t49.5 -15.5q53 -16 86.5 -28t79 -31.5t73 -41.5t54 -52t39 -70t12.5 -88q0 -152 -113.5 -242t-308.5 -90q-102 0 -201.5 31.5t-165.5 85.5z" />
<glyph unicode="t" horiz-adv-x="784" d="M59 915v158h179v158l88 119h96v-277h264v-158h-264v-675q0 -53 24.5 -78t63.5 -25q59 0 141 35l49 -139q-101 -60 -221 -60q-241 0 -241 234v708h-179z" />
<glyph unicode="u" horiz-adv-x="1214" d="M166 356v717h182v-674q0 -258 199 -258q98 0 172.5 50.5t146.5 138.5v743h183v-1073h-134l-38 160q-71 -90 -156.5 -137.5t-206.5 -47.5q-158 0 -253 94.5t-95 286.5z" />
<glyph unicode="v" horiz-adv-x="1087" d="M29 1073h194l318 -880l321 880h199l-436 -1073h-179z" />
<glyph unicode="w" horiz-adv-x="1587" d="M29 1073h186l236 -823l274 823h127l266 -833l262 833h179l-377 -1073h-131l-271 793l-280 -793h-131z" />
<glyph unicode="x" horiz-adv-x="1005" d="M10 0v6l391 551l-370 508v8h223l248 -389l252 389h213v-6l-359 -512l385 -549v-6h-215l-274 422l-279 -422h-215z" />
<glyph unicode="y" horiz-adv-x="1161" d="M53 1073h191l350 -919l319 919h191l-418 -1141q-131 -360 -395 -360q-100 0 -187 27l33 143q49 -21 125 -21q68 0 128 50.5t95 140.5l21 55z" />
<glyph unicode="z" horiz-adv-x="976" d="M82 0v135l571 776h-553v162h781v-143l-588 -770h608v-160h-819z" />
<glyph unicode="{" horiz-adv-x="804" d="M145 664v122q83 13 135 67.5t52 150.5v262q0 156 100.5 251t269.5 95v-113q-94 -11 -148 -72.5t-54 -162.5v-312q0 -85 -55.5 -148t-114.5 -75v-6q58 -12 114 -77t56 -146v-314q0 -100 54.5 -163t147.5 -74v-111q-172 0 -271 94.5t-99 251.5v262q0 102 -50.5 156 t-136.5 62z" />
<glyph unicode="|" horiz-adv-x="466" d="M170 -166v1868h127v-1868h-127z" />
<glyph unicode="}" horiz-adv-x="802" d="M100 -51v-111q172 0 271.5 94.5t99.5 251.5v262q0 102 50 156t136 62v122q-83 13 -134.5 67.5t-51.5 150.5v262q0 156 -101 251t-270 95v-113q94 -11 148.5 -72.5t54.5 -162.5v-312q0 -85 55.5 -148t114.5 -75v-6q-58 -12 -114 -77t-56 -146v-314q0 -100 -55 -163 t-148 -74z" />
<glyph unicode="~" horiz-adv-x="1286" d="M131 518q28 125 99 191.5t165 66.5q73 0 221 -41t209 -41q45 0 81 26t55 64h165q-32 -132 -110.5 -195t-177.5 -63q-72 0 -220 41t-215 41q-48 0 -77.5 -23.5t-51.5 -66.5h-143z" />
<glyph unicode="&#xa1;" horiz-adv-x="618" d="M172 942q0 68 38.5 104.5t98.5 36.5q61 0 100.5 -36.5t39.5 -104.5q0 -67 -39.5 -104t-100.5 -37q-59 0 -98 37t-39 104zM188 -383l39 1012h162l39 -1012h-240z" />
<glyph unicode="&#xa2;" horiz-adv-x="1103" d="M102 731q0 236 127 381.5t322 171.5l-6 215h141l-6 -213q193 -15 328 -127l-86 -131q-66 50 -129.5 75t-153.5 25q-155 0 -251.5 -104t-96.5 -293t99.5 -298t252.5 -109q162 0 299 110l88 -123q-130 -126 -332 -145l9 -195h-142l4 195q-207 21 -337 169t-130 396z" />
<glyph unicode="&#xa3;" horiz-adv-x="1318" d="M186 121q144 75 144 244v299h-131v131h131v282q0 189 107.5 286t275.5 97q234 0 395 -117l-96 -149q-134 92 -279 92q-105 0 -157 -56.5t-52 -180.5v-254h426v-131h-426v-265q0 -97 -25.5 -152t-82.5 -95q74 18 137 18q59 0 148 -13.5t147 -13.5q97 0 190 19l35 -164 q-106 -25 -246 -25q-76 0 -173.5 12.5t-153.5 12.5q-153 0 -256 -25z" />
<glyph unicode="&#xa4;" horiz-adv-x="1310" d="M102 252l158 156q-88 122 -88 288q0 174 90 291l-156 160l99 100l164 -164q122 78 284 78q166 0 291 -80l164 164l100 -98l-161 -162q88 -122 88 -289q0 -169 -84 -286l157 -156l-98 -102l-162 159q-121 -80 -295 -80q-167 0 -288 80l-160 -159zM371 696q0 -137 79 -216 t203 -79t203.5 79t79.5 216q0 138 -79.5 216.5t-203.5 78.5t-203 -78t-79 -217z" />
<glyph unicode="&#xa5;" horiz-adv-x="1320" d="M66 1434h229l373 -654l376 654h213l-415 -684h315v-134h-397l-2 -4v-133h399v-135h-399v-344h-191v344h-403v135h403v135l-2 2h-401v134h321z" />
<glyph unicode="&#xa6;" horiz-adv-x="460" d="M168 115v1323h125v-1323h-125z" />
<glyph unicode="&#xa7;" horiz-adv-x="1034" d="M152 45l51 133q111 -63 286 -63q110 0 166 38.5t56 110.5q0 32 -14 56t-35 38.5t-57.5 27t-67.5 19.5t-79.5 18.5t-80.5 20.5q-103 34 -160 95t-57 170q0 87 49.5 152.5t140.5 92.5q-83 30 -133.5 93t-50.5 143q0 128 97.5 199t268.5 71q177 0 306 -59l-47 -129 q-107 43 -248 43q-105 0 -158 -38t-53 -101q0 -54 42 -90t84 -50t136 -36l12 -3q66 -17 110.5 -34.5t88.5 -47.5t66 -76.5t22 -109.5q0 -170 -201 -248q199 -63 199 -227q0 -128 -103.5 -206.5t-283.5 -78.5q-197 0 -352 76zM319 715q0 -80 54.5 -123t150.5 -43t151.5 43 t55.5 123q0 78 -56.5 123t-150.5 45t-149.5 -45t-55.5 -123z" />
<glyph unicode="&#xa8;" horiz-adv-x="663" d="M51 1354q0 53 29 80.5t76 27.5t75.5 -27.5t28.5 -80.5t-28.5 -80t-75.5 -27q-46 0 -75.5 27.5t-29.5 79.5zM403 1354q0 53 29.5 80.5t77.5 27.5q46 0 74 -27.5t28 -80.5q0 -52 -28 -79.5t-74 -27.5q-48 0 -77.5 27.5t-29.5 79.5z" />
<glyph unicode="&#xa9;" horiz-adv-x="1687" d="M102 719q0 168 60.5 309t162.5 235t237 146.5t284 52.5q148 0 282 -52.5t235.5 -146.5t161.5 -235t60 -309t-60 -310.5t-161.5 -237t-235.5 -147.5t-282 -53q-149 0 -284 53t-237 147.5t-162.5 237t-60.5 310.5zM227 719q0 -188 83.5 -332t223.5 -219.5t312 -75.5 q171 0 309.5 75.5t221.5 219.5t83 332q0 187 -83 330.5t-221.5 217.5t-309.5 74t-311 -75t-224 -218.5t-84 -328.5zM475 727q0 96 30.5 171.5t83 120.5t116.5 68t137 23q161 0 262 -88l-53 -98q-53 36 -96.5 52.5t-108.5 16.5q-110 0 -178 -69t-68 -195q0 -124 72.5 -195 t183.5 -71q120 0 207 74l57 -103q-104 -92 -272 -92q-162 0 -267.5 99t-105.5 286z" />
<glyph unicode="&#xaa;" horiz-adv-x="811" d="M115 981q0 88 63 139t164 51q80 0 166 -12v49q0 129 -135 129q-88 0 -176 -43l-47 90q97 68 237 68q250 0 250 -221v-289q0 -51 47 -51h21l-9 -96q-33 -11 -67 -11q-42 0 -71 17t-40 45q-77 -64 -196 -64q-88 0 -147.5 54t-59.5 145zM240 981q0 -43 29.5 -68.5 t76.5 -25.5q95 0 158 59v115q-46 10 -137 10q-59 0 -93 -23t-34 -67z" />
<glyph unicode="&#xab;" horiz-adv-x="980" d="M57 520l310 383l112 -92l-243 -289l241 -286l-104 -95zM430 520l313 383l109 -92l-242 -289l242 -286l-104 -95z" />
<glyph unicode="&#xac;" horiz-adv-x="1366" d="M174 682v135h1022v-508h-141v373h-881z" />
<glyph unicode="&#xad;" horiz-adv-x="929" d="M166 524v158h600v-158h-600z" />
<glyph unicode="&#xae;" horiz-adv-x="1687" d="M102 719q0 168 60.5 309t162.5 235t237 146.5t284 52.5q148 0 282 -52.5t235.5 -146.5t161.5 -235t60 -309t-60 -310.5t-161.5 -237t-235.5 -147.5t-282 -53q-149 0 -284 53t-237 147.5t-162.5 237t-60.5 310.5zM227 719q0 -188 83.5 -332t223.5 -219.5t312 -75.5 q171 0 309.5 75.5t221.5 219.5t83 332q0 187 -83 330.5t-221.5 217.5t-309.5 74t-311 -75t-224 -218.5t-84 -328.5zM600 362v736h256q135 0 195.5 -59t60.5 -152q0 -71 -36.5 -123t-96.5 -80l172 -322h-139l-146 287h-149v-287h-117zM717 756h131q63 0 99 34t36 87 q0 110 -135 110h-131v-231z" />
<glyph unicode="&#xaf;" horiz-adv-x="663" d="M94 1323v111h475v-111h-475z" />
<glyph unicode="&#xb0;" horiz-adv-x="778" d="M100 1176q0 68 24.5 122t66 87t92 50t106.5 17t107 -17t92.5 -50t66.5 -87t25 -122q0 -132 -86 -202.5t-205 -70.5t-204 70.5t-85 202.5zM252 1176q0 -68 38 -104t99 -36q64 0 101.5 36t37.5 104t-37.5 103.5t-101.5 35.5q-61 0 -99 -35.5t-38 -103.5z" />
<glyph unicode="&#xb1;" horiz-adv-x="1243" d="M117 33v135h1013v-135h-1013zM117 836v135h440v461h135v-461h438v-135h-438v-461h-135v461h-440z" />
<glyph unicode="&#xb4;" horiz-adv-x="663" d="M139 1208l148 250h237l-250 -250h-135z" />
<glyph unicode="&#xb6;" horiz-adv-x="1050" d="M139 1102q0 155 91 243.5t290 88.5h363v-1434h-142v1300h-120v-1300h-142v756q-172 20 -256 109.5t-84 236.5z" />
<glyph unicode="&#xb7;" horiz-adv-x="575" d="M150 625q0 68 40.5 104.5t98.5 36.5t98.5 -36.5t40.5 -104.5q0 -71 -40.5 -108.5t-98.5 -37.5t-98.5 37.5t-40.5 108.5z" />
<glyph unicode="&#xb8;" horiz-adv-x="663" d="M182 -127l80 141h105l-62 -98q77 7 126.5 -36.5t49.5 -110.5q0 -88 -67.5 -136.5t-175.5 -58.5l-35 92q77 12 112 36t35 65q0 23 -16 39t-41 16q-19 0 -39 -10z" />
<glyph unicode="&#xba;" horiz-adv-x="823" d="M94 1116q0 84 26.5 150t72 106t102 60t119.5 20q60 0 116 -20.5t102 -60t73.5 -105.5t27.5 -150t-27.5 -150.5t-73.5 -106.5t-102 -60.5t-116 -20.5q-63 0 -119.5 20.5t-102 60.5t-72 106.5t-26.5 150.5zM227 1116q0 -102 51.5 -159.5t135.5 -57.5q82 0 133 57.5 t51 159.5q0 99 -51.5 157t-132.5 58q-83 0 -135 -57.5t-52 -157.5z" />
<glyph unicode="&#xbb;" horiz-adv-x="980" d="M129 236l242 286l-242 289l111 92l311 -383l-318 -379zM504 236l241 286l-241 289l110 92l310 -383l-316 -379z" />
<glyph unicode="&#xbc;" horiz-adv-x="2121" d="M150 1300l258 125h106v-686h174v-133h-502v133h174v514l-159 -67zM700 -258l590 1800h119l-586 -1800h-123zM1374 197v122l406 496h129v-493h125v-125h-125v-201h-150v201h-385zM1534 322h225v282z" />
<glyph unicode="&#xbd;" horiz-adv-x="2121" d="M150 1300l258 125h106v-686h174v-133h-502v133h174v514l-159 -67zM700 -258l590 1800h119l-586 -1800h-123zM1397 725q136 102 297 102q135 0 215 -68t80 -175q0 -171 -226 -346l-145 -109h391v-137h-592v125l236 188q166 131 166 256q0 59 -40.5 92t-107.5 33 q-106 0 -203 -74z" />
<glyph unicode="&#xbe;" horiz-adv-x="2121" d="M92 676l66 119q112 -74 225 -74q92 0 138 35.5t46 93.5q0 64 -42.5 93.5t-139.5 29.5h-90v123h74q77 0 121.5 28t44.5 82q0 46 -36 73.5t-110 27.5q-109 0 -205 -80l-71 104q121 111 286 111q146 0 223.5 -59t77.5 -150q0 -62 -39.5 -112.5t-111.5 -73.5 q89 -18 136.5 -68.5t47.5 -132.5q0 -117 -94.5 -190.5t-241.5 -73.5q-175 0 -305 94zM700 -258l590 1800h119l-586 -1800h-123zM1374 197v122l406 496h129v-493h125v-125h-125v-201h-150v201h-385zM1534 322h225v282z" />
<glyph unicode="&#xbf;" horiz-adv-x="1140" d="M115 -31q0 63 21.5 119t56 98t76 82t83.5 79.5t77 80.5t57.5 95.5t23.5 115.5h156q0 -71 -19.5 -132.5t-50.5 -106.5t-68.5 -85t-75.5 -75.5t-69 -70.5t-50.5 -78t-19.5 -91q0 -94 69 -146.5t187 -52.5q194 0 332 101l80 -131q-73 -59 -189 -97.5t-245 -38.5 q-199 0 -315.5 96t-116.5 238zM449 979q0 64 37 100.5t98 36.5q60 0 96.5 -37t36.5 -100t-36.5 -100t-96.5 -37q-61 0 -98 36.5t-37 100.5z" />
<glyph unicode="&#xc0;" horiz-adv-x="1441" d="M74 0l534 1434h219l541 -1434h-211l-123 342h-635l-123 -342h-202zM420 1819h239l148 -250h-133zM455 502h524l-262 733z" />
<glyph unicode="&#xc1;" horiz-adv-x="1441" d="M74 0l534 1434h219l541 -1434h-211l-123 342h-635l-123 -342h-202zM455 502h524l-262 733zM637 1569l147 250h238l-250 -250h-135z" />
<glyph unicode="&#xc2;" horiz-adv-x="1441" d="M74 0l534 1434h219l541 -1434h-211l-123 342h-635l-123 -342h-202zM430 1589l236 242h106l221 -242h-166l-112 109l-109 -109h-176zM455 502h524l-262 733z" />
<glyph unicode="&#xc3;" horiz-adv-x="1441" d="M74 0l534 1434h219l541 -1434h-211l-123 342h-635l-123 -342h-202zM410 1645q26 85 78.5 125t111.5 40q41 0 82.5 -19t76.5 -37.5t60 -18.5q62 0 101 92l100 -51q-25 -80 -73 -126t-111 -46q-48 0 -116.5 37.5t-105.5 37.5q-40 0 -64.5 -21t-43.5 -63zM455 502h524 l-262 733z" />
<glyph unicode="&#xc4;" horiz-adv-x="1441" d="M74 0l534 1434h219l541 -1434h-211l-123 342h-635l-123 -342h-202zM438 1714q0 53 29 81t76 28q46 0 75 -28t29 -81t-28.5 -79.5t-75.5 -26.5t-76 27t-29 79zM455 502h524l-262 733zM791 1714q0 54 29 81.5t77 27.5q46 0 74 -27.5t28 -81.5q0 -52 -28 -79t-74 -27 q-48 0 -77 27t-29 79z" />
<glyph unicode="&#xc5;" horiz-adv-x="1441" d="M74 0l534 1434h219l541 -1434h-211l-123 342h-635l-123 -342h-202zM455 502h524l-262 733zM563 1722q0 71 46.5 111.5t115.5 40.5q67 0 112.5 -40.5t45.5 -111.5t-45 -110t-113 -39q-69 0 -115.5 39t-46.5 110zM651 1722q0 -32 20.5 -52.5t53.5 -20.5q32 0 51 20t19 53 t-19 54.5t-51 21.5q-34 0 -54 -21.5t-20 -54.5z" />
<glyph unicode="&#xc6;" horiz-adv-x="1843" d="M74 0l721 1434h940v-170h-650v-453h574v-170h-574v-471h650v-170h-842v285h-459l-137 -285h-223zM514 451h379v782z" />
<glyph unicode="&#xc7;" horiz-adv-x="1355" d="M131 715q-1 151 34 275t97 210.5t148 145.5t186.5 86.5t214.5 27.5q139 0 258.5 -34t200.5 -95l-94 -147q-153 102 -367 102q-98 0 -183 -34t-152 -101.5t-105.5 -179.5t-38.5 -256q0 -119 25.5 -215t70 -161.5t106 -109t132 -63.5t149.5 -19q222 3 389 138l101 -140 q-92 -81 -220.5 -126.5t-279.5 -45.5h-2l-37 -57q77 7 126.5 -36.5t49.5 -110.5q0 -88 -67.5 -136.5t-176.5 -58.5l-34 92q77 12 112 36t35 65q0 23 -16 39t-41 16q-19 0 -39 -10l-72 61l59 107q-120 15 -220.5 66t-179 139t-123.5 223.5t-46 306.5z" />
<glyph unicode="&#xc8;" horiz-adv-x="1187" d="M168 0v1434h913v-166h-723v-453h637v-168h-637v-475h723v-172h-913zM295 1819h240l147 -250h-133z" />
<glyph unicode="&#xc9;" horiz-adv-x="1187" d="M168 0v1434h913v-166h-723v-453h637v-168h-637v-475h723v-172h-913zM512 1569l147 250h238l-250 -250h-135z" />
<glyph unicode="&#xca;" horiz-adv-x="1187" d="M168 0v1434h913v-166h-723v-453h637v-168h-637v-475h723v-172h-913zM303 1589l236 242h106l221 -242h-166l-112 109l-109 -109h-176z" />
<glyph unicode="&#xcb;" horiz-adv-x="1187" d="M168 0v1434h913v-166h-723v-453h637v-168h-637v-475h723v-172h-913zM313 1714q0 53 29 81t76 28q46 0 75 -28t29 -81t-28.5 -79.5t-75.5 -26.5t-76 27t-29 79zM666 1714q0 54 29 81.5t77 27.5q46 0 74 -27.5t28 -81.5q0 -52 -28 -79t-74 -27q-48 0 -77 27t-29 79z" />
<glyph unicode="&#xcc;" horiz-adv-x="569" d="M-18 1819h239l148 -250h-133zM188 0v1434h191v-1434h-191z" />
<glyph unicode="&#xcd;" horiz-adv-x="569" d="M188 0v1434h191v-1434h-191zM197 1569l147 250h238l-250 -250h-135z" />
<glyph unicode="&#xce;" horiz-adv-x="569" d="M-10 1589l235 242h107l221 -242h-166l-113 109l-108 -109h-176zM188 0v1434h191v-1434h-191z" />
<glyph unicode="&#xcf;" horiz-adv-x="569" d="M0 1714q0 53 29 81t75 28q47 0 76 -28t29 -81t-29 -79.5t-76 -26.5q-46 0 -75 27t-29 79zM188 0v1434h191v-1434h-191zM352 1714q0 53 29.5 81t77.5 28q46 0 74 -27.5t28 -81.5q0 -52 -28 -79t-74 -27q-48 0 -77.5 27t-29.5 79z" />
<glyph unicode="&#xd0;" horiz-adv-x="1613" d="M168 662v145h190v627h418q119 0 223 -25.5t193.5 -80.5t153.5 -136.5t100.5 -200t36.5 -264.5q0 -180 -55.5 -321t-152.5 -228.5t-224 -132.5t-275 -45h-418v662h-190zM551 176h244q235 0 362 138t127 413q0 535 -489 535h-244v-455h235v-145h-235v-486z" />
<glyph unicode="&#xd1;" horiz-adv-x="1499" d="M168 0v1434h166l805 -1102v1102h192v-1434h-162l-811 1100v-1100h-190zM426 1651q26 86 78.5 126t111.5 40q41 0 82.5 -19t77 -38t60.5 -19q61 0 100 92l100 -51q-25 -80 -73 -126t-111 -46q-48 0 -116 38t-105 38q-40 0 -65 -21t-44 -63z" />
<glyph unicode="&#xd2;" d="M131 723q0 151 39 275t105 208.5t155.5 142.5t187.5 84.5t203 26.5t202.5 -26.5t186 -84.5t154 -142.5t104.5 -208.5t39 -275t-39 -277t-104.5 -212t-154 -146t-186.5 -87.5t-202 -27.5q-105 0 -203.5 27.5t-187.5 87.5t-155 146t-105 212t-39 277zM332 723 q0 -138 38 -248.5t104.5 -181.5t153.5 -108.5t187 -37.5q101 0 189.5 36.5t157 106.5t108 181.5t39.5 251.5q0 139 -39 248.5t-107 177t-155 102.5t-187 35q-102 0 -189.5 -35t-155 -102.5t-106 -176.5t-38.5 -249zM502 1819h239l148 -250h-133z" />
<glyph unicode="&#xd3;" d="M131 723q0 151 39 275t105 208.5t155.5 142.5t187.5 84.5t203 26.5t202.5 -26.5t186 -84.5t154 -142.5t104.5 -208.5t39 -275t-39 -277t-104.5 -212t-154 -146t-186.5 -87.5t-202 -27.5q-105 0 -203.5 27.5t-187.5 87.5t-155 146t-105 212t-39 277zM332 723 q0 -138 38 -248.5t104.5 -181.5t153.5 -108.5t187 -37.5q101 0 189.5 36.5t157 106.5t108 181.5t39.5 251.5q0 139 -39 248.5t-107 177t-155 102.5t-187 35q-102 0 -189.5 -35t-155 -102.5t-106 -176.5t-38.5 -249zM719 1569l147 250h238l-250 -250h-135z" />
<glyph unicode="&#xd4;" d="M131 723q0 151 39 275t105 208.5t155.5 142.5t187.5 84.5t203 26.5t202.5 -26.5t186 -84.5t154 -142.5t104.5 -208.5t39 -275t-39 -277t-104.5 -212t-154 -146t-186.5 -87.5t-202 -27.5q-105 0 -203.5 27.5t-187.5 87.5t-155 146t-105 212t-39 277zM332 723 q0 -138 38 -248.5t104.5 -181.5t153.5 -108.5t187 -37.5q101 0 189.5 36.5t157 106.5t108 181.5t39.5 251.5q0 139 -39 248.5t-107 177t-155 102.5t-187 35q-102 0 -189.5 -35t-155 -102.5t-106 -176.5t-38.5 -249zM510 1589l235 242h107l221 -242h-166l-112 109l-109 -109 h-176z" />
<glyph unicode="&#xd5;" d="M131 723q0 151 39 275t105 208.5t155.5 142.5t187.5 84.5t203 26.5t202.5 -26.5t186 -84.5t154 -142.5t104.5 -208.5t39 -275t-39 -277t-104.5 -212t-154 -146t-186.5 -87.5t-202 -27.5q-105 0 -203.5 27.5t-187.5 87.5t-155 146t-105 212t-39 277zM332 723 q0 -138 38 -248.5t104.5 -181.5t153.5 -108.5t187 -37.5q101 0 189.5 36.5t157 106.5t108 181.5t39.5 251.5q0 139 -39 248.5t-107 177t-155 102.5t-187 35q-102 0 -189.5 -35t-155 -102.5t-106 -176.5t-38.5 -249zM489 1645q26 85 78.5 125t112.5 40q41 0 82.5 -19 t76.5 -37.5t60 -18.5q61 0 100 92l101 -51q-25 -80 -73.5 -126t-111.5 -46q-48 0 -116 37.5t-105 37.5q-40 0 -64.5 -21t-43.5 -63z" />
<glyph unicode="&#xd6;" d="M131 723q0 151 39 275t105 208.5t155.5 142.5t187.5 84.5t203 26.5t202.5 -26.5t186 -84.5t154 -142.5t104.5 -208.5t39 -275t-39 -277t-104.5 -212t-154 -146t-186.5 -87.5t-202 -27.5q-105 0 -203.5 27.5t-187.5 87.5t-155 146t-105 212t-39 277zM332 723 q0 -138 38 -248.5t104.5 -181.5t153.5 -108.5t187 -37.5q101 0 189.5 36.5t157 106.5t108 181.5t39.5 251.5q0 139 -39 248.5t-107 177t-155 102.5t-187 35q-102 0 -189.5 -35t-155 -102.5t-106 -176.5t-38.5 -249zM520 1714q0 53 29 81t76 28q46 0 75 -28t29 -81 t-28.5 -79.5t-75.5 -26.5t-76 27t-29 79zM872 1714q0 53 29.5 81t77.5 28q46 0 74 -27.5t28 -81.5q0 -52 -28 -79t-74 -27q-48 0 -77.5 27t-29.5 79z" />
<glyph unicode="&#xd7;" horiz-adv-x="1351" d="M158 969l106 102l412 -426l411 426l105 -106l-412 -426l412 -428l-102 -107l-412 428l-414 -426l-104 105l411 428z" />
<glyph unicode="&#xd8;" d="M131 723q0 151 39 275t105 208.5t155.5 142.5t187.5 84.5t203 26.5q163 0 295 -59l129 227l119 -63l-131 -232q128 -91 201 -243.5t73 -366.5q0 -151 -39 -277t-104.5 -212t-154 -146t-186.5 -87.5t-202 -27.5q-170 0 -317 72l-139 -248l-117 72l141 248 q-120 96 -189 248t-69 358zM332 723q0 -280 151 -438l545 958q-93 43 -207 43q-102 0 -189.5 -35t-155 -102.5t-106 -176.5t-38.5 -249zM594 201q102 -54 221 -54q101 0 189.5 36.5t157 106.5t108 181.5t39.5 251.5q0 294 -168 446z" />
<glyph unicode="&#xd9;" horiz-adv-x="1433" d="M168 518v916h190v-924q0 -169 94.5 -263.5t264.5 -94.5q172 0 265 94t93 264v924h191v-916q0 -143 -44 -251t-121.5 -171.5t-173.5 -94t-210 -30.5q-90 0 -169 18.5t-149.5 60.5t-121 104.5t-80 155.5t-29.5 208zM401 1819h240l147 -250h-133z" />
<glyph unicode="&#xda;" horiz-adv-x="1433" d="M168 518v916h190v-924q0 -169 94.5 -263.5t264.5 -94.5q172 0 265 94t93 264v924h191v-916q0 -143 -44 -251t-121.5 -171.5t-173.5 -94t-210 -30.5q-90 0 -169 18.5t-149.5 60.5t-121 104.5t-80 155.5t-29.5 208zM618 1569l148 250h238l-250 -250h-136z" />
<glyph unicode="&#xdb;" horiz-adv-x="1433" d="M168 518v916h190v-924q0 -169 94.5 -263.5t264.5 -94.5q172 0 265 94t93 264v924h191v-916q0 -143 -44 -251t-121.5 -171.5t-173.5 -94t-210 -30.5q-90 0 -169 18.5t-149.5 60.5t-121 104.5t-80 155.5t-29.5 208zM412 1589l235 242h107l221 -242h-166l-113 109l-108 -109 h-176z" />
<glyph unicode="&#xdc;" horiz-adv-x="1433" d="M168 518v916h190v-924q0 -169 94.5 -263.5t264.5 -94.5q172 0 265 94t93 264v924h191v-916q0 -143 -44 -251t-121.5 -171.5t-173.5 -94t-210 -30.5q-90 0 -169 18.5t-149.5 60.5t-121 104.5t-80 155.5t-29.5 208zM420 1714q0 53 29 81t75 28q47 0 76 -28t29 -81 t-29 -79.5t-76 -26.5q-46 0 -75 27t-29 79zM772 1714q0 53 29.5 81t77.5 28q46 0 74 -27.5t28 -81.5q0 -52 -28 -79t-74 -27q-48 0 -77.5 27t-29.5 79z" />
<glyph unicode="&#xdd;" horiz-adv-x="1339" d="M49 1434h223l379 -680l375 680h215l-500 -863v-571h-190v573zM573 1569l148 250h237l-249 -250h-136z" />
<glyph unicode="&#xde;" horiz-adv-x="1148" d="M168 0v1434h194v-244h248q236 0 359 -118.5t123 -311.5q0 -96 -31 -178t-89.5 -144t-151 -97.5t-208.5 -35.5h-250v-305h-194zM362 473h226q141 0 222 74.5t81 212.5q0 258 -303 258h-226v-545z" />
<glyph unicode="&#xdf;" horiz-adv-x="1159" d="M166 0v1221q0 159 97 251.5t278 92.5q184 0 284.5 -90.5t100.5 -235.5q0 -72 -21 -130.5t-51 -96t-59.5 -69t-50.5 -63.5t-21 -65q0 -26 18.5 -51.5t48 -49t65 -49.5t71 -59t65 -71t48 -92.5t18.5 -116.5q0 -168 -100 -258.5t-267 -90.5q-138 0 -241 39l38 144 q108 -31 187 -31q91 0 142.5 55.5t51.5 132.5q0 48 -18 90t-47 73t-64 60t-69.5 57.5t-63.5 58.5t-47 68.5t-18 82.5q0 45 20 85t49 72t58 65t49 79t20 100q0 94 -50 143.5t-142 49.5q-193 0 -193 -191v-1210h-186z" />
<glyph unicode="&#xe0;" horiz-adv-x="1148" d="M104 293q0 81 33.5 141.5t93 96t133.5 52.5t162 17q59 0 125 -5.5t99.5 -10t44.5 -6.5v137q0 127 -62 178t-180 51q-185 0 -317 -104l-78 118q168 142 409 142q215 0 313.5 -91.5t98.5 -291.5v-502q0 -86 65 -86q8 0 22.5 1t16.5 1l-18 -123q-29 -20 -96 -20 q-59 0 -94.5 28t-55.5 95q-120 -138 -334 -138q-113 0 -196.5 32t-134 105.5t-50.5 182.5zM266 1462h240l147 -250h-133zM283 297q0 -49 18.5 -84.5t51.5 -54.5t71 -28t84 -9q96 0 171.5 36.5t117.5 108.5v174q-119 27 -250 27q-264 0 -264 -170z" />
<glyph unicode="&#xe1;" horiz-adv-x="1148" d="M104 293q0 81 33.5 141.5t93 96t133.5 52.5t162 17q59 0 125 -5.5t99.5 -10t44.5 -6.5v137q0 127 -62 178t-180 51q-185 0 -317 -104l-78 118q168 142 409 142q215 0 313.5 -91.5t98.5 -291.5v-502q0 -86 65 -86q8 0 22.5 1t16.5 1l-18 -123q-29 -20 -96 -20 q-59 0 -94.5 28t-55.5 95q-120 -138 -334 -138q-113 0 -196.5 32t-134 105.5t-50.5 182.5zM283 297q0 -49 18.5 -84.5t51.5 -54.5t71 -28t84 -9q96 0 171.5 36.5t117.5 108.5v174q-119 27 -250 27q-264 0 -264 -170zM483 1212l148 250h237l-250 -250h-135z" />
<glyph unicode="&#xe2;" horiz-adv-x="1148" d="M104 293q0 81 33.5 141.5t93 96t133.5 52.5t162 17q59 0 125 -5.5t99.5 -10t44.5 -6.5v137q0 127 -62 178t-180 51q-185 0 -317 -104l-78 118q168 142 409 142q215 0 313.5 -91.5t98.5 -291.5v-502q0 -86 65 -86q8 0 22.5 1t16.5 1l-18 -123q-29 -20 -96 -20 q-59 0 -94.5 28t-55.5 95q-120 -138 -334 -138q-113 0 -196.5 32t-134 105.5t-50.5 182.5zM274 1233l236 242h106l222 -242h-166l-113 108l-108 -108h-177zM283 297q0 -49 18.5 -84.5t51.5 -54.5t71 -28t84 -9q96 0 171.5 36.5t117.5 108.5v174q-119 27 -250 27 q-264 0 -264 -170z" />
<glyph unicode="&#xe3;" horiz-adv-x="1148" d="M104 293q0 81 33.5 141.5t93 96t133.5 52.5t162 17q59 0 125 -5.5t99.5 -10t44.5 -6.5v137q0 127 -62 178t-180 51q-185 0 -317 -104l-78 118q168 142 409 142q215 0 313.5 -91.5t98.5 -291.5v-502q0 -86 65 -86q8 0 22.5 1t16.5 1l-18 -123q-29 -20 -96 -20 q-59 0 -94.5 28t-55.5 95q-120 -138 -334 -138q-113 0 -196.5 32t-134 105.5t-50.5 182.5zM254 1288q26 86 78.5 126t111.5 40q41 0 82.5 -19t77 -38t60.5 -19q61 0 100 92l100 -51q-25 -80 -73 -126t-111 -46q-48 0 -116 38t-105 38q-40 0 -65 -21t-44 -63zM283 297 q0 -49 18.5 -84.5t51.5 -54.5t71 -28t84 -9q96 0 171.5 36.5t117.5 108.5v174q-119 27 -250 27q-264 0 -264 -170z" />
<glyph unicode="&#xe4;" horiz-adv-x="1148" d="M104 293q0 81 33.5 141.5t93 96t133.5 52.5t162 17q59 0 125 -5.5t99.5 -10t44.5 -6.5v137q0 127 -62 178t-180 51q-185 0 -317 -104l-78 118q168 142 409 142q215 0 313.5 -91.5t98.5 -291.5v-502q0 -86 65 -86q8 0 22.5 1t16.5 1l-18 -123q-29 -20 -96 -20 q-59 0 -94.5 28t-55.5 95q-120 -138 -334 -138q-113 0 -196.5 32t-134 105.5t-50.5 182.5zM283 297q0 -49 18.5 -84.5t51.5 -54.5t71 -28t84 -9q96 0 171.5 36.5t117.5 108.5v174q-119 27 -250 27q-264 0 -264 -170zM285 1358q0 53 28.5 80.5t75.5 27.5t76 -27.5t29 -80.5 t-29 -80t-76 -27q-46 0 -75 27.5t-29 79.5zM637 1358q0 53 29 80.5t77 27.5q46 0 74.5 -27.5t28.5 -80.5q0 -52 -28.5 -79.5t-74.5 -27.5q-48 0 -77 27.5t-29 79.5z" />
<glyph unicode="&#xe5;" horiz-adv-x="1148" d="M104 293q0 81 33.5 141.5t93 96t133.5 52.5t162 17q59 0 125 -5.5t99.5 -10t44.5 -6.5v137q0 127 -62 178t-180 51q-185 0 -317 -104l-78 118q168 142 409 142q215 0 313.5 -91.5t98.5 -291.5v-502q0 -86 65 -86q8 0 22.5 1t16.5 1l-18 -123q-29 -20 -96 -20 q-59 0 -94.5 28t-55.5 95q-120 -138 -334 -138q-113 0 -196.5 32t-134 105.5t-50.5 182.5zM283 297q0 -49 18.5 -84.5t51.5 -54.5t71 -28t84 -9q96 0 171.5 36.5t117.5 108.5v174q-119 27 -250 27q-264 0 -264 -170zM408 1366q0 71 46 111.5t115 40.5q67 0 112.5 -40.5 t45.5 -111.5t-45 -110t-113 -39q-69 0 -115 39t-46 110zM496 1366q0 -33 20 -53.5t53 -20.5q32 0 51 20.5t19 53.5t-19 54.5t-51 21.5q-34 0 -53.5 -21.5t-19.5 -54.5z" />
<glyph unicode="&#xe6;" horiz-adv-x="1875" d="M104 301q0 72 25 129t68 94.5t103 61.5t126.5 34.5t142.5 10.5q102 0 240 -23v90q0 124 -66 184t-184 60q-165 0 -311 -102l-80 121q183 137 410 137q137 0 221 -48t131 -155q64 102 166 152.5t225 50.5q194 0 315 -129.5t121 -368.5q0 -2 1 -31t0 -51t-5 -43h-756 q12 -168 99.5 -256t236.5 -88q93 0 178 32t146 83l67 -113q-66 -71 -171.5 -114.5t-233.5 -43.5q-281 0 -412 218q-69 -102 -181 -160t-253 -58q-162 0 -265.5 85t-103.5 241zM285 309q0 -50 19 -87t50.5 -56.5t66.5 -29t73 -9.5q80 0 152 30t117 81t48 108v127 q-152 23 -236 23q-138 0 -214 -42t-76 -145zM999 612h582q-16 334 -278 334q-133 0 -214 -87.5t-90 -246.5z" />
<glyph unicode="&#xe7;" horiz-adv-x="1095" d="M102 543q0 131 42.5 238t115 176t167 106t200.5 37q229 0 381 -129l-86 -131q-66 50 -129.5 75t-153.5 25q-155 0 -251.5 -104t-96.5 -293q0 -190 99.5 -299t252.5 -109q161 0 299 111l88 -123q-67 -65 -168 -107.5t-225 -42.5l-37 -57q77 7 126.5 -36.5t49.5 -110.5 q0 -88 -67.5 -136.5t-176.5 -58.5l-34 92q77 12 112 36t35 65q0 23 -16 39t-41 16q-19 0 -39 -10l-72 61l62 107q-196 30 -316.5 177t-120.5 386z" />
<glyph unicode="&#xe8;" horiz-adv-x="1196" d="M102 530q0 265 137 417.5t363 152.5q117 0 210 -43t150 -115.5t87 -163t30 -190.5q0 -60 -10 -125h-776q38 -334 344 -334q189 0 330 117l86 -119q-177 -154 -445 -154q-103 0 -192.5 34.5t-160.5 101t-112 175t-41 246.5zM287 600h622q-6 157 -87 252.5t-216 95.5 q-139 0 -224.5 -90t-94.5 -258zM289 1458h239l148 -250h-133z" />
<glyph unicode="&#xe9;" horiz-adv-x="1196" d="M102 530q0 265 137 417.5t363 152.5q117 0 210 -43t150 -115.5t87 -163t30 -190.5q0 -60 -10 -125h-776q38 -334 344 -334q189 0 330 117l86 -119q-177 -154 -445 -154q-103 0 -192.5 34.5t-160.5 101t-112 175t-41 246.5zM287 600h622q-6 157 -87 252.5t-216 95.5 q-139 0 -224.5 -90t-94.5 -258zM504 1208l147 250h238l-250 -250h-135z" />
<glyph unicode="&#xea;" horiz-adv-x="1196" d="M102 530q0 265 137 417.5t363 152.5q117 0 210 -43t150 -115.5t87 -163t30 -190.5q0 -60 -10 -125h-776q38 -334 344 -334q189 0 330 117l86 -119q-177 -154 -445 -154q-103 0 -192.5 34.5t-160.5 101t-112 175t-41 246.5zM287 600h622q-6 157 -87 252.5t-216 95.5 q-139 0 -224.5 -90t-94.5 -258zM297 1229l235 241h107l221 -241h-166l-112 108l-109 -108h-176z" />
<glyph unicode="&#xeb;" horiz-adv-x="1196" d="M102 530q0 265 137 417.5t363 152.5q117 0 210 -43t150 -115.5t87 -163t30 -190.5q0 -60 -10 -125h-776q38 -334 344 -334q189 0 330 117l86 -119q-177 -154 -445 -154q-103 0 -192.5 34.5t-160.5 101t-112 175t-41 246.5zM287 600h622q-6 157 -87 252.5t-216 95.5 q-139 0 -224.5 -90t-94.5 -258zM307 1354q0 53 29 80.5t76 27.5t75.5 -27.5t28.5 -80.5t-28.5 -80t-75.5 -27q-46 0 -75.5 27.5t-29.5 79.5zM659 1354q0 53 29.5 80.5t77.5 27.5q46 0 74 -27.5t28 -80.5q0 -52 -28 -79.5t-74 -27.5q-48 0 -77.5 27.5t-29.5 79.5z" />
<glyph unicode="&#xec;" horiz-adv-x="477" d="M-82 1458h240l147 -250h-133zM145 0v1073h185v-1073h-185z" />
<glyph unicode="&#xed;" horiz-adv-x="477" d="M135 1208l148 250h237l-250 -250h-135zM145 0v1073h185v-1073h-185z" />
<glyph unicode="&#xee;" horiz-adv-x="477" d="M-72 1229l236 241h106l222 -241h-166l-113 108l-109 -108h-176zM145 0v1073h185v-1073h-185z" />
<glyph unicode="&#xef;" horiz-adv-x="477" d="M-61 1354q0 53 28.5 80.5t75.5 27.5t75.5 -27.5t28.5 -80.5t-28.5 -80t-75.5 -27q-46 0 -75 27.5t-29 79.5zM145 0v1073h185v-1073h-185zM291 1354q0 53 29 80.5t77 27.5q46 0 74.5 -27.5t28.5 -80.5q0 -52 -28.5 -79.5t-74.5 -27.5q-48 0 -77 27.5t-29 79.5z" />
<glyph unicode="&#xf0;" horiz-adv-x="1236" d="M102 541q0 141 40 250.5t109.5 175.5t155.5 99.5t185 33.5q200 0 319 -146q-72 184 -215 318l-247 -117l-50 90l209 101q-73 52 -151 94l94 106q117 -63 205 -131l200 96l50 -92l-166 -78q295 -287 295 -749q0 -296 -138 -457.5t-379 -161.5q-103 0 -194 34t-164 100.5 t-115.5 178t-42.5 255.5zM293 535q0 -185 88 -291.5t237 -106.5q147 0 236.5 107t89.5 291t-93 290.5t-239 106.5q-150 0 -234.5 -105t-84.5 -292z" />
<glyph unicode="&#xf1;" horiz-adv-x="1226" d="M166 0v1073h127l29 -164h6q79 95 165.5 143t211.5 48q168 0 262 -91.5t94 -265.5v-743h-184v690q0 132 -52.5 186t-150.5 54q-196 0 -328 -199v-731h-180zM291 1288q26 86 78.5 126t111.5 40q41 0 82.5 -19t76.5 -38t60 -19q62 0 101 92l100 -51q-25 -80 -73 -126 t-111 -46q-48 0 -116 38t-105 38q-40 0 -65 -21t-44 -63z" />
<glyph unicode="&#xf2;" horiz-adv-x="1257" d="M102 537q0 142 44 253t119 177t167.5 99.5t196.5 33.5q83 0 158.5 -20.5t143 -65t117 -109t78.5 -159.5t29 -209t-29 -209t-78.5 -160t-117 -109.5t-143 -65t-158.5 -20.5q-104 0 -196.5 33.5t-167.5 100t-119 177.5t-44 253zM293 537q0 -189 90.5 -294.5t245.5 -105.5 q156 0 247 106.5t91 293.5q0 186 -91 292.5t-247 106.5q-155 0 -245.5 -105t-90.5 -294zM309 1458h240l147 -250h-133z" />
<glyph unicode="&#xf3;" horiz-adv-x="1257" d="M102 537q0 142 44 253t119 177t167.5 99.5t196.5 33.5q83 0 158.5 -20.5t143 -65t117 -109t78.5 -159.5t29 -209t-29 -209t-78.5 -160t-117 -109.5t-143 -65t-158.5 -20.5q-104 0 -196.5 33.5t-167.5 100t-119 177.5t-44 253zM293 537q0 -189 90.5 -294.5t245.5 -105.5 q156 0 247 106.5t91 293.5q0 186 -91 292.5t-247 106.5q-155 0 -245.5 -105t-90.5 -294zM526 1208l148 250h237l-249 -250h-136z" />
<glyph unicode="&#xf4;" horiz-adv-x="1257" d="M102 537q0 142 44 253t119 177t167.5 99.5t196.5 33.5q83 0 158.5 -20.5t143 -65t117 -109t78.5 -159.5t29 -209t-29 -209t-78.5 -160t-117 -109.5t-143 -65t-158.5 -20.5q-104 0 -196.5 33.5t-167.5 100t-119 177.5t-44 253zM293 537q0 -189 90.5 -294.5t245.5 -105.5 q156 0 247 106.5t91 293.5q0 186 -91 292.5t-247 106.5q-155 0 -245.5 -105t-90.5 -294zM319 1229l236 241h107l221 -241h-166l-113 108l-108 -108h-177z" />
<glyph unicode="&#xf5;" horiz-adv-x="1257" d="M102 537q0 142 44 253t119 177t167.5 99.5t196.5 33.5q83 0 158.5 -20.5t143 -65t117 -109t78.5 -159.5t29 -209t-29 -209t-78.5 -160t-117 -109.5t-143 -65t-158.5 -20.5q-104 0 -196.5 33.5t-167.5 100t-119 177.5t-44 253zM293 537q0 -189 90.5 -294.5t245.5 -105.5 q156 0 247 106.5t91 293.5q0 186 -91 292.5t-247 106.5q-155 0 -245.5 -105t-90.5 -294zM299 1284q26 86 78.5 126t111.5 40q41 0 82.5 -19t77 -38t60.5 -19q61 0 100 92l100 -51q-25 -80 -73 -126t-111 -46q-48 0 -116 38t-105 38q-40 0 -65 -21t-44 -63z" />
<glyph unicode="&#xf6;" horiz-adv-x="1257" d="M102 537q0 142 44 253t119 177t167.5 99.5t196.5 33.5q83 0 158.5 -20.5t143 -65t117 -109t78.5 -159.5t29 -209t-29 -209t-78.5 -160t-117 -109.5t-143 -65t-158.5 -20.5q-104 0 -196.5 33.5t-167.5 100t-119 177.5t-44 253zM293 537q0 -189 90.5 -294.5t245.5 -105.5 q156 0 247 106.5t91 293.5q0 186 -91 292.5t-247 106.5q-155 0 -245.5 -105t-90.5 -294zM330 1354q0 53 28.5 80.5t75.5 27.5t76 -27.5t29 -80.5t-29 -80t-76 -27q-46 0 -75 27.5t-29 79.5zM682 1354q0 53 29 80.5t77 27.5q46 0 74.5 -27.5t28.5 -80.5q0 -52 -28.5 -79.5 t-74.5 -27.5q-48 0 -77 27.5t-29 79.5z" />
<glyph unicode="&#xf7;" horiz-adv-x="1150" d="M90 469v137h993v-137h-993zM457 115q0 63 37.5 96t89.5 33t89.5 -33t37.5 -96q0 -62 -37.5 -94.5t-89.5 -32.5t-89.5 32.5t-37.5 94.5zM457 963q0 63 37.5 96t89.5 33t89.5 -33t37.5 -96t-37.5 -95t-89.5 -32t-89.5 32t-37.5 95z" />
<glyph unicode="&#xf8;" horiz-adv-x="1257" d="M102 537q0 142 44 253t119 177t167.5 99.5t196.5 33.5q116 0 211 -39l98 194l106 -55l-104 -192q100 -69 157.5 -187.5t57.5 -283.5q0 -114 -29 -209t-78.5 -160t-117 -109.5t-143 -65t-158.5 -20.5q-111 0 -209 37l-107 -203l-104 58l108 201q-100 68 -157.5 186.5 t-57.5 284.5zM293 537q0 -212 110 -316l359 690q-61 25 -133 25q-155 0 -245.5 -105t-90.5 -294zM498 160q64 -23 131 -23q156 0 247 106.5t91 293.5q0 205 -111 313z" />
<glyph unicode="&#xf9;" horiz-adv-x="1214" d="M166 356v717h182v-674q0 -258 199 -258q98 0 172.5 50.5t146.5 138.5v743h183v-1073h-134l-38 160q-71 -90 -156.5 -137.5t-206.5 -47.5q-158 0 -253 94.5t-95 286.5zM313 1458h240l147 -250h-133z" />
<glyph unicode="&#xfa;" horiz-adv-x="1214" d="M166 356v717h182v-674q0 -258 199 -258q98 0 172.5 50.5t146.5 138.5v743h183v-1073h-134l-38 160q-71 -90 -156.5 -137.5t-206.5 -47.5q-158 0 -253 94.5t-95 286.5zM530 1208l148 250h237l-249 -250h-136z" />
<glyph unicode="&#xfb;" horiz-adv-x="1214" d="M166 356v717h182v-674q0 -258 199 -258q98 0 172.5 50.5t146.5 138.5v743h183v-1073h-134l-38 160q-71 -90 -156.5 -137.5t-206.5 -47.5q-158 0 -253 94.5t-95 286.5zM322 1229l235 241h107l221 -241h-166l-113 108l-108 -108h-176z" />
<glyph unicode="&#xfc;" horiz-adv-x="1214" d="M166 356v717h182v-674q0 -258 199 -258q98 0 172.5 50.5t146.5 138.5v743h183v-1073h-134l-38 160q-71 -90 -156.5 -137.5t-206.5 -47.5q-158 0 -253 94.5t-95 286.5zM332 1354q0 53 28.5 80.5t75.5 27.5t76 -27.5t29 -80.5t-29 -80t-76 -27q-46 0 -75 27.5t-29 79.5z M684 1354q0 53 29.5 80.5t77.5 27.5q46 0 74 -27.5t28 -80.5q0 -52 -28 -79.5t-74 -27.5q-48 0 -77.5 27.5t-29.5 79.5z" />
<glyph unicode="&#xfd;" horiz-adv-x="1161" d="M53 1073h191l350 -919l319 919h191l-418 -1141q-131 -360 -395 -360q-100 0 -187 27l33 143q49 -21 125 -21q68 0 128 50.5t95 140.5l21 55zM487 1212l148 250h237l-249 -250h-136z" />
<glyph unicode="&#xfe;" horiz-adv-x="1216" d="M166 -428v1862h176v-504h6q129 168 328 168q92 0 170 -33t138.5 -97.5t95 -169.5t34.5 -239q0 -130 -40.5 -241t-108.5 -185t-155.5 -116t-182.5 -42q-163 0 -277 68v-471h-184zM350 207q53 -42 106 -59t132 -17q62 0 121.5 27t108 77.5t78.5 132.5t30 183 q0 192 -82.5 287.5t-202.5 95.5q-171 0 -291 -201v-526z" />
<glyph unicode="&#xff;" horiz-adv-x="1161" d="M53 1073h191l350 -919l319 919h191l-418 -1141q-131 -360 -395 -360q-100 0 -187 27l33 143q49 -21 125 -21q68 0 128 50.5t95 140.5l21 55zM291 1358q0 53 28.5 80.5t75.5 27.5t76 -27.5t29 -80.5t-29 -80t-76 -27q-46 0 -75 27.5t-29 79.5zM643 1358q0 53 29.5 80.5 t77.5 27.5q46 0 74 -27.5t28 -80.5q0 -52 -28 -79.5t-74 -27.5q-48 0 -77.5 27.5t-29.5 79.5z" />
<glyph unicode="&#x152;" horiz-adv-x="1787" d="M131 719q0 174 54 310.5t152 224.5t231.5 134t295.5 46h817v-166h-606v-463h529v-156h-529v-483h606v-166h-821q-160 0 -293 46.5t-230.5 135t-151.5 226t-54 311.5zM332 719q0 -255 135 -405t377 -150h39v1110h-39q-239 0 -375.5 -150.5t-136.5 -404.5z" />
<glyph unicode="&#x153;" horiz-adv-x="2037" d="M102 537q0 134 41 242.5t111 177t160 105t190 36.5q135 0 251.5 -64t176.5 -192q38 89 104.5 147.5t144 83.5t167.5 25q94 0 172.5 -28t133.5 -76t93 -111.5t56 -133.5t18 -143q0 -104 -8 -131h-768q2 -45 12 -88.5t34.5 -91t61 -83t96.5 -58.5t136 -23q176 0 315 115 l86 -113q-68 -70 -175.5 -114t-233.5 -44q-95 0 -176.5 24.5t-153.5 82.5t-115 145q-39 -86 -111.5 -144.5t-151.5 -83t-163 -24.5q-102 0 -192 36.5t-160 105.5t-111 177.5t-41 242.5zM289 537q0 -185 88 -291.5t239 -106.5t236.5 106t85.5 292t-85.5 291.5t-236.5 105.5 t-239 -105.5t-88 -291.5zM1143 616h596q-6 152 -85 241t-212 89q-131 0 -210 -87t-89 -243z" />
<glyph unicode="&#x178;" horiz-adv-x="1339" d="M49 1434h223l379 -680l375 680h215l-500 -863v-571h-190v573zM377 1714q0 53 29 81t75 28q47 0 76 -28t29 -81t-29 -79.5t-76 -26.5q-46 0 -75 27t-29 79zM729 1714q0 53 29.5 81t77.5 28q46 0 74 -27.5t28 -81.5q0 -52 -28 -79t-74 -27q-48 0 -77.5 27t-29.5 79z" />
<glyph unicode="&#x2c6;" horiz-adv-x="663" d="M49 1229l236 241h106l221 -241h-166l-112 108l-109 -108h-176z" />
<glyph unicode="&#x2dc;" horiz-adv-x="663" d="M29 1284q26 86 78.5 126t111.5 40q41 0 82.5 -19t76.5 -38t60 -19q62 0 101 92l100 -51q-25 -80 -73 -126t-111 -46q-48 0 -116.5 38t-105.5 38q-40 0 -64.5 -21t-43.5 -63z" />
<glyph unicode="&#x2000;" horiz-adv-x="937" />
<glyph unicode="&#x2001;" horiz-adv-x="1874" />
<glyph unicode="&#x2002;" horiz-adv-x="937" />
<glyph unicode="&#x2003;" horiz-adv-x="1874" />
<glyph unicode="&#x2004;" horiz-adv-x="624" />
<glyph unicode="&#x2005;" horiz-adv-x="468" />
<glyph unicode="&#x2006;" horiz-adv-x="312" />
<glyph unicode="&#x2007;" horiz-adv-x="312" />
<glyph unicode="&#x2008;" horiz-adv-x="234" />
<glyph unicode="&#x2009;" horiz-adv-x="374" />
<glyph unicode="&#x200a;" horiz-adv-x="104" />
<glyph unicode="&#x2010;" horiz-adv-x="929" d="M166 524v158h600v-158h-600z" />
<glyph unicode="&#x2011;" horiz-adv-x="929" d="M166 524v158h600v-158h-600z" />
<glyph unicode="&#x2012;" horiz-adv-x="929" d="M166 524v158h600v-158h-600z" />
<glyph unicode="&#x2013;" horiz-adv-x="1226" d="M152 453v161h919v-161h-919z" />
<glyph unicode="&#x2014;" horiz-adv-x="1859" d="M162 453v161h1573v-161h-1573z" />
<glyph unicode="&#x2018;" horiz-adv-x="462" d="M57 1171q0 170 185 293l65 -37q-76 -76 -92 -145q53 -6 86 -42.5t33 -92.5q0 -65 -39 -102t-98 -37q-62 0 -101 45t-39 118z" />
<glyph unicode="&#x2019;" horiz-adv-x="522" d="M133 1327q0 64 38.5 100.5t96.5 36.5q63 0 102.5 -44t39.5 -117q0 -169 -185 -295l-67 39q78 78 92 145q-53 9 -85 44.5t-32 90.5z" />
<glyph unicode="&#x201a;" horiz-adv-x="462" d="M129 123q0 61 39 98t96 37q64 0 103 -45t39 -119q0 -182 -189 -303l-63 33q79 79 96 156q-49 3 -85 41t-36 102z" />
<glyph unicode="&#x201c;" horiz-adv-x="802" d="M66 1157q0 181 190 303l63 -33q-82 -82 -96 -157q50 -7 85.5 -42t35.5 -98q0 -62 -38.5 -98.5t-96.5 -36.5q-65 0 -104 44.5t-39 117.5zM406 1157q0 181 190 303l63 -33q-82 -82 -96 -157q48 -3 84.5 -40.5t36.5 -99.5t-38.5 -98.5t-96.5 -36.5q-65 0 -104 44.5 t-39 117.5z" />
<glyph unicode="&#x201d;" horiz-adv-x="802" d="M119 1325q0 61 39 98t96 37q65 0 104 -44.5t39 -117.5q0 -181 -190 -303l-64 31q83 83 97 158q-48 3 -84.5 41t-36.5 100zM459 1325q0 61 39 98t96 37q65 0 104 -44.5t39 -117.5q0 -181 -190 -303l-64 31q82 82 97 160q-49 5 -85 40.5t-36 98.5z" />
<glyph unicode="&#x201e;" horiz-adv-x="802" d="M119 123q0 61 39 98t96 37q64 0 103.5 -45t39.5 -119q0 -181 -190 -303l-64 33q83 83 97 158q-48 3 -84.5 41t-36.5 100zM459 123q0 61 39 98t96 37q64 0 103.5 -45t39.5 -119q0 -181 -190 -303l-64 33q85 85 99 160q-51 5 -87 40.5t-36 98.5z" />
<glyph unicode="&#x2022;" horiz-adv-x="649" d="M147 621q0 88 51.5 134t123.5 46q73 0 125.5 -46t52.5 -134t-52.5 -134.5t-125.5 -46.5q-72 0 -123.5 46.5t-51.5 134.5z" />
<glyph unicode="&#x2026;" horiz-adv-x="1802" d="M197 113q0 67 39 104t98 37q61 0 100 -37t39 -104q0 -68 -39 -105t-100 -37q-60 0 -98.5 37t-38.5 105zM764 113q0 67 39 104t98 37t98 -37t39 -104q0 -68 -38.5 -105t-98.5 -37t-98.5 37t-38.5 105zM1329 113q0 66 39.5 103.5t99.5 37.5t99 -37t39 -104q0 -68 -39 -105 t-99 -37t-99.5 37t-39.5 105z" />
<glyph unicode="&#x202f;" horiz-adv-x="374" />
<glyph unicode="&#x2039;" horiz-adv-x="716" d="M143 520l312 383l110 -92l-241 -289l241 -286l-104 -95z" />
<glyph unicode="&#x203a;" horiz-adv-x="737" d="M164 236l242 286l-242 289l110 92l312 -383l-318 -379z" />
<glyph unicode="&#x205f;" horiz-adv-x="468" />
<glyph unicode="&#x20ac;" horiz-adv-x="1468" d="M131 492v131h170q-4 62 -4 96q0 16 1 46t1 44h-168v131h186q34 174 124 292.5t213 172t274 53.5q274 0 458 -155l-104 -136q-167 117 -352 117q-152 0 -260 -87.5t-150 -256.5h719l-31 -131h-708q-4 -54 -4 -84q0 -53 6 -102h676l-31 -131h-621q45 -161 150.5 -250.5 t241.5 -89.5q203 0 376 131l101 -129q-83 -74 -207.5 -126.5t-280.5 -52.5q-105 0 -199 31.5t-172.5 93.5t-135.5 162t-83 230h-186z" />
<glyph unicode="&#x2122;" horiz-adv-x="1779" d="M131 1294v140h614v-140h-233v-641h-152v641h-229zM846 653v781h123l284 -502l303 502h107v-781h-152v467l-237 -401h-51l-230 399v-465h-147z" />
<glyph unicode="&#xe000;" horiz-adv-x="1075" d="M0 0v1075h1075v-1075h-1075z" />
<glyph unicode="&#xfb01;" horiz-adv-x="1097" d="M70 915v158h157v166q0 92 29 158t80.5 101.5t111.5 51t134 15.5q105 0 170.5 -22t128.5 -64l-80 -129q-69 61 -195 61q-194 0 -194 -172v-166h538v-1073h-180v915h-358v-915h-185v915h-157z" />
<glyph unicode="&#xfb02;" horiz-adv-x="1212" d="M70 918v155h157v141q0 357 391 357q206 0 304 -99t98 -280v-1192h-186v1184q0 123 -51.5 178t-161.5 55q-112 0 -160.5 -45.5t-48.5 -159.5v-139h262v-155h-262v-918h-185v918h-157z" />
<glyph unicode="&#xfb03;" horiz-adv-x="1660" d="M70 915v158h157v193q0 153 85.5 229t238.5 76q98 0 168 -25l-33 -143q-49 14 -108 14q-166 0 -166 -149v-195h381v166q0 92 28.5 158t80 101.5t111.5 51t134 15.5q105 0 170.5 -22t128.5 -64l-80 -129q-69 61 -195 61q-194 0 -194 -172v-166h539v-1073h-181v915h-358 v-915h-184v915h-381v-915h-185v915h-157z" />
<glyph unicode="&#xfb04;" horiz-adv-x="1802" d="M70 915v158h157v193q0 153 85.5 229t238.5 76q98 0 168 -25l-33 -143q-49 14 -108 14q-166 0 -166 -149v-195h428v141q0 357 391 357q206 0 303.5 -99t97.5 -280v-1192h-186v1184q0 123 -51.5 178t-161.5 55q-112 0 -160.5 -45.5t-48.5 -159.5v-139h262v-155h-262v-918 h-184v915h-428v-915h-185v915h-157z" />
</font>
</defs>
</svg>
