<?xml version="1.0" standalone="no"?>
<!DOCTYPE svg PUBLIC "-//W3C//DTD SVG 1.1//EN" "http://www.w3.org/Graphics/SVG/1.1/DTD/svg11.dtd" >
<svg xmlns="http://www.w3.org/2000/svg" xmlns:xlink="http://www.w3.org/1999/xlink" version="1.1">
<metadata></metadata>
<defs>
<font id="motiva_sansmedium" horiz-adv-x="1650" >
<font-face units-per-em="2048" ascent="1540" descent="-508" />
<missing-glyph horiz-adv-x="567" />
<glyph horiz-adv-x="0" />
<glyph horiz-adv-x="682" />
<glyph unicode=" "  horiz-adv-x="567" />
<glyph unicode="&#x09;" horiz-adv-x="567" />
<glyph unicode="&#xa0;" horiz-adv-x="567" />
<glyph unicode="!" horiz-adv-x="647" d="M160 136q0 82 47 124.5t117 42.5t117 -42.5t47 -124.5q0 -83 -47 -126t-117 -43t-117 43t-47 126zM186 1437h287l-40 -983h-212z" />
<glyph unicode="&#x22;" horiz-adv-x="929" d="M185 1434h212l-34 -455h-142zM531 1434h214l-35 -455h-143z" />
<glyph unicode="#" horiz-adv-x="1390" d="M56 395v153h295l46 352h-299v156h319l49 378h158l-48 -378h298l46 378h159l-47 -378h303v-156h-322l-43 -352h321v-153h-340l-48 -395h-158l48 395h-301l-50 -395h-162l51 395h-275zM511 548h301l43 352h-299z" />
<glyph unicode="$" horiz-adv-x="1206" d="M94 107l82 212q194 -105 405 -105q136 0 207.5 50.5t71.5 133.5q0 21 -4 39t-15.5 34t-22 28t-33 25.5t-38.5 22.5t-48.5 22t-52 20.5t-61 22.5t-64.5 24q-77 29 -131 54t-109.5 61.5t-89 77t-54.5 97t-21 125.5q0 171 113 277t309 126l-8 201h192l-8 -201 q117 -12 215 -49t162 -84l-110 -193q-77 53 -171 82.5t-185 29.5q-112 0 -177.5 -47t-65.5 -128q0 -30 8.5 -54.5t30 -45t41.5 -35t60 -32t68 -28t82.5 -30.5t87.5 -32q95 -36 157 -68.5t114 -78t76 -106t24 -140.5q0 -187 -126 -303t-340 -134l10 -215h-194l9 218 q-228 23 -396 126z" />
<glyph unicode="%" horiz-adv-x="1595" d="M61 1109q0 164 92.5 256.5t235.5 92.5q146 0 239.5 -93t93.5 -257q0 -163 -92.5 -255.5t-239.5 -92.5q-144 0 -236.5 92.5t-92.5 256.5zM231 0l971 1434h160l-970 -1434h-161zM241 1109q0 -99 38.5 -152t110.5 -53q147 0 147 205t-147 205q-72 0 -110.5 -53.5 t-38.5 -151.5zM878 326q0 165 93 257.5t237 92.5q145 0 238.5 -93t93.5 -258q0 -163 -92.5 -255.5t-239.5 -92.5q-146 0 -238 92.5t-92 256.5zM1059 326q0 -99 38.5 -152t110.5 -53q146 0 146 205q0 207 -146 207q-72 0 -110.5 -54t-38.5 -153z" />
<glyph unicode="&#x26;" horiz-adv-x="1523" d="M158 329q0 109 60 200t184 179l33 23q-70 66 -110 113t-68.5 114.5t-28.5 143.5q0 163 108.5 262.5t301.5 99.5q178 0 287.5 -90.5t109.5 -229.5q0 -218 -212 -378l-53 -40l245 -226q18 36 32 71l105 227l196 -84l-88 -204q-40 -92 -79 -163l244 -225l-146 -156l-221 201 q-88 -101 -193.5 -146.5t-241.5 -45.5q-221 0 -343 95.5t-122 258.5zM411 355q0 -72 52 -115t149 -43q153 0 276 123l-298 270l-52 -38q-127 -94 -127 -197zM466 1099q0 -63 35 -111.5t119 -124.5l47 34q140 102 140 223q0 72 -47 105t-120 33q-84 0 -129 -42.5t-45 -116.5z " />
<glyph unicode="'" horiz-adv-x="473" d="M129 1434h215l-36 -455h-143z" />
<glyph unicode="(" horiz-adv-x="798" d="M135 704q0 119 18 227t46 189.5t69.5 155t81 124t87.5 96t83 71.5t73 50l111 -109q-30 -27 -40 -36.5t-44.5 -45t-52 -58.5t-50.5 -69.5t-51.5 -86t-43 -99t-37 -118.5t-22 -135t-9.5 -156q0 -102 15 -197t36 -164.5t56 -138t62 -110t68.5 -89t61 -66t52.5 -48.5 l-111 -108q-459 305 -459 921z" />
<glyph unicode=")" horiz-adv-x="800" d="M94 -109q22 19 42 38t57.5 62t68.5 88.5t67 114.5t60 142t40.5 169.5t16.5 198.5t-16.5 198t-40.5 168t-60 140.5t-66 112t-68.5 87t-57.5 61t-42 37.5l111 109q31 -21 61.5 -44t78.5 -69t88.5 -96.5t85 -126t75 -157.5t50.5 -191.5t20 -228.5t-20 -228.5t-51 -192.5 t-75 -159.5t-85 -128t-89 -98t-78.5 -70.5t-61.5 -44z" />
<glyph unicode="*" horiz-adv-x="897" d="M146 1128l182 88l-181 95l70 119l170 -111l-15 206h152l-19 -207l173 116l73 -128l-183 -90l184 -88l-74 -127l-173 114l19 -204h-152l15 204l-168 -114z" />
<glyph unicode="+" horiz-adv-x="1449" d="M219 635v158h426v452h160v-452h428v-158h-428v-452h-160v452h-426z" />
<glyph unicode="," horiz-adv-x="606" d="M164 -218q101 100 128 218q-52 7 -89 45.5t-37 97.5q0 65 40 98.5t96 33.5q61 0 104.5 -42.5t43.5 -125.5q0 -104 -53.5 -206.5t-155.5 -178.5z" />
<glyph unicode="-" horiz-adv-x="931" d="M146 508v205h640v-205h-640z" />
<glyph unicode="." horiz-adv-x="645" d="M176 118q0 72 42.5 110.5t103.5 38.5q62 0 104.5 -38.5t42.5 -110.5q0 -73 -42.5 -112t-104.5 -39q-61 0 -103.5 39.5t-42.5 111.5z" />
<glyph unicode="/" horiz-adv-x="743" d="M24 -91l519 1631h200l-515 -1631h-204z" />
<glyph unicode="0" horiz-adv-x="1386" d="M89 715q0 185 48.5 330t133 233.5t192 134t230.5 45.5t230.5 -45.5t192 -134t133 -233.5t48.5 -330q0 -148 -32 -271.5t-88 -210t-132.5 -146.5t-165 -88t-186.5 -28t-186.5 28t-165 88t-132.5 146.5t-88 210t-32 271.5zM357 715q0 -246 87.5 -381.5t248.5 -135.5 t249 136t88 381q0 247 -87.5 381.5t-249.5 134.5t-249 -134.5t-87 -381.5z" />
<glyph unicode="1" horiz-adv-x="1204" d="M94 1199l474 240h197v-1206h305v-233h-877v233h311v914l-313 -135z" />
<glyph unicode="2" horiz-adv-x="1320" d="M126 1315q216 143 482 143q249 0 395 -112t146 -312q0 -63 -17 -121.5t-44 -106.5t-76.5 -103.5t-97.5 -100.5t-124 -110l-306 -260h708v-232h-1043v218l402 347q20 17 61.5 53t58.5 50.5t49.5 44t45.5 45t35.5 41t31.5 44.5t20 43.5t15 49t4 51.5q0 119 -82.5 178.5 t-221.5 59.5q-188 0 -345 -107z" />
<glyph unicode="3" horiz-adv-x="1267" d="M68 132l115 195q166 -126 384 -126q159 0 248.5 67.5t89.5 169.5q0 107 -85 157.5t-262 50.5h-183v203h168q139 0 221.5 51.5t82.5 148.5q0 79 -76.5 130.5t-208.5 51.5q-186 0 -341 -116l-115 171q202 172 488 172q252 0 386.5 -97.5t134.5 -241.5q0 -123 -66.5 -210.5 t-186.5 -132.5v-7q138 -24 227 -113.5t89 -218.5q0 -141 -77.5 -248.5t-210 -163t-298.5 -55.5q-154 0 -291 42.5t-233 119.5z" />
<glyph unicode="4" horiz-adv-x="1366" d="M109 345v179l737 910h219v-883h213v-206h-212v-345h-260l-2 345h-695zM371 551h441l2 544z" />
<glyph unicode="5" horiz-adv-x="1316" d="M166 103l96 200q151 -101 346 -101q146 0 235 72.5t89 198.5q0 116 -76 176.5t-199 60.5q-154 0 -287 -106l-170 95v740h915v-238h-666v-370q117 77 291 77q95 0 177 -27t145.5 -80t100 -137.5t36.5 -192.5q0 -227 -156 -364t-423 -137q-293 0 -454 133z" />
<glyph unicode="6" horiz-adv-x="1335" d="M96 700q0 156 35 283.5t96 214.5t145 146.5t180 86.5t203 27q275 0 449 -121l-123 -191q-145 86 -325 86q-64 0 -119.5 -15t-107 -50t-88.5 -89t-60.5 -137.5t-26.5 -188.5q176 160 411 160q75 0 144.5 -17t131 -52.5t107.5 -86.5t72.5 -124t26.5 -159 q0 -215 -152 -356.5t-387 -141.5q-141 0 -252 43.5t-192 130.5t-124.5 226.5t-43.5 324.5zM374 538q10 -158 94.5 -248.5t223.5 -90.5q127 0 206.5 72.5t79.5 188.5q0 111 -76 173t-196 62q-99 0 -185 -42t-147 -115z" />
<glyph unicode="7" horiz-adv-x="1169" d="M42 1201v235h1038v-209l-580 -1227h-279l579 1201h-758z" />
<glyph unicode="8" horiz-adv-x="1288" d="M89 399q0 128 74.5 227.5t188.5 138.5q-101 37 -163.5 120t-62.5 192q0 173 143 277t372 104q228 0 371 -104t143 -277q0 -111 -58 -194.5t-160 -120.5q113 -34 187 -129t74 -221q0 -200 -149.5 -321t-407.5 -121t-405 117.5t-147 311.5zM352 430q0 -105 76.5 -169 t213.5 -64t211.5 63.5t74.5 169.5q0 102 -79.5 167t-206.5 65t-208.5 -65.5t-81.5 -166.5zM395 1048q0 -88 69.5 -138t176.5 -50q108 0 177.5 50t69.5 138q0 85 -66.5 135t-180.5 50q-113 0 -179.5 -50t-66.5 -135z" />
<glyph unicode="9" horiz-adv-x="1267" d="M52 978q0 145 71 255.5t189 167.5t264 57q295 0 455 -173t160 -522q0 -169 -36 -304.5t-97.5 -224.5t-147.5 -148.5t-181 -85t-203 -25.5q-243 0 -414 100l72 203q146 -80 319 -80q94 0 169.5 27t134.5 84t92.5 153.5t37.5 227.5q-92 -91 -187 -131.5t-227 -40.5 q-89 0 -170.5 27t-150 80.5t-109.5 144.5t-41 208zM313 986q0 -117 66.5 -181.5t186.5 -64.5q107 0 209.5 47.5t143.5 123.5q-4 80 -33 143t-74.5 100.5t-99.5 57t-113 19.5q-132 0 -209 -67.5t-77 -177.5z" />
<glyph unicode=":" horiz-adv-x="643" d="M159 135q0 81 46.5 122.5t115.5 41.5q71 0 117 -41t46 -123t-46.5 -125t-116.5 -43q-68 0 -115 43t-47 125zM159 933q0 80 47 122.5t115 42.5q70 0 116.5 -42.5t46.5 -122.5q0 -83 -46 -124t-117 -41q-69 0 -115.5 41.5t-46.5 123.5z" />
<glyph unicode=";" horiz-adv-x="643" d="M171 -218q101 100 128 218q-52 7 -89 45.5t-37 97.5q0 65 39.5 98.5t95.5 33.5q61 0 104.5 -42.5t43.5 -125.5q0 -104 -53.5 -206.5t-155.5 -178.5zM173 948q0 70 42.5 109.5t100.5 39.5q62 0 104.5 -39t42.5 -110q0 -73 -42 -111.5t-105 -38.5q-59 0 -101 39t-42 111z " />
<glyph unicode="&#x3c;" horiz-adv-x="1026" d="M52 519v154l758 470l90 -156l-640 -392l647 -410l-97 -139z" />
<glyph unicode="=" horiz-adv-x="1380" d="M222 312v151h945v-151h-945zM222 713v153h945v-153h-945z" />
<glyph unicode="&#x3e;" horiz-adv-x="1024" d="M117 185l648 410l-639 392l88 157l758 -472v-153l-757 -472z" />
<glyph unicode="?" horiz-adv-x="1073" d="M54 1323q77 60 199 97.5t255 37.5q210 0 330.5 -95t120.5 -242q0 -61 -21 -114t-54.5 -93.5t-74.5 -78.5t-82.5 -76t-76 -78.5t-57 -94t-24.5 -114.5h-193q0 83 23 153t57 115t74 89t74 77.5t57 77.5t23 91q0 79 -60 122.5t-166 43.5q-173 0 -305 -91zM314 138 q0 74 44 117t114 43t113.5 -43t43.5 -117t-43.5 -117.5t-113.5 -43.5t-114 43.5t-44 117.5z" />
<glyph unicode="@" horiz-adv-x="1865" d="M94 472q0 194 69.5 355.5t192.5 272t295.5 172t376.5 61.5q342 0 543 -185t201 -500q0 -156 -51 -278t-154 -194.5t-243 -72.5q-160 0 -232 104q-99 -86 -249 -86q-58 0 -110 20.5t-94.5 61.5t-67.5 111t-25 161q0 204 126.5 317.5t334.5 113.5q148 0 293 -56l-55 -411 q-10 -83 17.5 -122.5t77.5 -39.5q104 0 166.5 97.5t62.5 261.5q0 255 -146.5 389t-415.5 134q-205 0 -364 -80.5t-251.5 -240t-92.5 -376.5q0 -151 44.5 -266.5t126 -187t190 -107t241.5 -35.5q77 0 169.5 15.5t162.5 39.5l57 -170q-188 -67 -390 -67q-132 0 -246 24 t-219 82t-179 146.5t-118 225t-44 310.5zM748 481q0 -95 39.5 -142.5t102.5 -47.5q96 0 158 81q2 26 4 40l43 311q-48 18 -119 18q-106 0 -167 -72.5t-61 -187.5z" />
<glyph unicode="A" horiz-adv-x="1486" d="M68 0l536 1434h269l548 -1434h-280l-107 304h-591l-106 -304h-269zM515 512h446l-224 638z" />
<glyph unicode="B" horiz-adv-x="1339" d="M151 0v1434h501q243 0 362.5 -93.5t119.5 -262.5q0 -100 -49 -183t-149 -133q138 -40 211.5 -131t73.5 -226q0 -194 -140 -299.5t-373 -105.5h-557zM411 217h270q134 0 201 55.5t67 149.5q0 205 -260 205h-278v-410zM411 824h220q116 0 182 54.5t66 151.5q0 185 -254 185 h-214v-391z" />
<glyph unicode="C" horiz-adv-x="1366" d="M120 717v7q0 180 54 320q54 144 150.5 233t222.5 135t274 46q140 0 263.5 -35.5t203.5 -97.5l-121 -200q-143 98 -342 98q-90 0 -167 -31t-137.5 -92t-95.5 -159.5t-35 -223.5q0 -131 35.5 -231.5t96.5 -160.5q60 -60 138 -90q75 -29 161 -29h6q207 1 363 129l128 -185 q-89 -82 -221.5 -131t-289.5 -49q-111 0 -211 28.5t-187 88.5t-151 147t-100.5 211t-37.5 272z" />
<glyph unicode="D" horiz-adv-x="1445" d="M151 0v1434h442q157 0 289 -44t232 -129.5t156 -222.5t56 -312t-56.5 -314.5t-156 -228.5t-232 -136t-288.5 -47h-442zM411 233h202q212 0 326.5 122.5t114.5 370.5q0 476 -441 476h-202v-969z" />
<glyph unicode="E" horiz-adv-x="1208" d="M151 0v1434h945v-221h-689v-375h600v-221h-600v-392h689v-225h-945z" />
<glyph unicode="F" horiz-adv-x="1118" d="M151 0v1434h882v-222h-626v-435h546v-221h-546v-556h-256z" />
<glyph unicode="G" horiz-adv-x="1519" d="M120 716q0 178 55.5 321t152 234t222.5 139t271 48q302 0 515 -167l-129 -188q-166 120 -378 120q-195 0 -316.5 -129.5t-121.5 -368.5q0 -247 117.5 -379.5t310.5 -132.5q101 0 178 30.5t124 75.5v296h-381v209h628v-630q-95 -103 -239.5 -162.5t-326.5 -59.5 q-106 0 -203.5 26.5t-185.5 85t-152.5 144t-102.5 211t-38 277.5z" />
<glyph unicode="H" horiz-adv-x="1509" d="M151 0v1434h256v-604h697v604h255v-1434h-256l1 609h-697v-609h-256z" />
<glyph unicode="I" horiz-adv-x="602" d="M173 0v1434h257v-1434h-257z" />
<glyph unicode="J" horiz-adv-x="966" d="M80 -7l21 217q48 -11 130 -11q81 0 137 12.5t100.5 44t66.5 91.5t22 149v938h259v-950q0 -120 -26.5 -211.5t-71.5 -148.5t-111.5 -93t-138.5 -50t-160 -14q-138 0 -228 26z" />
<glyph unicode="K" horiz-adv-x="1382" d="M151 0v1434h263v-631l550 631h337l-606 -651l650 -783h-335l-496 588l-100 -107v-481h-263z" />
<glyph unicode="L" horiz-adv-x="1146" d="M151 0v1434h256v-1204h674v-230h-930z" />
<glyph unicode="M" horiz-adv-x="1796" d="M151 0v1434h248l506 -1091l489 1091h251v-1434h-247v951l-431 -920h-143l-426 916v-947h-247z" />
<glyph unicode="N" horiz-adv-x="1507" d="M151 0v1434h219l727 -993v993h260v-1434h-217l-733 987v-987h-256z" />
<glyph unicode="O" d="M120 724q0 149 40 272.5t107 208t158.5 142.5t192 84.5t208.5 26.5t208.5 -26.5t191.5 -84.5t158.5 -142.5t107 -208t39.5 -272.5q0 -151 -39.5 -277t-107 -213t-158.5 -147.5t-191.5 -88.5t-208.5 -28t-209 28t-191.5 88.5t-158.5 147.5t-107.5 213t-39.5 277zM391 722 q0 -124 33.5 -223t92 -162.5t136.5 -97.5t168 -34q91 0 170 33t139 96t94.5 163t34.5 225q0 124 -34 221t-93.5 157.5t-137 91.5t-168.5 31q-92 0 -170 -31t-137.5 -91.5t-93.5 -157.5t-34 -221z" />
<glyph unicode="P" horiz-adv-x="1210" d="M151 0v1434h478q258 0 395 -124.5t137 -333.5q0 -99 -34 -184t-99 -150t-167.5 -102t-231.5 -37h-222v-503h-256zM407 724h212q130 0 199.5 68t69.5 192q0 229 -270 229h-211v-489z" />
<glyph unicode="Q" d="M120 724q0 149 40 272.5t107 208t158.5 142.5t192 84.5t208.5 26.5t208.5 -26.5t191.5 -84.5t158.5 -142.5t107 -208t39.5 -272.5q0 -114 -23 -214t-63 -177.5t-96.5 -140.5t-122 -106t-141.5 -71l383 -159l-118 -193l-568 308q-103 6 -198 37.5t-180.5 93t-148 147.5 t-99 208t-36.5 267zM391 722q0 -124 33.5 -223t92 -162.5t136.5 -97.5t168 -34q91 0 170 33t139 96t94.5 163t34.5 225q0 124 -34 221t-93.5 157.5t-137 91.5t-168.5 31q-92 0 -170 -31t-137.5 -91.5t-93.5 -157.5t-34 -221z" />
<glyph unicode="R" horiz-adv-x="1355" d="M151 0v1434h518q285 0 417.5 -117t132.5 -319q0 -163 -74 -275t-209 -166l347 -557h-286l-307 509l-33 -1h-250v-508h-256zM407 729h271q126 0 197 67.5t71 182.5q0 117 -69.5 175.5t-225.5 58.5h-244v-484z" />
<glyph unicode="S" horiz-adv-x="1206" d="M94 107l82 212q91 -50 196.5 -77.5t202.5 -27.5q142 0 213.5 50.5t71.5 135.5q0 35 -15 63t-42.5 50t-69.5 42t-92 38.5t-113 40.5q-5 1 -7 2q-76 27 -132 52t-110 61t-88 78t-54.5 99.5t-20.5 127.5q0 186 137.5 295t365.5 109q149 0 270 -39t202 -98l-110 -193 q-77 53 -171 82.5t-185 29.5q-113 0 -178 -47t-65 -132q0 -22 5 -41t18 -35.5t26 -30t37.5 -27.5t43.5 -23.5t54 -23.5t59 -22.5t67.5 -24.5t70.5 -26q93 -34 156 -68t113.5 -79.5t74.5 -105t24 -136.5q0 -206 -147.5 -324.5t-394.5 -118.5q-126 0 -258.5 34t-236.5 98z" />
<glyph unicode="T" horiz-adv-x="1339" d="M93 1212v222h1154v-222h-448v-1212h-257v1212h-449z" />
<glyph unicode="U" horiz-adv-x="1439" d="M151 519v915h256v-914q0 -149 81.5 -230t231.5 -81t231.5 81t81.5 230v914h256v-915q0 -145 -45.5 -253.5t-125.5 -171.5t-179.5 -93.5t-218.5 -30.5t-218.5 30.5t-179.5 93.5t-125.5 171.5t-45.5 253.5z" />
<glyph unicode="V" horiz-adv-x="1468" d="M51 1434h281l408 -1152l395 1152h282l-544 -1434h-278z" />
<glyph unicode="W" horiz-adv-x="2058" d="M27 1434h274l304 -1039l326 1039h211l328 -1044l299 1044h263l-455 -1434h-208l-340 1027l-338 -1027h-210z" />
<glyph unicode="X" horiz-adv-x="1427" d="M28 0l507 742l-486 692h321l309 -494l309 494h328l-497 -681l545 -753h-318l-365 553l-343 -553h-310z" />
<glyph unicode="Y" horiz-adv-x="1345" d="M28 1434h298l338 -616l338 616h281l-499 -863v-571h-256v572z" />
<glyph unicode="Z" horiz-adv-x="1325" d="M98 0v174l753 1038h-713v222h1039v-165l-767 -1048h809v-221h-1121z" />
<glyph unicode="[" horiz-adv-x="628" d="M135 -259v1873h409v-179h-206v-1514h206v-180h-409z" />
<glyph unicode="\" horiz-adv-x="794" d="M-36 1540h201l483 -1631h-202z" />
<glyph unicode="]" horiz-adv-x="628" d="M85 -79h205v1514h-205v179h408v-1873h-408v180z" />
<glyph unicode="^" horiz-adv-x="1378" d="M116 841l481 707h197l482 -707h-263l-318 471l-316 -471h-263z" />
<glyph unicode="_" horiz-adv-x="1441" d="M128 -10h1182v-199h-1182v199z" />
<glyph unicode="`" horiz-adv-x="710" d="M140 1483h293l138 -274h-156z" />
<glyph unicode="a" horiz-adv-x="1171" d="M95 302q0 80 33 141t91.5 97.5t133.5 54.5t165 18q71 0 144 -7t99 -13v104q0 113 -55.5 158.5t-165.5 45.5q-171 0 -297 -98l-98 155q83 70 193.5 107.5t230.5 37.5q226 0 332 -96.5t106 -295.5v-458q0 -81 60 -81l46 1l-20 -161q-37 -32 -122 -32q-66 0 -109 27.5 t-65 92.5q-120 -130 -322 -130q-170 0 -275 83.5t-105 248.5zM328 309q0 -80 53.5 -116.5t133.5 -36.5q82 0 147.5 32t101.5 96v148q-94 23 -218 23q-218 0 -218 -146z" />
<glyph unicode="b" horiz-adv-x="1251" d="M146 0v1540h246v-576h5q116 139 310 139q201 0 326 -144.5t125 -403.5q0 -271 -136.5 -428t-359.5 -157q-192 0 -305 142h-9l-41 -112h-161zM392 297q79 -110 235 -110q125 0 202.5 98.5t77.5 265.5q0 156 -72.5 242.5t-190.5 86.5q-143 0 -252 -133v-450z" />
<glyph unicode="c" horiz-adv-x="1095" d="M94 543q0 175 74 304t194 192.5t267 63.5q228 0 381 -130l-101 -172q-117 90 -257 90q-138 0 -224 -91t-86 -257t88.5 -263t224.5 -97q149 0 271 101l109 -161q-70 -70 -173.5 -111.5t-225.5 -41.5q-114 0 -212.5 38.5t-172 110t-115.5 181t-42 243.5z" />
<glyph unicode="d" horiz-adv-x="1247" d="M94 538q0 139 40 250t107 178t149.5 102t172.5 35q181 0 292 -102v539h246v-1540h-175l-33 124h-5q-58 -70 -140.5 -112t-177.5 -42q-70 0 -136 19.5t-128.5 63.5t-109 108t-74.5 161.5t-28 215.5zM344 540q0 -166 80.5 -255.5t190.5 -89.5q75 0 137 36.5t103 98.5v440 q-98 110 -241 110q-115 0 -192.5 -86t-77.5 -254z" />
<glyph unicode="e" horiz-adv-x="1185" d="M94 531q0 260 140 416t369 156q119 0 214.5 -42.5t154 -114.5t89 -161.5t30.5 -188.5q0 -80 -13 -145h-736q40 -280 306 -280q173 0 305 109l102 -160q-177 -150 -444 -150q-107 0 -199.5 35t-164 102t-112.5 176t-41 248zM338 617h527q-5 134 -73.5 213t-182.5 79 q-116 0 -187 -73t-84 -219z" />
<glyph unicode="f" horiz-adv-x="741" d="M58 864v209h150v168q0 157 92.5 243t262.5 86q119 0 187 -29l-39 -182q-52 14 -110 14q-147 0 -147 -136v-164h251v-209h-251v-864h-246v864h-150z" />
<glyph unicode="g" horiz-adv-x="1257" d="M94 566q0 128 42 233t111.5 170t154 99.5t173.5 34.5q198 0 315 -124h10l49 96h162v-1010q0 -131 -38 -228.5t-109 -157.5t-166.5 -89t-214.5 -29q-121 0 -229.5 35t-182.5 91l90 185q132 -97 320 -97q132 0 212.5 58t80.5 178v138q-68 -64 -138 -89.5t-162 -25.5 q-99 0 -186 35.5t-152.5 101.5t-103.5 168t-38 227zM347 570q0 -152 77 -233.5t201 -81.5q155 0 243 126v397q-94 102 -240 102q-118 0 -199.5 -81.5t-81.5 -228.5z" />
<glyph unicode="h" horiz-adv-x="1241" d="M146 0v1540h244v-605q73 85 155 125t186 40q165 0 265 -92t100 -282v-726h-247v682q0 104 -54.5 151t-137.5 47q-150 0 -265 -178v-702h-246z" />
<glyph unicode="i" horiz-adv-x="581" d="M139 1374q0 69 44 104t106 35q65 0 109 -35t44 -104t-44 -104.5t-109 -35.5q-62 0 -106 35.5t-44 104.5zM168 0v1073h244v-1073h-244z" />
<glyph unicode="j" horiz-adv-x="591" d="M-159 -399l47 191q54 -19 118 -19q89 0 130.5 37.5t41.5 129.5v1133h246v-1176q0 -154 -104 -245t-265 -91q-132 0 -214 40zM149 1363q0 69 43.5 104.5t105.5 35.5q64 0 109 -35.5t45 -104.5t-45 -104.5t-109 -35.5q-62 0 -105.5 35.5t-43.5 104.5z" />
<glyph unicode="k" horiz-adv-x="1148" d="M146 0v1540h246v-924l370 457h304l-397 -443l466 -630h-297l-326 454l-120 -134v-320h-246z" />
<glyph unicode="l" horiz-adv-x="561" d="M158 0v1540h245v-1540h-245z" />
<glyph unicode="m" horiz-adv-x="1849" d="M146 1073h193l26 -150h7q61 92 138.5 134.5t182.5 42.5q225 0 308 -194q133 194 352 194q164 0 257 -96t93 -270v-734h-251v704q0 178 -156 178q-151 0 -245 -174v-708h-252v708q0 91 -43.5 132.5t-112.5 41.5q-76 0 -139.5 -46.5t-105.5 -127.5v-708h-251z" />
<glyph unicode="n" horiz-adv-x="1241" d="M146 0v1073h168l39 -160h8q77 96 163.5 143t206.5 47q170 0 267 -94t97 -269v-740h-246v662q0 114 -44.5 161.5t-128.5 47.5q-164 0 -286 -177v-694h-244z" />
<glyph unicode="o" horiz-adv-x="1269" d="M94 537q0 115 30 210t81 160t120 110t147 65.5t163 20.5t163 -20.5t147 -65.5t120 -110t81 -160t30 -210t-30 -210t-81 -160.5t-120 -110.5t-147 -65.5t-163 -20.5t-163 20.5t-147 65.5t-120 110.5t-81 160.5t-30 210zM344 537q0 -166 77.5 -258t213.5 -92t213.5 92.5 t77.5 257.5q0 164 -77.5 256.5t-213.5 92.5t-213.5 -91.5t-77.5 -257.5z" />
<glyph unicode="p" horiz-adv-x="1230" d="M146 -422v1497h174l44 -146h5q67 87 144 128t181 41q89 0 168 -34t140.5 -98.5t97.5 -167.5t36 -232q0 -137 -40 -250.5t-109 -188.5t-160 -116t-193 -41q-146 0 -242 60v-452h-246zM392 238q42 -35 87 -50t111 -15q123 0 209.5 100t86.5 272q0 167 -71 251t-179 84 q-142 0 -244 -159v-483z" />
<glyph unicode="q" horiz-adv-x="1255" d="M94 537q0 113 30 208.5t79.5 160.5t114.5 110.5t134 66t140 20.5q176 0 296 -122h5l52 94h164v-1497h-250v467q-114 -75 -274 -75q-97 0 -185.5 38.5t-156.5 108.5t-108.5 179t-40.5 241zM348 535q0 -90 27 -160t70 -108.5t90 -58t94 -19.5q130 0 230 82v502 q-98 108 -223 108q-123 0 -205.5 -89t-82.5 -257z" />
<glyph unicode="r" horiz-adv-x="806" d="M146 0v1073h188l40 -159h6q81 189 259 189q78 0 131 -31l-43 -225q-66 26 -110 26q-154 0 -224 -225v-648h-247z" />
<glyph unicode="s" horiz-adv-x="985" d="M93 86l66 190q61 -46 142 -71t156 -25q100 0 154.5 36.5t54.5 95.5q0 23 -10.5 41.5t-25.5 30.5t-43.5 23.5t-53 19t-67 20.5t-72.5 24q-145 51 -214.5 120t-69.5 191q0 149 113 235t297 86q109 0 207.5 -29.5t165.5 -80.5l-81 -170q-142 85 -287 85q-82 0 -129.5 -33 t-47.5 -87q0 -25 11.5 -45t27.5 -33.5t47.5 -27t57.5 -22t72 -21.5l21 -6q77 -23 129 -45.5t101 -58t73.5 -88t24.5 -121.5q0 -164 -120 -257t-319 -93q-109 0 -212 32.5t-169 83.5z" />
<glyph unicode="t" horiz-adv-x="837" d="M57 864v209h168v138l110 140h138v-278h262v-209h-262v-579q0 -95 84 -95q67 0 140 30l61 -177q-119 -73 -260 -73q-135 0 -204 64t-69 202v628h-168z" />
<glyph unicode="u" horiz-adv-x="1228" d="M146 356v717h244v-660q0 -217 174 -217q156 0 273 172v705h245v-1073h-171l-49 150q-65 -83 -147.5 -129t-204.5 -46q-168 0 -266 97.5t-98 283.5z" />
<glyph unicode="v" horiz-adv-x="1130" d="M20 1073l263 2l278 -816l280 814h270l-440 -1073h-227z" />
<glyph unicode="w" horiz-adv-x="1601" d="M20 1073h243l208 -747l249 747h161l241 -755l222 755h238l-384 -1073h-163l-245 715l-260 -715h-162z" />
<glyph unicode="x" horiz-adv-x="1036" d="M0 0v9l385 545l-373 508v11h293l212 -351l215 351h277v-9l-351 -512l374 -543v-9h-281l-234 376l-231 -376h-286z" />
<glyph unicode="y" horiz-adv-x="1202" d="M44 1075h258l307 -852l278 852h262l-412 -1143q-66 -184 -167.5 -274.5t-248.5 -90.5q-125 0 -230 33l43 186q71 -23 145 -23q59 0 111 41t82 117l18 45z" />
<glyph unicode="z" horiz-adv-x="997" d="M80 0v169l518 694h-502v210h808v-178l-534 -686h557v-209h-847z" />
<glyph unicode="{" horiz-adv-x="813" d="M137 643v156q85 11 137 62.5t52 145.5v270q0 162 108.5 258t295.5 96v-145q-96 -9 -150 -65.5t-54 -154.5v-327q0 -81 -53 -140t-112 -74v-6q58 -14 111.5 -76.5t53.5 -138.5v-329q0 -96 54.5 -154t149.5 -67v-143q-190 0 -297 95t-107 258v271q0 100 -50.5 151 t-138.5 57z" />
<glyph unicode="|" horiz-adv-x="471" d="M158 -187v1883h155v-1883h-155z" />
<glyph unicode="}" horiz-adv-x="808" d="M78 -46q95 9 149.5 67t54.5 154v329q0 76 53.5 138.5t111.5 76.5v6q-59 15 -112 74t-53 140v327q0 98 -54 154.5t-150 65.5v145q187 0 295.5 -96t108.5 -258v-270q0 -94 52 -145.5t137 -62.5v-156q-88 -6 -138.5 -57t-50.5 -151v-271q0 -163 -107 -258t-297 -95v143z" />
<glyph unicode="~" horiz-adv-x="1265" d="M118 487q29 148 107 222t184 74q68 0 201 -38.5t193 -38.5q39 0 75 25.5t51 60.5h210q-21 -105 -73.5 -174.5t-114 -97t-132.5 -27.5q-66 0 -201 39t-195 39q-77 0 -119 -84h-186z" />
<glyph unicode="&#xa1;" horiz-adv-x="647" d="M160 926q0 83 47 126t117 43t117 -43t47 -126q0 -80 -47 -123.5t-117 -43.5t-117 43.5t-47 123.5zM179 -376l41 984h214l40 -984h-295z" />
<glyph unicode="&#xa2;" horiz-adv-x="1110" d="M94 731q0 119 35 218.5t96.5 168.5t143 112t177.5 56l-8 213h163l-8 -210q189 -17 317 -127l-101 -172q-116 89 -257 89q-138 0 -224 -91t-86 -257q0 -165 88.5 -262t224.5 -97q151 0 271 100l109 -161q-124 -125 -326 -149l10 -191h-164l8 191q-208 23 -338.5 173.5 t-130.5 395.5z" />
<glyph unicode="&#xa3;" horiz-adv-x="1280" d="M137 145q71 45 102.5 97t31.5 135v271h-126v146h126v258q0 103 32.5 182.5t90 128.5t132.5 74t165 25q126 0 223 -26t184 -84l-120 -197q-121 81 -257 81q-99 0 -148.5 -52t-49.5 -169v-221h395v-146h-395v-218q0 -92 -20 -144.5t-76 -89.5q61 16 130 16q51 0 131 -11.5 t137 -11.5q90 0 185 19l43 -206q-100 -32 -258 -32q-76 0 -179.5 13t-161.5 13q-152 0 -252 -25z" />
<glyph unicode="&#xa4;" horiz-adv-x="1368" d="M94 247l165 163q-87 122 -87 296q0 180 92 304l-167 169l115 116l173 -174q127 79 298 79q174 0 302 -83l175 174l115 -114l-172 -172q89 -124 89 -299q0 -174 -83 -293l166 -165l-114 -117l-169 167q-130 -86 -309 -86t-307 85l-166 -166zM423 706q0 -128 71.5 -200.5 t188.5 -72.5q116 0 187 72.5t71 200.5q0 129 -71 201t-187 72q-117 0 -188.5 -72t-71.5 -201z" />
<glyph unicode="&#xa5;" horiz-adv-x="1300" d="M23 1434h300l336 -614l338 614h281l-406 -664h295v-149h-386l-2 -3v-132h388v-148h-388v-338h-256v338h-391v148h391l-1 135h-390v149h298z" />
<glyph unicode="&#xa6;" horiz-adv-x="456" d="M151 364v810h155v-810h-155z" />
<glyph unicode="&#xa7;" horiz-adv-x="1064" d="M151 55l65 172q52 -30 133.5 -48.5t156.5 -18.5q202 0 202 123q0 27 -13 47.5t-32.5 33t-53.5 24t-64 18.5t-77 18t-80 20q-108 35 -165.5 97t-57.5 170q0 82 44.5 145.5t126.5 92.5q-75 33 -121 95t-46 142q0 131 103 204.5t282 73.5q195 0 331 -64l-62 -170 q-113 42 -252 42q-92 0 -137.5 -31.5t-45.5 -83.5q0 -23 7.5 -41t26.5 -32.5t35.5 -24.5t51.5 -20.5t56 -16t67 -16.5q14 -3 21 -5q53 -13 92.5 -27t77.5 -36.5t62.5 -50t39.5 -67t15 -89.5q0 -81 -47 -143t-135 -99q90 -31 137.5 -88.5t47.5 -137.5q0 -131 -109.5 -212.5 t-295.5 -81.5q-225 0 -387 86zM369 717q0 -74 48.5 -112.5t133.5 -38.5q86 0 135 38.5t49 112.5q0 70 -50 110.5t-134 40.5q-83 0 -132.5 -40.5t-49.5 -110.5z" />
<glyph unicode="&#xa8;" horiz-adv-x="710" d="M46 1360q0 63 34 94t88 31q53 0 86.5 -31t33.5 -94q0 -61 -34 -92.5t-86 -31.5q-53 0 -87.5 31.5t-34.5 92.5zM423 1360q0 63 34.5 94t89.5 31q52 0 84.5 -31t32.5 -94q0 -61 -32.5 -92.5t-84.5 -31.5q-55 0 -89.5 31.5t-34.5 92.5z" />
<glyph unicode="&#xa9;" horiz-adv-x="1675" d="M94 717q0 168 60 310t162.5 236t237.5 146.5t285 52.5q149 0 284 -52.5t237 -146.5t162 -236t60 -310q0 -135 -39 -254t-108 -208.5t-162 -154t-204 -97.5t-230 -33q-120 0 -231 33t-204 97.5t-162.5 154t-108.5 208.5t-39 254zM240 717q0 -137 46.5 -251.5t127 -192 t190 -120t235.5 -42.5q168 0 302.5 72.5t214 212t79.5 321.5t-79.5 320.5t-214 210.5t-302.5 72q-125 0 -235 -43t-190.5 -120.5t-127 -191t-46.5 -248.5zM464 724q0 127 53.5 216t136.5 129t185 40q153 0 262 -83l-59 -117q-49 33 -93.5 49t-104.5 16q-104 0 -168 -64 t-64 -179q0 -117 67 -184t174 -67q112 0 193 67l68 -119q-108 -91 -270 -91q-165 0 -272.5 101.5t-107.5 285.5z" />
<glyph unicode="&#xaa;" horiz-adv-x="802" d="M90 966q0 90 64 144t168 54q86 0 162 -12v44q1 56 -32.5 82t-93.5 26q-96 0 -177 -44l-59 115q103 76 258 76q273 0 273 -224v-269q0 -52 49 -52h25l-10 -133q-41 -13 -84 -13q-50 0 -84.5 19t-47.5 51q-76 -71 -198 -71q-90 0 -151.5 56.5t-61.5 150.5zM247 968 q0 -38 27 -60t70 -22q86 0 138 58v95q-50 10 -122 10q-53 0 -83 -21t-30 -60z" />
<glyph unicode="&#xab;" horiz-adv-x="1042" d="M52 519l325 400l135 -117l-240 -281l239 -281l-128 -117zM469 519l327 400l132 -117l-238 -281l238 -281l-127 -117z" />
<glyph unicode="&#xac;" horiz-adv-x="1345" d="M162 676v156h1030v-543h-154v387h-876z" />
<glyph unicode="&#xad;" horiz-adv-x="931" d="M146 508v205h640v-205h-640z" />
<glyph unicode="&#xae;" horiz-adv-x="1675" d="M94 717q0 168 60 310t162.5 236t237.5 146.5t285 52.5q149 0 284 -52.5t237 -146.5t162 -236t60 -310q0 -135 -39 -254t-108 -208.5t-162 -154t-204 -97.5t-230 -33q-120 0 -231 33t-204 97.5t-162.5 154t-108.5 208.5t-39 254zM240 717q0 -137 46.5 -251.5t127 -192 t190 -120t235.5 -42.5q168 0 302.5 72.5t214 212t79.5 321.5t-79.5 320.5t-214 210.5t-302.5 72q-125 0 -235 -43t-190.5 -120.5t-127 -191t-46.5 -248.5zM587 361v738h266q131 0 196 -61.5t65 -156.5q0 -71 -36 -122.5t-95 -78.5l172 -319h-159l-140 278h-136v-278h-133z M722 760h123q56 0 88 30.5t32 78.5q0 101 -122 101h-121v-210z" />
<glyph unicode="&#xaf;" horiz-adv-x="710" d="M97 1303v131h516v-131h-516z" />
<glyph unicode="&#xb0;" horiz-adv-x="808" d="M87 1142q0 75 27 134.5t72 96t100.5 55t116.5 18.5t117 -18.5t102 -55t73 -96t27 -134.5t-27 -134t-73 -95t-102 -54.5t-117 -18.5q-83 0 -152.5 31t-116.5 101.5t-47 169.5zM271 1142q0 -67 36 -102.5t96 -35.5q62 0 99.5 36t37.5 102q0 67 -37.5 102.5t-99.5 35.5 q-60 0 -96 -35.5t-36 -102.5z" />
<glyph unicode="&#xb1;" horiz-adv-x="1222" d="M109 23v157h1014v-157h-1014zM109 825v156h428v451h158v-451h428v-156h-428v-452h-158v452h-428z" />
<glyph unicode="&#xb4;" horiz-adv-x="710" d="M141 1209l137 274h292l-272 -274h-157z" />
<glyph unicode="&#xb6;" horiz-adv-x="1056" d="M125 1092q0 342 394 342h387v-1434h-160v1275h-123v-1275h-160v739q-165 25 -251.5 115.5t-86.5 237.5z" />
<glyph unicode="&#xb7;" horiz-adv-x="550" d="M113 617q0 79 48 122.5t114 43.5q69 0 117 -43.5t48 -122.5q0 -82 -47.5 -124.5t-117.5 -42.5q-67 0 -114.5 43t-47.5 124z" />
<glyph unicode="&#xb8;" horiz-adv-x="710" d="M188 -134l78 144h125l-58 -101q86 10 137 -34.5t51 -114.5q0 -94 -72.5 -149.5t-187.5 -65.5l-45 109q80 14 113.5 37.5t33.5 61.5q0 21 -14.5 35t-35.5 14t-39 -11z" />
<glyph unicode="&#xba;" horiz-adv-x="823" d="M74 1104q0 87 28 155.5t76.5 109t108.5 61.5t127 21q64 0 123 -21t107.5 -61.5t78 -109t29.5 -155.5t-29.5 -155.5t-78 -109.5t-107.5 -62t-123 -21q-67 0 -127 21t-108.5 62t-76.5 109.5t-28 155.5zM251 1104q0 -91 45 -140.5t118 -49.5q70 0 115 50t45 140 q0 89 -45 139t-115 50q-73 0 -118 -49.5t-45 -139.5z" />
<glyph unicode="&#xbb;" horiz-adv-x="1044" d="M115 240l239 281l-239 281l133 117l327 -400l-333 -396zM533 240l239 281l-239 281l135 117l324 -400l-331 -396z" />
<glyph unicode="&#xbc;" horiz-adv-x="2179" d="M140 1313l267 120h131v-670h177v-157h-541v157h177v472l-155 -59zM705 -271l602 1833h145l-600 -1833h-147zM1408 176v142l400 502h162v-496h128v-148h-128v-185h-179v185h-383zM1590 324h199v260z" />
<glyph unicode="&#xbd;" horiz-adv-x="2179" d="M140 1313l267 120h131v-670h177v-157h-541v157h177v472l-155 -59zM705 -271l602 1833h145l-600 -1833h-147zM1431 733q143 101 314 101q141 0 224.5 -68.5t83.5 -179.5q0 -165 -213 -323l-146 -107h377v-167h-614v153l236 184q74 59 112 112t38 111q0 54 -36.5 82.5 t-98.5 28.5q-100 0 -198 -67z" />
<glyph unicode="&#xbe;" horiz-adv-x="2179" d="M88 672l60 142q128 -64 228 -64q84 0 126 30t42 81q0 54 -38 79t-122 25h-111v140h95q67 0 104.5 25t37.5 73q0 90 -132 90q-103 0 -203 -71l-77 124q127 106 297 106q154 0 236 -59.5t82 -153.5q0 -62 -37.5 -112.5t-108.5 -76.5q177 -42 177 -201q0 -118 -99 -192 t-250 -74q-182 0 -307 89zM705 -271l602 1833h145l-600 -1833h-147zM1408 176v142l400 502h162v-496h128v-148h-128v-185h-179v185h-383zM1590 324h199v260z" />
<glyph unicode="&#xbf;" horiz-adv-x="1122" d="M101 -33q0 61 21 114t54.5 93.5t74.5 78.5t82.5 76t76 78.5t57 94t24.5 114.5h193q0 -71 -17 -133t-44 -106t-60 -82.5t-66 -71t-60 -64t-44 -69t-17 -78.5q0 -79 60 -122t166 -43q174 0 305 90l99 -173q-77 -60 -199 -97.5t-255 -37.5q-209 0 -330 95.5t-121 242.5z M431 950q0 74 43.5 117.5t113.5 43.5t113.5 -43.5t43.5 -117.5t-43.5 -117.5t-113.5 -43.5t-113.5 43.5t-43.5 117.5z" />
<glyph unicode="&#xc0;" horiz-adv-x="1486" d="M68 0l536 1434h269l548 -1434h-280l-107 304h-591l-106 -304h-269zM398 1844h293l137 -274h-155zM515 512h446l-224 638z" />
<glyph unicode="&#xc1;" horiz-adv-x="1486" d="M68 0l536 1434h269l548 -1434h-280l-107 304h-591l-106 -304h-269zM515 512h446l-224 638zM650 1570l137 274h292l-272 -274h-157z" />
<glyph unicode="&#xc2;" horiz-adv-x="1486" d="M68 0l536 1434h269l548 -1434h-280l-107 304h-591l-106 -304h-269zM427 1587l238 264h143l227 -264h-198l-104 111l-99 -111h-207zM515 512h446l-224 638z" />
<glyph unicode="&#xc3;" horiz-adv-x="1486" d="M68 0l536 1434h269l548 -1434h-280l-107 304h-591l-106 -304h-269zM404 1654q25 94 82.5 139t118.5 45q45 0 89.5 -19.5t80 -39t60.5 -19.5q60 0 100 96l131 -61q-26 -91 -78 -142.5t-123 -51.5q-52 0 -123.5 38.5t-107.5 38.5q-40 0 -64 -22.5t-43 -67.5zM515 512h446 l-224 638z" />
<glyph unicode="&#xc4;" horiz-adv-x="1486" d="M68 0l536 1434h269l548 -1434h-280l-107 304h-591l-106 -304h-269zM428 1720q0 63 34.5 94.5t88.5 31.5q53 0 86 -31.5t33 -94.5q0 -61 -33.5 -92t-85.5 -31q-54 0 -88.5 31t-34.5 92zM515 512h446l-224 638zM806 1720q0 63 34 94.5t89 31.5q52 0 85 -31.5t33 -94.5 q0 -61 -33 -92t-85 -31q-55 0 -89 31t-34 92z" />
<glyph unicode="&#xc5;" horiz-adv-x="1486" d="M68 0l536 1434h269l548 -1434h-280l-107 304h-591l-106 -304h-269zM515 512h446l-224 638zM570 1725q0 73 48 117t124 44q75 0 122.5 -44t47.5 -117t-47.5 -117t-122.5 -44q-76 0 -124 44t-48 117zM669 1725q0 -31 19.5 -52.5t53.5 -21.5q33 0 52 21.5t19 52.5t-19 52.5 t-52 21.5q-35 0 -54 -21t-19 -53z" />
<glyph unicode="&#xc6;" horiz-adv-x="1910" d="M68 0l732 1434h1000v-229h-619v-369h538v-228h-538v-386h619v-222h-876v261h-435l-126 -261h-295zM595 479h329v682z" />
<glyph unicode="&#xc7;" horiz-adv-x="1366" d="M120 717q-1 183 53.5 326.5t151 233t222.5 135.5t274 46q140 0 263.5 -35.5t203.5 -97.5l-121 -200q-143 98 -342 98q-90 0 -167 -31t-137.5 -92t-95.5 -159.5t-35 -223.5q0 -131 35.5 -231.5t96.5 -160.5t138.5 -90t166.5 -29q207 1 363 129l128 -185 q-88 -81 -218.5 -130t-285.5 -50l-35 -61q86 10 137.5 -34.5t51.5 -114.5q0 -94 -73 -149.5t-188 -65.5l-45 109q80 14 113.5 37.5t33.5 61.5q0 21 -14 35t-35 14t-39 -11l-86 75l60 112q-121 17 -223 71t-181.5 143.5t-124.5 224t-46 300.5z" />
<glyph unicode="&#xc8;" horiz-adv-x="1208" d="M151 0v1434h945v-221h-689v-375h600v-221h-600v-392h689v-225h-945zM257 1844h293l138 -274h-155z" />
<glyph unicode="&#xc9;" horiz-adv-x="1208" d="M151 0v1434h945v-221h-689v-375h600v-221h-600v-392h689v-225h-945zM510 1570l137 274h292l-272 -274h-157z" />
<glyph unicode="&#xca;" horiz-adv-x="1208" d="M151 0v1434h945v-221h-689v-375h600v-221h-600v-393h689v-224h-945zM286 1587l239 264h142l228 -264h-198l-104 111l-99 -111h-208z" />
<glyph unicode="&#xcb;" horiz-adv-x="1208" d="M151 0v1434h945v-221h-689v-375h600v-221h-600v-393h689v-224h-945zM288 1720q0 63 34.5 94.5t88.5 31.5q53 0 86 -31.5t33 -94.5q0 -61 -33.5 -92t-85.5 -31q-54 0 -88.5 31t-34.5 92zM666 1720q0 63 34 94.5t89 31.5q52 0 85 -31.5t33 -94.5q0 -61 -33 -92t-85 -31 q-55 0 -89 31t-34 92z" />
<glyph unicode="&#xcc;" horiz-adv-x="602" d="M-43 1844h293l138 -274h-155zM173 0v1434h257v-1434h-257z" />
<glyph unicode="&#xcd;" horiz-adv-x="602" d="M173 0v1434h257v-1434h-257zM210 1570l137 274h292l-272 -274h-157z" />
<glyph unicode="&#xce;" horiz-adv-x="602" d="M-14 1587l239 264h142l228 -264h-198l-104 111l-100 -111h-207zM173 0v1434h257v-1434h-257z" />
<glyph unicode="&#xcf;" horiz-adv-x="602" d="M-12 1720q0 63 34.5 94.5t88.5 31.5q53 0 86 -31.5t33 -94.5q0 -61 -33.5 -92t-85.5 -31q-54 0 -88.5 31t-34.5 92zM173 0v1434h257v-1434h-257zM366 1720q0 63 34 94.5t89 31.5q52 0 85 -31.5t33 -94.5q0 -61 -33 -92t-85 -31q-55 0 -89 31t-34 92z" />
<glyph unicode="&#xd0;" horiz-adv-x="1630" d="M151 637v182h184v615h442q157 0 289 -44t232 -129.5t156 -222.5t56 -312t-56.5 -314.5t-156 -228.5t-232 -136t-288.5 -47h-442v637h-184zM595 233h202q212 0 327 122.5t115 370.5q0 476 -442 476h-202v-383h232v-182h-232v-404z" />
<glyph unicode="&#xd1;" horiz-adv-x="1507" d="M151 0v1434h219l727 -993v993h260v-1434h-217l-733 987v-987h-256zM411 1667q25 94 82.5 139t118.5 45q36 0 72 -12.5t59.5 -27t50.5 -27t48 -12.5q58 0 99 97l132 -61q-26 -91 -78.5 -143t-123.5 -52q-52 0 -123 38.5t-107 38.5q-40 0 -64 -22t-43 -67z" />
<glyph unicode="&#xd2;" d="M120 724q0 149 40 272.5t107 208t158.5 142.5t192 84.5t208.5 26.5t208.5 -26.5t191.5 -84.5t158.5 -142.5t107 -208t39.5 -272.5q0 -151 -39.5 -277t-107 -213t-158.5 -147.5t-191.5 -88.5t-208.5 -28t-209 28t-191.5 88.5t-158.5 147.5t-107.5 213t-39.5 277zM391 722 q0 -124 33.5 -223t92 -162.5t136.5 -97.5t168 -34q91 0 170 33t139 96t94.5 163t34.5 225q0 124 -34 221t-93.5 157.5t-137 91.5t-168.5 31q-92 0 -170 -31t-137.5 -91.5t-93.5 -157.5t-34 -221zM470 1844h294l137 -274h-155z" />
<glyph unicode="&#xd3;" d="M120 724q0 149 40 272.5t107 208t158.5 142.5t192 84.5t208.5 26.5t208.5 -26.5t191.5 -84.5t158.5 -142.5t107 -208t39.5 -272.5q0 -151 -39.5 -277t-107 -213t-158.5 -147.5t-191.5 -88.5t-208.5 -28t-209 28t-191.5 88.5t-158.5 147.5t-107.5 213t-39.5 277zM391 722 q0 -124 33.5 -223t92 -162.5t136.5 -97.5t168 -34q91 0 170 33t139 96t94.5 163t34.5 225q0 124 -34 221t-93.5 157.5t-137 91.5t-168.5 31q-92 0 -170 -31t-137.5 -91.5t-93.5 -157.5t-34 -221zM723 1570l137 274h292l-272 -274h-157z" />
<glyph unicode="&#xd4;" d="M120 724q0 149 40 272.5t107 208t158.5 142.5t192 84.5t208.5 26.5t208.5 -26.5t191.5 -84.5t158.5 -142.5t107 -208t39.5 -272.5q0 -151 -39.5 -277t-107 -213t-158.5 -147.5t-191.5 -88.5t-208.5 -28t-209 28t-191.5 88.5t-158.5 147.5t-107.5 213t-39.5 277zM391 722 q0 -124 33.5 -223t92 -162.5t136.5 -97.5t168 -34q91 0 170 33t139 96t94.5 163t34.5 225q0 124 -34 221t-93.5 157.5t-137 91.5t-168.5 31q-92 0 -170 -31t-137.5 -91.5t-93.5 -157.5t-34 -221zM499 1587l239 264h143l227 -264h-198l-104 111l-99 -111h-208z" />
<glyph unicode="&#xd5;" d="M120 724q0 149 40 272.5t107 208t158.5 142.5t192 84.5t208.5 26.5t208.5 -26.5t191.5 -84.5t158.5 -142.5t107 -208t39.5 -272.5q0 -151 -39.5 -277t-107 -213t-158.5 -147.5t-191.5 -88.5t-208.5 -28t-209 28t-191.5 88.5t-158.5 147.5t-107.5 213t-39.5 277zM391 722 q0 -124 33.5 -223t92 -162.5t136.5 -97.5t168 -34q91 0 170 33t139 96t94.5 163t34.5 225q0 124 -34 221t-93.5 157.5t-137 91.5t-168.5 31q-92 0 -170 -31t-137.5 -91.5t-93.5 -157.5t-34 -221zM477 1654q25 94 82.5 139t118.5 45q45 0 89.5 -19.5t80 -39t60.5 -19.5 q60 0 100 96l131 -61q-26 -91 -78 -142.5t-123 -51.5q-52 0 -123.5 38.5t-107.5 38.5q-40 0 -64 -22.5t-43 -67.5z" />
<glyph unicode="&#xd6;" d="M120 724q0 149 40 272.5t107 208t158.5 142.5t192 84.5t208.5 26.5t208.5 -26.5t191.5 -84.5t158.5 -142.5t107 -208t39.5 -272.5q0 -151 -39.5 -277t-107 -213t-158.5 -147.5t-191.5 -88.5t-208.5 -28t-209 28t-191.5 88.5t-158.5 147.5t-107.5 213t-39.5 277zM391 722 q0 -124 33.5 -223t92 -162.5t136.5 -97.5t168 -34q91 0 170 33t139 96t94.5 163t34.5 225q0 124 -34 221t-93.5 157.5t-137 91.5t-168.5 31q-92 0 -170 -31t-137.5 -91.5t-93.5 -157.5t-34 -221zM501 1720q0 63 34.5 94.5t88.5 31.5q53 0 86 -31.5t33 -94.5q0 -61 -33.5 -92 t-85.5 -31q-54 0 -88.5 31t-34.5 92zM879 1720q0 63 34 94.5t89 31.5q52 0 85 -31.5t33 -94.5q0 -61 -33 -92t-85 -31q-55 0 -89 31t-34 92z" />
<glyph unicode="&#xd7;" horiz-adv-x="1300" d="M124 948l128 125l399 -407l399 407l126 -127l-399 -407l399 -407l-125 -126l-400 407l-399 -405l-126 124l399 407z" />
<glyph unicode="&#xd8;" d="M120 724q0 149 40 272.5t107 208t158.5 142.5t192 84.5t208.5 26.5q153 0 283 -51l132 233l142 -75l-132 -234q131 -92 205.5 -244t74.5 -363q0 -151 -39.5 -277t-107 -213t-158.5 -147.5t-191.5 -88.5t-208.5 -28q-164 0 -307 64l-143 -253l-140 86l143 252 q-121 96 -190 248t-69 357zM391 722q0 -236 117 -375l480 847q-76 29 -162 29q-92 0 -170 -31t-137.5 -91.5t-93.5 -157.5t-34 -221zM638 245q81 -40 183 -40q91 0 170 33t139 96t94.5 163t34.5 225q0 251 -134 385z" />
<glyph unicode="&#xd9;" horiz-adv-x="1439" d="M151 519v915h256v-914q0 -149 81.5 -230t231.5 -81t231.5 81t81.5 230v914h256v-915q0 -145 -45.5 -253.5t-125.5 -171.5t-179.5 -93.5t-218.5 -30.5t-218.5 30.5t-179.5 93.5t-125.5 171.5t-45.5 253.5zM365 1844h293l138 -274h-156z" />
<glyph unicode="&#xda;" horiz-adv-x="1439" d="M151 519v915h256v-914q0 -149 81.5 -230t231.5 -81t231.5 81t81.5 230v914h256v-915q0 -145 -45.5 -253.5t-125.5 -171.5t-179.5 -93.5t-218.5 -30.5t-218.5 30.5t-179.5 93.5t-125.5 171.5t-45.5 253.5zM618 1570l136 274h292l-272 -274h-156z" />
<glyph unicode="&#xdb;" horiz-adv-x="1439" d="M151 519v915h256v-914q0 -149 81.5 -230t231.5 -81t231.5 81t81.5 230v914h256v-915q0 -145 -45.5 -253.5t-125.5 -171.5t-179.5 -93.5t-218.5 -30.5t-218.5 30.5t-179.5 93.5t-125.5 171.5t-45.5 253.5zM394 1587l239 264h142l227 -264h-198l-103 111l-100 -111h-207z " />
<glyph unicode="&#xdc;" horiz-adv-x="1439" d="M151 519v915h256v-914q0 -149 81.5 -230t231.5 -81t231.5 81t81.5 230v914h256v-915q0 -145 -45.5 -253.5t-125.5 -171.5t-179.5 -93.5t-218.5 -30.5t-218.5 30.5t-179.5 93.5t-125.5 171.5t-45.5 253.5zM396 1720q0 63 34 94.5t88 31.5q53 0 86.5 -31.5t33.5 -94.5 q0 -61 -34 -92t-86 -31q-54 0 -88 31t-34 92zM773 1720q0 63 34.5 94.5t89.5 31.5q52 0 84.5 -31.5t32.5 -94.5q0 -61 -32.5 -92t-84.5 -31q-55 0 -89.5 31t-34.5 92z" />
<glyph unicode="&#xdd;" horiz-adv-x="1345" d="M28 1434h298l338 -616l338 616h281l-499 -863v-571h-256v572zM585 1570l137 274h292l-272 -274h-157z" />
<glyph unicode="&#xde;" horiz-adv-x="1179" d="M151 0v1434h261v-232h226q122 0 217.5 -35t154.5 -96.5t89 -141.5t30 -174q0 -98 -31.5 -181.5t-92 -146.5t-154.5 -98.5t-213 -35.5h-226v-293h-261zM412 514h195q111 0 180 62.5t69 178.5q0 110 -65 164t-184 54h-195v-459z" />
<glyph unicode="&#xdf;" horiz-adv-x="1236" d="M146 0v1189q0 175 106 276t316 101q209 0 324 -96.5t115 -259.5q0 -70 -20 -128t-49 -94t-58 -65.5t-49 -57.5t-20 -55q0 -23 18.5 -45.5t47.5 -43t64.5 -44.5t71 -55t64.5 -68t47.5 -90.5t18.5 -116.5q0 -180 -109 -275t-298 -95q-142 0 -246 38l44 183q99 -26 175 -26 q85 0 134 50t49 120q0 52 -24 95.5t-59.5 71.5t-77 59.5t-77 59.5t-59.5 71.5t-24 95.5q0 45 19 84t46.5 68.5t54.5 59.5t46 71t19 90q0 88 -46.5 133.5t-133.5 45.5q-177 0 -177 -181v-1166h-253z" />
<glyph unicode="&#xe0;" horiz-adv-x="1171" d="M95 302q0 80 33 141t91.5 97.5t133.5 54.5t165 18q71 0 144 -7t99 -13v104q0 113 -55.5 158.5t-165.5 45.5q-171 0 -297 -98l-98 155q83 70 193.5 107.5t230.5 37.5q226 0 332 -96.5t106 -295.5v-458q0 -81 60 -81l46 1l-20 -161q-37 -32 -122 -32q-66 0 -109 27.5 t-65 92.5q-120 -130 -322 -130q-170 0 -275 83.5t-105 248.5zM233 1492h293l138 -274h-156zM328 309q0 -80 53.5 -116.5t133.5 -36.5q82 0 147.5 32t101.5 96v148q-94 23 -218 23q-218 0 -218 -146z" />
<glyph unicode="&#xe1;" horiz-adv-x="1171" d="M95 302q0 80 33 141t91.5 97.5t133.5 54.5t165 18q71 0 144 -7t99 -13v104q0 113 -55.5 158.5t-165.5 45.5q-171 0 -297 -98l-98 155q83 70 193.5 107.5t230.5 37.5q226 0 332 -96.5t106 -295.5v-458q0 -81 60 -81l46 1l-20 -161q-37 -32 -122 -32q-66 0 -109 27.5 t-65 92.5q-120 -130 -322 -130q-170 0 -275 83.5t-105 248.5zM328 309q0 -80 53.5 -116.5t133.5 -36.5q82 0 147.5 32t101.5 96v148q-94 23 -218 23q-218 0 -218 -146zM486 1218l137 274h292l-272 -274h-157z" />
<glyph unicode="&#xe2;" horiz-adv-x="1171" d="M95 302q0 80 33 141t91.5 97.5t133.5 54.5t165 18q71 0 144 -7t99 -13v104q0 113 -55.5 158.5t-165.5 45.5q-171 0 -297 -98l-98 155q83 70 193.5 107.5t230.5 37.5q226 0 332 -96.5t106 -295.5v-458q0 -81 60 -81l46 1l-20 -161q-37 -32 -122 -32q-66 0 -109 27.5 t-65 92.5q-120 -130 -322 -130q-170 0 -275 83.5t-105 248.5zM262 1236l239 263h142l228 -263h-198l-104 110l-100 -110h-207zM328 309q0 -80 53.5 -116.5t133.5 -36.5q82 0 147.5 32t101.5 96v147q-98 24 -218 24q-218 0 -218 -146z" />
<glyph unicode="&#xe3;" horiz-adv-x="1171" d="M95 302q0 80 33 141t91.5 97.5t133.5 54.5t165 18q71 0 144 -7t99 -13v104q0 113 -55.5 158.5t-165.5 45.5q-171 0 -297 -98l-98 155q83 70 193.5 107.5t230.5 37.5q226 0 332 -96.5t106 -295.5v-458q0 -81 60 -81l46 1l-20 -161q-37 -32 -122 -32q-66 0 -109 27.5 t-65 92.5q-120 -130 -322 -130q-170 0 -275 83.5t-105 248.5zM240 1303q25 94 82.5 138.5t118.5 44.5q45 0 89.5 -19.5t80 -39t60.5 -19.5q59 0 99 96l132 -61q-26 -91 -78.5 -142.5t-123.5 -51.5q-52 0 -123 38.5t-107 38.5q-40 0 -64 -22.5t-43 -67.5zM328 309 q0 -80 53.5 -116.5t133.5 -36.5q82 0 147.5 32t101.5 96v148q-94 23 -218 23q-218 0 -218 -146z" />
<glyph unicode="&#xe4;" horiz-adv-x="1171" d="M95 302q0 80 33 141t91.5 97.5t133.5 54.5t165 18q71 0 144 -7t99 -13v104q0 113 -55.5 158.5t-165.5 45.5q-171 0 -297 -98l-98 155q83 70 193.5 107.5t230.5 37.5q226 0 332 -96.5t106 -295.5v-458q0 -81 60 -81l46 1l-20 -161q-37 -32 -122 -32q-66 0 -109 27.5 t-65 92.5q-120 -130 -322 -130q-170 0 -275 83.5t-105 248.5zM264 1369q0 63 34 94t88 31q53 0 86.5 -31t33.5 -94q0 -61 -34 -92.5t-86 -31.5q-53 0 -87.5 31.5t-34.5 92.5zM328 309q0 -80 53.5 -116.5t133.5 -36.5q82 0 147.5 32t101.5 96v148q-94 23 -218 23 q-218 0 -218 -146zM641 1369q0 63 34.5 94t89.5 31q52 0 84.5 -31t32.5 -94q0 -61 -32.5 -92.5t-84.5 -31.5q-55 0 -89.5 31.5t-34.5 92.5z" />
<glyph unicode="&#xe5;" horiz-adv-x="1171" d="M95 302q0 80 33 141t91.5 97.5t133.5 54.5t165 18q71 0 144 -7t99 -13v104q0 113 -55.5 158.5t-165.5 45.5q-171 0 -297 -98l-98 155q83 70 193.5 107.5t230.5 37.5q226 0 332 -96.5t106 -295.5v-458q0 -81 60 -81l46 1l-20 -161q-37 -32 -122 -32q-66 0 -109 27.5 t-65 92.5q-120 -130 -322 -130q-170 0 -275 83.5t-105 248.5zM328 309q0 -80 53.5 -116.5t133.5 -36.5q82 0 147.5 32t101.5 96v148q-94 23 -218 23q-218 0 -218 -146zM406 1373q0 73 47.5 117.5t123.5 44.5q75 0 123 -44.5t48 -117.5t-48 -117t-123 -44q-76 0 -123.5 44 t-47.5 117zM505 1373q0 -32 19 -53t53 -21q33 0 52.5 21.5t19.5 52.5t-19.5 52.5t-52.5 21.5q-34 0 -53 -21t-19 -53z" />
<glyph unicode="&#xe6;" horiz-adv-x="1855" d="M95 308q0 86 36 150.5t100 102.5t143.5 56t174.5 18q127 0 224 -21v78q0 104 -59 154t-165 50q-164 0 -298 -93l-98 157q185 138 421 138q133 0 218 -44t135 -146q131 190 390 190q198 0 320 -131.5t122 -355.5q0 -104 -9 -152h-722q16 -141 93.5 -212t209.5 -71 q173 0 301 99l87 -144q-64 -73 -175 -114.5t-235 -41.5q-272 0 -406 204q-73 -97 -183.5 -150.5t-251.5 -53.5q-162 0 -267.5 87t-105.5 246zM331 319q0 -79 52.5 -115.5t123.5 -36.5q98 0 178.5 51.5t91.5 121.5v113q-122 20 -207 20q-114 0 -176.5 -34.5t-62.5 -119.5z M1027 624h501q-18 279 -241 279q-112 0 -180 -71.5t-80 -207.5z" />
<glyph unicode="&#xe7;" horiz-adv-x="1095" d="M94 543q0 175 74 304t194 192.5t267 63.5q228 0 381 -130l-101 -172q-117 90 -257 90q-138 0 -224 -91t-86 -257t88.5 -263t224.5 -97q149 0 271 101l109 -161q-68 -68 -169 -109.5t-220 -43.5l-35 -61q86 10 137 -34.5t51 -114.5q0 -94 -72.5 -149.5t-187.5 -65.5 l-45 109q80 14 113.5 37.5t33.5 61.5q0 21 -14.5 35t-35.5 14t-39 -11l-86 75l61 113q-194 34 -313.5 182t-119.5 382z" />
<glyph unicode="&#xe8;" horiz-adv-x="1185" d="M94 531q0 260 140 416t369 156q119 0 214.5 -42.5t154 -114.5t89 -161.5t30.5 -188.5q0 -80 -13 -145h-736q40 -280 306 -280q173 0 305 109l102 -160q-177 -150 -444 -150q-107 0 -199.5 35t-164 102t-112.5 176t-41 248zM252 1482h293l138 -274h-156zM338 617h527 q-5 134 -73.5 213t-182.5 79q-116 0 -187 -73t-84 -219z" />
<glyph unicode="&#xe9;" horiz-adv-x="1185" d="M94 531q0 260 140 416t369 156q119 0 214.5 -42.5t154 -114.5t89 -161.5t30.5 -188.5q0 -80 -13 -145h-736q40 -280 306 -280q173 0 305 109l102 -160q-177 -150 -444 -150q-107 0 -199.5 35t-164 102t-112.5 176t-41 248zM338 617h527q-5 134 -73.5 213t-182.5 79 q-116 0 -187 -73t-84 -219zM505 1208l136 274h292l-272 -274h-156z" />
<glyph unicode="&#xea;" horiz-adv-x="1185" d="M94 531q0 260 140 416t369 156q119 0 214.5 -42.5t154 -114.5t89 -161.5t30.5 -188.5q0 -80 -13 -145h-736q40 -280 306 -280q173 0 305 109l102 -160q-177 -150 -444 -150q-107 0 -199.5 35t-164 102t-112.5 176t-41 248zM281 1226l239 264h142l228 -264h-198l-104 111 l-100 -111h-207zM338 617h527q-5 134 -73.5 213t-182.5 79q-116 0 -187 -73t-84 -219z" />
<glyph unicode="&#xeb;" horiz-adv-x="1185" d="M94 531q0 260 140 416t369 156q119 0 214.5 -42.5t154 -114.5t89 -161.5t30.5 -188.5q0 -80 -13 -145h-736q40 -280 306 -280q173 0 305 109l102 -160q-177 -150 -444 -150q-107 0 -199.5 35t-164 102t-112.5 176t-41 248zM283 1359q0 63 34 94t88 31q53 0 86.5 -31 t33.5 -94q0 -61 -34 -92t-86 -31q-54 0 -88 31t-34 92zM338 617h527q-5 134 -73.5 213t-182.5 79q-116 0 -187 -73t-84 -219zM660 1359q0 63 34.5 94t89.5 31q52 0 84.5 -31t32.5 -94q0 -61 -32.5 -92t-84.5 -31q-55 0 -89.5 31t-34.5 92z" />
<glyph unicode="&#xec;" horiz-adv-x="524" d="M-93 1483h293l137 -274h-155zM139 0v1073h246v-1073h-246z" />
<glyph unicode="&#xed;" horiz-adv-x="524" d="M139 0v1073h246v-1073h-246zM159 1209l137 274h292l-272 -274h-157z" />
<glyph unicode="&#xee;" horiz-adv-x="524" d="M-64 1227l238 264h143l227 -264h-198l-104 111l-99 -111h-207zM139 0v1073h246v-1073h-246z" />
<glyph unicode="&#xef;" horiz-adv-x="524" d="M-63 1360q0 63 34.5 94t88.5 31q53 0 86 -31t33 -94q0 -61 -33.5 -92.5t-85.5 -31.5q-54 0 -88.5 31.5t-34.5 92.5zM139 0v1073h246v-1073h-246zM315 1360q0 63 34 94t89 31q52 0 85 -31t33 -94q0 -61 -33 -92.5t-85 -31.5q-55 0 -89 31.5t-34 92.5z" />
<glyph unicode="&#xf0;" horiz-adv-x="1249" d="M94 546q0 139 39.5 247.5t108 175t154.5 100.5t184 34q183 0 299 -135q-61 164 -193 287l-222 -104l-55 99l179 84q-60 42 -137 82l134 135q106 -55 197 -125l193 91l54 -101l-153 -72q279 -276 279 -732q0 -308 -140.5 -475t-391.5 -167q-109 0 -202.5 34.5 t-167.5 102.5t-116.5 180.5t-42.5 258.5zM344 534q0 -161 75 -252.5t205 -91.5q127 0 203.5 92t76.5 252t-79 252t-207 92q-129 0 -201.5 -91t-72.5 -253z" />
<glyph unicode="&#xf1;" horiz-adv-x="1241" d="M146 0v1073h168l39 -160h8q77 96 163.5 143t206.5 47q170 0 267 -94t97 -269v-740h-246v662q0 115 -44.5 162t-128.5 47q-164 0 -286 -177v-694h-244zM277 1303q25 94 82.5 138.5t118.5 44.5q45 0 89.5 -19.5t80 -39t60.5 -19.5q59 0 99 96l132 -61q-26 -91 -78.5 -142.5 t-123.5 -51.5q-52 0 -123.5 38.5t-107.5 38.5q-40 0 -63.5 -22t-42.5 -68z" />
<glyph unicode="&#xf2;" horiz-adv-x="1269" d="M94 537q0 115 30 210t81 160t120 110t147 65.5t163 20.5t163 -20.5t147 -65.5t120 -110t81 -160t30 -210t-30 -210t-81 -160.5t-120 -110.5t-147 -65.5t-163 -20.5t-163 20.5t-147 65.5t-120 110.5t-81 160.5t-30 210zM280 1483h293l138 -274h-156zM344 537 q0 -166 77.5 -258t213.5 -92t213.5 92.5t77.5 257.5q0 164 -77.5 256.5t-213.5 92.5t-213.5 -91.5t-77.5 -257.5z" />
<glyph unicode="&#xf3;" horiz-adv-x="1269" d="M94 537q0 115 30 210t81 160t120 110t147 65.5t163 20.5t163 -20.5t147 -65.5t120 -110t81 -160t30 -210t-30 -210t-81 -160.5t-120 -110.5t-147 -65.5t-163 -20.5t-163 20.5t-147 65.5t-120 110.5t-81 160.5t-30 210zM344 537q0 -166 77.5 -258t213.5 -92t213.5 92.5 t77.5 257.5q0 164 -77.5 256.5t-213.5 92.5t-213.5 -91.5t-77.5 -257.5zM533 1209l136 274h292l-272 -274h-156z" />
<glyph unicode="&#xf4;" horiz-adv-x="1269" d="M94 537q0 115 30 210t81 160t120 110t147 65.5t163 20.5t163 -20.5t147 -65.5t120 -110t81 -160t30 -210t-30 -210t-81 -160.5t-120 -110.5t-147 -65.5t-163 -20.5t-163 20.5t-147 65.5t-120 110.5t-81 160.5t-30 210zM309 1227l239 264h142l227 -264h-198l-103 111 l-100 -111h-207zM344 537q0 -166 77.5 -258t213.5 -92t213.5 92.5t77.5 257.5t-77.5 257t-213.5 92t-213.5 -91.5t-77.5 -257.5z" />
<glyph unicode="&#xf5;" horiz-adv-x="1269" d="M94 537q0 115 30 210t81 160t120 110t147 65.5t163 20.5t163 -20.5t147 -65.5t120 -110t81 -160t30 -210t-30 -210t-81 -160.5t-120 -110.5t-147 -65.5t-163 -20.5t-163 20.5t-147 65.5t-120 110.5t-81 160.5t-30 210zM286 1294q25 94 83 139t119 45q45 0 89.5 -20 t80 -39.5t60.5 -19.5q58 0 99 97l131 -61q-26 -91 -78 -142.5t-123 -51.5q-52 0 -123.5 38t-107.5 38q-40 0 -64 -22t-43 -67zM344 537q0 -166 77.5 -258t213.5 -92t213.5 92.5t77.5 257.5t-77.5 257t-213.5 92t-213.5 -91.5t-77.5 -257.5z" />
<glyph unicode="&#xf6;" horiz-adv-x="1269" d="M94 537q0 115 30 210t81 160t120 110t147 65.5t163 20.5t163 -20.5t147 -65.5t120 -110t81 -160t30 -210t-30 -210t-81 -160.5t-120 -110.5t-147 -65.5t-163 -20.5t-163 20.5t-147 65.5t-120 110.5t-81 160.5t-30 210zM311 1360q0 63 34 94t88 31q53 0 86.5 -31t33.5 -94 q0 -61 -34 -92.5t-86 -31.5q-53 0 -87.5 31.5t-34.5 92.5zM344 537q0 -166 77.5 -258t213.5 -92t213.5 92.5t77.5 257.5q0 164 -77.5 256.5t-213.5 92.5t-213.5 -91.5t-77.5 -257.5zM688 1360q0 63 34.5 94t89.5 31q52 0 84.5 -31t32.5 -94q0 -61 -32.5 -92.5t-84.5 -31.5 q-55 0 -89.5 31.5t-34.5 92.5z" />
<glyph unicode="&#xf7;" horiz-adv-x="1028" d="M47 460v157h973v-157h-973zM392 134q0 66 39.5 101t96.5 35q56 0 95.5 -35t39.5 -101t-39.5 -101t-95.5 -35q-57 0 -96.5 35t-39.5 101zM392 949q0 68 39.5 102.5t96.5 34.5t96 -34.5t39 -102.5q0 -66 -39.5 -100.5t-95.5 -34.5t-96 34.5t-40 100.5z" />
<glyph unicode="&#xf8;" horiz-adv-x="1269" d="M94 537q0 115 30 210t81 160t120 110t147 65.5t163 20.5q112 0 208 -35l100 198l125 -64l-109 -194q217 -150 217 -471q0 -115 -30 -210t-81 -160.5t-120 -110.5t-147 -65.5t-163 -20.5q-110 0 -209 36l-109 -207l-123 71l114 197q-100 70 -157 188t-57 282zM344 537 q0 -169 81 -262l316 594q-49 17 -106 17q-136 0 -213.5 -91.5t-77.5 -257.5zM530 204q49 -17 105 -17q136 0 213.5 92.5t77.5 257.5q0 169 -82 262z" />
<glyph unicode="&#xf9;" horiz-adv-x="1228" d="M146 356v717h244v-660q0 -217 174 -217q156 0 273 172v705h245v-1073h-171l-49 150q-65 -83 -147.5 -129t-204.5 -46q-168 0 -266 97.5t-98 283.5zM278 1483h293l137 -274h-155z" />
<glyph unicode="&#xfa;" horiz-adv-x="1228" d="M146 356v717h244v-660q0 -217 174 -217q156 0 273 172v705h245v-1073h-171l-49 150q-65 -83 -147.5 -129t-204.5 -46q-168 0 -266 97.5t-98 283.5zM530 1209l137 274h292l-272 -274h-157z" />
<glyph unicode="&#xfb;" horiz-adv-x="1228" d="M146 356v717h244v-660q0 -217 174 -217q156 0 273 172v705h245v-1073h-171l-49 150q-65 -83 -147.5 -129t-204.5 -46q-168 0 -266 97.5t-98 283.5zM307 1227l239 264h142l227 -264h-198l-104 111l-99 -111h-207z" />
<glyph unicode="&#xfc;" horiz-adv-x="1228" d="M146 356v717h244v-660q0 -217 174 -217q156 0 273 172v705h245v-1073h-171l-49 150q-65 -83 -147.5 -129t-204.5 -46q-168 0 -266 97.5t-98 283.5zM309 1360q0 63 34 94t88 31q53 0 86 -31t33 -94q0 -61 -33.5 -92.5t-85.5 -31.5q-53 0 -87.5 31.5t-34.5 92.5zM686 1360 q0 63 34 94t89 31q52 0 85 -31t33 -94q0 -61 -33 -92.5t-85 -31.5q-55 0 -89 31.5t-34 92.5z" />
<glyph unicode="&#xfd;" horiz-adv-x="1202" d="M44 1075h258l307 -852l278 852h262l-412 -1143q-66 -184 -167.5 -274.5t-248.5 -90.5q-125 0 -230 33l43 186q71 -23 145 -23q59 0 111 41t82 117l18 45zM499 1218l137 274h292l-272 -274h-157z" />
<glyph unicode="&#xfe;" horiz-adv-x="1230" d="M146 -432v1866h241v-482h5q125 146 305 146q90 0 168.5 -33.5t139.5 -98.5t96 -170t35 -238q0 -131 -40 -242t-107.5 -185t-157 -115t-188.5 -41q-147 0 -251 55v-462h-246zM392 237q43 -32 88.5 -45.5t108.5 -13.5q57 0 109.5 23.5t94.5 68t67.5 116t25.5 160.5 q0 167 -70.5 250.5t-173.5 83.5q-143 0 -250 -162v-481z" />
<glyph unicode="&#xff;" horiz-adv-x="1202" d="M44 1075h258l307 -852l278 852h262l-412 -1143q-66 -184 -167.5 -274.5t-248.5 -90.5q-125 0 -230 33l43 186q71 -23 145 -23q59 0 111 41t82 117l18 45zM277 1369q0 63 34.5 94t88.5 31q53 0 86 -31t33 -94q0 -61 -33.5 -92.5t-85.5 -31.5q-54 0 -88.5 31.5t-34.5 92.5z M655 1369q0 63 34 94t89 31q52 0 85 -31t33 -94q0 -61 -33 -92.5t-85 -31.5q-55 0 -89 31.5t-34 92.5z" />
<glyph unicode="&#x152;" horiz-adv-x="1828" d="M120 722q0 176 57 313.5t159.5 224t237.5 130.5t297 44h845v-229h-587v-375h516v-209h-516v-393h587v-228h-845q-161 0 -297 46t-237.5 134t-159 227t-57.5 315zM389 722q0 -232 120.5 -365t334.5 -133h24v994h-24q-212 0 -333.5 -132t-121.5 -364z" />
<glyph unicode="&#x153;" horiz-adv-x="2002" d="M94 537q0 135 42 244t113.5 177t162.5 104t192 36q132 0 243.5 -56t175.5 -172q61 118 166 173t237 55q118 0 212.5 -41.5t152 -110.5t88 -154.5t30.5 -178.5q0 -101 -12 -157h-728q6 -52 23.5 -97.5t51 -88.5t93 -68.5t137.5 -25.5q166 0 294 99l98 -144 q-64 -72 -176 -114t-234 -42q-136 0 -250.5 55t-183.5 172q-65 -117 -179.5 -172t-246.5 -55q-79 0 -152 22.5t-136.5 68.5t-111 111.5t-75 158t-27.5 201.5zM342 537q0 -162 74.5 -253t205.5 -91t204.5 91t73.5 253q0 161 -73.5 252t-204.5 91t-205.5 -90.5t-74.5 -252.5z M1166 632h507q-8 127 -74.5 199t-177.5 72q-109 0 -175.5 -70t-79.5 -201z" />
<glyph unicode="&#x178;" horiz-adv-x="1345" d="M28 1434h298l338 -616l338 616h281l-499 -863v-571h-256v572zM363 1720q0 63 34.5 94.5t88.5 31.5q53 0 86 -31.5t33 -94.5q0 -61 -33.5 -92t-85.5 -31q-54 0 -88.5 31t-34.5 92zM741 1720q0 63 34 94.5t89 31.5q52 0 85 -31.5t33 -94.5q0 -61 -33 -92t-85 -31 q-55 0 -89 31t-34 92z" />
<glyph unicode="&#x2c6;" horiz-adv-x="710" d="M51 1227l239 264h142l228 -264h-198l-104 111l-100 -111h-207z" />
<glyph unicode="&#x2dc;" horiz-adv-x="710" d="M29 1294q25 94 82.5 139t118.5 45q45 0 89.5 -20t80 -39.5t60.5 -19.5q58 0 99 97l132 -61q-26 -91 -78.5 -142.5t-123.5 -51.5q-52 0 -123.5 38t-107.5 38q-40 0 -63.5 -22t-42.5 -67z" />
<glyph unicode="&#x2000;" horiz-adv-x="943" />
<glyph unicode="&#x2001;" horiz-adv-x="1886" />
<glyph unicode="&#x2002;" horiz-adv-x="943" />
<glyph unicode="&#x2003;" horiz-adv-x="1886" />
<glyph unicode="&#x2004;" horiz-adv-x="628" />
<glyph unicode="&#x2005;" horiz-adv-x="471" />
<glyph unicode="&#x2006;" horiz-adv-x="314" />
<glyph unicode="&#x2007;" horiz-adv-x="314" />
<glyph unicode="&#x2008;" horiz-adv-x="235" />
<glyph unicode="&#x2009;" horiz-adv-x="377" />
<glyph unicode="&#x200a;" horiz-adv-x="104" />
<glyph unicode="&#x2010;" horiz-adv-x="931" d="M146 508v205h640v-205h-640z" />
<glyph unicode="&#x2011;" horiz-adv-x="931" d="M146 508v205h640v-205h-640z" />
<glyph unicode="&#x2012;" horiz-adv-x="931" d="M146 508v205h640v-205h-640z" />
<glyph unicode="&#x2013;" horiz-adv-x="1206" d="M135 428v215h934v-215h-934z" />
<glyph unicode="&#x2014;" horiz-adv-x="1841" d="M159 428v215h1550v-215h-1550z" />
<glyph unicode="&#x2018;" horiz-adv-x="497" d="M52 1140q0 188 199 331l102 -45q-80 -80 -102 -155q63 -10 98 -51.5t35 -102.5q0 -81 -46 -125t-118 -44t-120 51.5t-48 140.5z" />
<glyph unicode="&#x2019;" horiz-adv-x="542" d="M123 1302q0 81 46.5 125t117.5 44q73 0 120.5 -52t47.5 -141q0 -188 -198 -330l-102 46q82 82 102 156q-62 10 -98 51t-36 101z" />
<glyph unicode="&#x201a;" horiz-adv-x="497" d="M115 137q0 75 46 119t115 44q75 0 123 -51.5t48 -140.5q0 -211 -210 -349l-94 36q92 92 113 181q-58 2 -99.5 43.5t-41.5 117.5z" />
<glyph unicode="&#x201c;" horiz-adv-x="897" d="M71 1113q0 211 209 348l95 -35q-92 -89 -114 -184q58 -4 100 -44t42 -115t-46 -119t-115 -44q-75 0 -123 52t-48 141zM469 1113q0 211 209 348l95 -35q-90 -88 -113 -183q57 -3 99 -44t42 -116t-46 -119t-115 -44q-75 0 -123 52t-48 141z" />
<glyph unicode="&#x201d;" horiz-adv-x="897" d="M96 1298q0 75 46 119t115 44q75 0 123 -51.5t48 -140.5q0 -211 -210 -349l-94 36q92 92 113 182q-57 3 -99 44t-42 116zM494 1298q0 75 46 119t115 44q75 0 122.5 -51.5t47.5 -140.5q0 -212 -209 -349l-94 36q91 88 113 184q-58 4 -99.5 43.5t-41.5 114.5z" />
<glyph unicode="&#x201e;" horiz-adv-x="897" d="M96 137q0 75 46 119t115 44q75 0 123 -51.5t48 -140.5q0 -211 -210 -349l-94 36q92 92 113 182q-57 3 -99 44t-42 116zM494 137q0 75 46 119t115 44q75 0 122.5 -51.5t47.5 -140.5q0 -212 -209 -349l-94 36q91 88 113 183q-58 4 -99.5 44t-41.5 115z" />
<glyph unicode="&#x2022;" horiz-adv-x="634" d="M130 636q0 94 54 142t130 48q78 0 134 -48t56 -142q0 -90 -57 -140t-133 -50q-75 0 -129.5 50t-54.5 140z" />
<glyph unicode="&#x2026;" horiz-adv-x="1814" d="M176 136q0 82 47.5 124.5t117.5 42.5t117 -42.5t47 -124.5q0 -83 -47 -126t-117 -43t-117.5 43.5t-47.5 125.5zM742 136q0 81 47.5 124t116.5 43q70 0 117 -42.5t47 -124.5q0 -83 -47 -126t-117 -43q-68 0 -116 43.5t-48 125.5zM1308 136q0 81 48 124t117 43 q70 0 118 -42.5t48 -124.5t-48 -125.5t-118 -43.5q-69 0 -117 43.5t-48 125.5z" />
<glyph unicode="&#x202f;" horiz-adv-x="377" />
<glyph unicode="&#x2039;" horiz-adv-x="702" d="M113 519l325 400l134 -117l-239 -281l239 -281l-127 -117z" />
<glyph unicode="&#x203a;" horiz-adv-x="716" d="M139 240l239 281l-239 281l134 117l326 -400l-332 -396z" />
<glyph unicode="&#x205f;" horiz-adv-x="471" />
<glyph unicode="&#x20ac;" horiz-adv-x="1478" d="M120 490v147h153q-3 41 -3 84q0 39 3 76h-153v147h172q37 171 131.5 288.5t224.5 171.5t290 54q149 0 269.5 -43.5t197.5 -111.5l-135 -177q-152 105 -329 105q-134 0 -233.5 -73.5t-142.5 -213.5h657l-32 -147h-651q-2 -21 -2 -66q0 -44 5 -94h619l-33 -147h-554 q47 -135 142.5 -208.5t217.5 -73.5q197 0 356 125l128 -168q-82 -80 -212 -134.5t-291 -54.5q-147 0 -271 54t-218.5 172t-131.5 288h-174z" />
<glyph unicode="&#x2122;" horiz-adv-x="1837" d="M118 1250v184h672v-184h-240v-654h-197v654h-235zM874 596v838h168l270 -446l303 446h133v-838h-196v464l-212 -337h-68l-207 334v-461h-191z" />
<glyph unicode="&#x25fc;" horiz-adv-x="1075" d="M0 0v1075h1075v-1075h-1075z" />
<glyph unicode="&#xfb03;" horiz-adv-x="1783" d="M58 864v209h150v168q0 157 92.5 243t262.5 86q119 0 187 -29l-39 -182q-52 14 -110 14q-147 0 -147 -136v-164h216h149v147q0 94 29.5 162.5t83 107t118 56t144.5 17.5q117 0 189 -23t140 -66l-97 -170q-76 62 -188 62q-172 0 -172 -151v-142h600v-1073h-244v864h-356 v-864h-247v864h-114h-251v-864h-246v864h-150z" />
<glyph unicode="&#xfb04;" horiz-adv-x="1900" d="M58 864v209h150v168q0 157 92.5 243t262.5 86q119 0 187 -29l-39 -182q-52 14 -110 14q-147 0 -147 -136v-164h174h221v127q0 177 113 273.5t324 96.5q457 0 457 -408l-250 -6q0 108 -47 161.5t-152 53.5q-102 0 -150 -43t-48 -143v-112h246v-206h-246v-867h-247v864 h-395v-864h-246v864h-150zM1493 0v1156l250 6v-1162h-250z" />
</font>
</defs>
</svg>
