<?xml version="1.0" standalone="no"?>
<!DOCTYPE svg PUBLIC "-//W3C//DTD SVG 1.1//EN" "http://www.w3.org/Graphics/SVG/1.1/DTD/svg11.dtd" >
<svg xmlns="http://www.w3.org/2000/svg">
<metadata></metadata>
<defs>
<font id="motiva_sansitalic" horiz-adv-x="1196" >
<font-face units-per-em="2048" ascent="1540" descent="-508" />
<missing-glyph horiz-adv-x="573" />
<glyph horiz-adv-x="2048" />
<glyph horiz-adv-x="2048" />
<glyph unicode="&#xd;" horiz-adv-x="2048" />
<glyph unicode=" "  horiz-adv-x="573" />
<glyph unicode="&#x09;" horiz-adv-x="573" />
<glyph unicode="&#xa0;" horiz-adv-x="573" />
<glyph unicode="!" horiz-adv-x="620" d="M98 127q12 63 53.5 96t98.5 33q64 0 100.5 -41t24.5 -115q-12 -63 -53.5 -96t-98.5 -33q-64 0 -100.5 41t-24.5 115zM215 428l147 1008h232l-215 -1008h-164z" />
<glyph unicode="&#x22;" horiz-adv-x="780" d="M238 981l49 455h180l-109 -455h-120zM551 981l49 455h180l-108 -455h-121z" />
<glyph unicode="#" horiz-adv-x="1398" d="M141 410l21 125h303l117 380h-310l23 127h326l118 392h133l-118 -392h323l117 392h133l-117 -392h306l-23 -127h-322l-114 -380h325l-22 -125h-340l-123 -410h-133l123 410h-324l-125 -410h-137l125 410h-285zM600 535h324l114 380h-323z" />
<glyph unicode="$" horiz-adv-x="1191" d="M23 106l98 162q168 -110 391 -110q172 0 264 71.5t92 180.5q0 29 -8 52.5t-29 45t-40 36.5t-57.5 34t-65 30.5t-78.5 33.5q-18 7 -27 11q-67 29 -111 50.5t-94.5 55.5t-79.5 68t-49 83t-20 106q0 183 135 304t361 136l26 193h158l-43 -195q205 -17 350 -129l-111 -149 q-151 116 -348 116q-142 0 -231.5 -66t-89.5 -173q0 -26 8 -48.5t19.5 -40.5t35 -36t42.5 -30.5t54 -29.5t58.5 -27.5t67.5 -29t69 -29.5q77 -33 128.5 -62t95.5 -68t64.5 -88t20.5 -111q0 -197 -148 -329t-390 -147l-27 -208h-158l47 211q-230 20 -380 126z" />
<glyph unicode="%" horiz-adv-x="1556" d="M94 0l1219 1434h141l-1221 -1434h-139zM125 1063q0 91 31.5 166.5t84.5 125t121.5 76.5t143.5 27q118 0 190 -71.5t72 -196.5q0 -180 -109.5 -287.5t-267.5 -107.5q-119 0 -192.5 71t-73.5 197zM276 1073q0 -75 35.5 -116.5t98.5 -41.5q97 0 150.5 70.5t53.5 198.5 q0 153 -131 153q-90 0 -148.5 -70.5t-58.5 -193.5zM774 246q0 181 112 289t269 108q118 0 189 -71.5t71 -198.5q0 -180 -109.5 -288t-267.5 -108q-117 0 -190.5 71.5t-73.5 197.5zM924 254q0 -74 35.5 -115t99.5 -41q96 0 150.5 72t54.5 199q0 72 -32.5 112.5t-96.5 40.5 q-93 0 -152 -71.5t-59 -196.5z" />
<glyph unicode="&#x26;" horiz-adv-x="1503" d="M170 264q0 120 73.5 222t235.5 206l58 37q-82 95 -121 167t-39 159q0 174 125.5 290.5t339.5 116.5q156 0 246 -73.5t90 -190.5q0 -216 -279 -407l-96 -64l241 -270q44 63 66 106l125 211l145 -63l-120 -207q-73 -121 -107 -168l217 -244l-143 -127l-197 217 q-104 -109 -218.5 -158t-254.5 -49q-188 0 -287.5 78.5t-99.5 210.5zM371 305q0 -73 51 -116.5t151 -43.5q189 0 349 160l-283 311l-84 -55q-99 -66 -141.5 -126.5t-42.5 -129.5zM565 1077q0 -59 32 -109.5t108 -129.5l81 53q100 67 152.5 133t52.5 143q0 69 -49.5 101 t-128.5 32q-119 0 -183.5 -61.5t-64.5 -161.5z" />
<glyph unicode="'" horiz-adv-x="509" d="M334 983l49 453h201l-109 -453h-141z" />
<glyph unicode="(" horiz-adv-x="786" d="M170 549q4 116 23.5 224t48 193.5t69.5 164.5t82 138t90.5 113t89.5 90t86 69.5t73 50t56 32.5l66 -88q-7 -6 -24 -19q-42 -33 -68.5 -55t-81 -76t-92 -104t-85.5 -131.5t-78 -166.5t-53 -200t-26 -241q-4 -84 4 -162.5t19.5 -135.5t35.5 -115.5t39.5 -90.5t45 -74 t38.5 -53t33 -39l-94 -86q-35 26 -68 58t-80.5 99.5t-80 146.5t-54 200t-14.5 258z" />
<glyph unicode=")" horiz-adv-x="786" d="M-10 -127q23 17 42.5 32.5t74.5 67t99 104.5t100.5 139.5t95 177t67.5 213t33 251.5q5 121 -14 232.5t-45.5 182.5t-63 134t-56.5 87t-38 42l98 88q17 -13 35 -29.5t50.5 -53.5t60.5 -79t59 -107t51.5 -136t32 -166.5t6.5 -198.5q-5 -144 -39 -278t-81 -233t-113.5 -191 t-121 -149t-119 -109.5t-92 -71t-55.5 -35.5z" />
<glyph unicode="*" horiz-adv-x="843" d="M246 1141l205 96l-177 102l74 99l162 -113l27 209h122l-55 -211l201 117l43 -103l-207 -100l176 -94l-74 -101l-165 113l-23 -209h-123l49 209l-192 -113z" />
<glyph unicode="+" horiz-adv-x="1474" d="M217 647l25 139h436l82 461h139l-80 -461h436l-24 -139h-438l-82 -461h-140l82 461h-436z" />
<glyph unicode="," horiz-adv-x="632" d="M72 -197q113 93 159 203q-40 2 -69 38t-21 91q10 51 45.5 77t81.5 26q59 0 91 -43t20 -117q-15 -84 -75.5 -173t-166.5 -159z" />
<glyph unicode="-" horiz-adv-x="831" d="M113 535l24 137h604l-24 -137h-604z" />
<glyph unicode="." horiz-adv-x="649" d="M121 117q10 59 48.5 90t88.5 31q61 0 95 -40t24 -108q-10 -59 -48 -89t-91 -30q-61 0 -95 39t-22 107z" />
<glyph unicode="/" horiz-adv-x="747" d="M-16 -88l825 1628h170l-823 -1628h-172z" />
<glyph unicode="0" horiz-adv-x="1318" d="M98 530q0 105 20.5 213t60 212.5t101.5 196t140.5 161t182.5 109.5t222 40q224 0 341.5 -147.5t117.5 -409.5q0 -126 -30.5 -256.5t-93 -252t-147.5 -216.5t-204 -152t-254 -57q-221 0 -339 142t-118 417zM305 555q0 -203 70 -304t215 -101q94 0 176 48.5t138 126.5 t96.5 175t59.5 194.5t19 184.5q0 191 -69 297t-215 106q-100 0 -184 -49t-139 -126t-94 -175t-56 -193.5t-17 -183.5z" />
<glyph unicode="1" horiz-adv-x="1105" d="M55 0l33 174h350l189 1040l-348 -155l-52 149l486 232h151l-229 -1266h332l-31 -174h-881z" />
<glyph unicode="2" horiz-adv-x="1255" d="M37 0l31 170l565 432q196 148 272 253.5t76 205.5q0 104 -79 161.5t-214 57.5q-206 0 -383 -119l-69 146q242 159 514 159q208 0 328 -98.5t120 -259.5q0 -71 -16 -130t-58.5 -127.5t-121.5 -145.5t-201 -168l-467 -355h751l-32 -182h-1016z" />
<glyph unicode="3" horiz-adv-x="1230" d="M-2 143l108 140q149 -127 371 -127q95 0 174 20.5t129.5 53t85 74.5t49.5 83t15 80q0 109 -87 161t-263 52h-142l29 164h119q186 0 290.5 73.5t104.5 182.5q0 84 -72.5 135t-195.5 51q-218 0 -404 -135l-80 145q234 168 523 168q218 0 329 -93.5t111 -235.5 q0 -114 -78.5 -208t-247.5 -145v-6q120 -27 194.5 -112t74.5 -207q0 -70 -26 -138.5t-80.5 -131t-131.5 -109.5t-188 -75t-240 -28q-295 0 -471 168z" />
<glyph unicode="4" horiz-adv-x="1323" d="M63 373l27 141l916 942h168l-162 -921h219l-29 -162h-219l-65 -373h-195l61 373h-721zM307 535h510l119 655z" />
<glyph unicode="5" horiz-adv-x="1275" d="M53 102l99 154q141 -98 362 -98q108 0 193.5 31.5t136 84t76.5 115.5t26 131q0 234 -274 234q-168 0 -332 -111l-125 82l129 715h879l-33 -185h-688l-76 -424q142 84 336 84q176 0 282.5 -101t106.5 -273q0 -79 -25 -158t-78.5 -153t-129 -130.5t-186 -90.5t-240.5 -34 q-266 0 -439 127z" />
<glyph unicode="6" horiz-adv-x="1376" d="M137 532q0 140 31 273.5t96 253t157.5 209t224 142t286.5 52.5q240 0 399 -119l-108 -151q-126 94 -310 94q-76 0 -148.5 -21t-140 -66.5t-121.5 -111.5t-93 -160.5t-54 -207.5q104 88 216 134t255 46q82 0 155.5 -23.5t133 -69.5t94.5 -122t35 -172q0 -148 -79.5 -272 t-219 -195t-307.5 -70q-229 1 -365.5 153t-136.5 404zM342 535q-7 -66 9 -132t52.5 -121.5t100 -91t143.5 -36.5q168 -3 278.5 95.5t110.5 244.5q0 112 -75.5 172.5t-200.5 60.5q-115 0 -225.5 -51t-192.5 -141z" />
<glyph unicode="7" horiz-adv-x="1148" d="M150 0l849 1260h-815l31 180h1028l-31 -174l-843 -1266h-219z" />
<glyph unicode="8" horiz-adv-x="1241" d="M51 340q0 134 92.5 256.5t259.5 175.5q-182 82 -182 268q0 58 20.5 116.5t65.5 113t109 96t157.5 67t204.5 25.5q205 0 320.5 -90.5t115.5 -239.5q0 -112 -74.5 -207t-213.5 -151q98 -35 156.5 -115t58.5 -190q0 -93 -39.5 -179.5t-114 -157.5t-196 -114t-271.5 -43 q-224 0 -346.5 104.5t-122.5 264.5zM260 383q0 -103 72.5 -167t220.5 -64q95 0 170.5 27t120.5 72.5t68.5 100t23.5 113.5q0 101 -77.5 162t-211.5 61q-97 0 -174.5 -29t-122 -75t-67.5 -97.5t-23 -103.5zM422 1044q0 -95 67.5 -143.5t188.5 -48.5q154 0 242 75.5t88 178.5 q0 83 -69.5 130.5t-186.5 47.5q-158 0 -244 -70.5t-86 -169.5z" />
<glyph unicode="9" horiz-adv-x="1228" d="M35 78l90 153q138 -79 317 -79q97 0 181.5 31.5t158 97t129 177.5t84.5 263q-118 -95 -223.5 -136.5t-241.5 -41.5q-89 0 -164 27t-130.5 79t-80.5 136.5t-12 191.5q28 215 196.5 351t399.5 136q271 0 391 -160.5t76 -486.5q-29 -213 -100.5 -375.5t-176 -264 t-234.5 -152t-283 -50.5q-220 0 -377 103zM348 995q-20 -128 44.5 -200t195.5 -72q120 0 244.5 52t185.5 134q13 96 -7.5 170.5t-65 118.5t-102 66t-124.5 22q-89 0 -169 -36.5t-135 -103.5t-67 -151z" />
<glyph unicode=":" horiz-adv-x="649" d="M186 119q10 61 49.5 93t94.5 32q62 0 97.5 -40t23.5 -108q-10 -61 -49.5 -93t-94.5 -32q-63 0 -98 39.5t-23 108.5zM338 975q10 59 50 91t95 32q63 0 97 -39.5t24 -108.5q-10 -60 -50 -91.5t-95 -31.5q-63 0 -98 39.5t-23 108.5z" />
<glyph unicode=";" horiz-adv-x="649" d="M61 -201q112 89 152 201q-37 7 -62.5 34t-25.5 70q0 63 42.5 98.5t100.5 35.5q46 0 74.5 -30.5t28.5 -84.5q0 -86 -63 -188.5t-191 -186.5zM270 938q0 72 46.5 115t109.5 43q49 0 80 -29t31 -80q0 -73 -46 -115.5t-112 -42.5q-48 0 -78.5 28.5t-30.5 80.5z" />
<glyph unicode="&#x3c;" horiz-adv-x="1026" d="M59 551l23 129l840 473l55 -131l-731 -408l588 -415l-103 -121z" />
<glyph unicode="=" horiz-adv-x="1234" d="M106 315l25 129h942l-22 -129h-945zM178 721l23 133h944l-23 -133h-944z" />
<glyph unicode="&#x3e;" horiz-adv-x="1021" d="M72 199l735 415l-588 408l100 133l672 -475l-22 -129l-838 -471z" />
<glyph unicode="?" horiz-adv-x="1069" d="M203 1323q83 59 207 97t254 38q180 0 280 -82t100 -209q0 -71 -25.5 -132t-67 -105.5t-92 -85.5t-104 -81.5t-100 -83.5t-82 -100.5t-47.5 -123.5h-159q13 75 46 140t75 110.5t89.5 86.5t92 77t81 72.5t58.5 83t22 99.5q0 79 -59 122.5t-164 43.5q-194 0 -346 -100z M252 90q0 74 47 120t117 46q52 0 82 -30t30 -83q0 -75 -46 -120.5t-115 -45.5q-53 0 -84 30t-31 83z" />
<glyph unicode="@" horiz-adv-x="1820" d="M76 309q0 224 85 414.5t231 319.5t343 201.5t418 72.5q282 0 445 -147t163 -406q0 -176 -66.5 -324t-188 -236.5t-273.5 -88.5q-158 0 -203 108q-123 -98 -276 -98q-101 0 -168.5 68.5t-67.5 201.5q0 153 71.5 269t193.5 176.5t274 60.5q139 0 266 -53l-131 -418 q-20 -62 -13 -100t29.5 -55t59.5 -17q137 0 232 136.5t95 348.5q0 210 -130 320.5t-363 110.5q-174 0 -329 -58t-271.5 -164t-185 -266.5t-68.5 -353.5q0 -244 139 -361.5t377 -117.5q72 0 175 16t179 39l21 -137q-91 -29 -198.5 -47.5t-190.5 -18.5q-116 0 -214 19 t-184 63.5t-146.5 113t-95 172t-34.5 236.5zM688 424q0 -81 36 -120.5t95 -39.5q115 0 201 96q3 26 12 52l103 331q-1 0 -17 4.5t-47 9.5t-65 5q-140 0 -229 -98.5t-89 -239.5z" />
<glyph unicode="A" horiz-adv-x="1447" d="M-12 0l786 1434h221l289 -1434h-221l-59 340h-623l-178 -340h-215zM467 504h508l-127 725z" />
<glyph unicode="B" horiz-adv-x="1277" d="M57 0l252 1434h449q215 0 319.5 -77t104.5 -222q0 -69 -27.5 -138t-91.5 -134t-156 -99q105 -25 174.5 -101t69.5 -192q0 -99 -36 -183t-105.5 -149t-182 -102t-256.5 -37h-514zM283 168h295q186 0 276 78.5t90 206.5q0 196 -272 196h-303zM395 805h240q87 0 155 25.5 t106.5 66.5t57.5 87.5t19 94.5q0 187 -262 187h-234z" />
<glyph unicode="C" horiz-adv-x="1341" d="M131 565q0 176 44.5 324t122 252.5t182.5 177.5t226 108t252 35q140 0 253.5 -35t183.5 -96l-121 -151q-134 104 -348 104q-90 0 -175 -27t-161 -83.5t-132 -137.5t-89 -196t-33 -252q0 -113 30.5 -198.5t84.5 -137.5q55 -51 125 -76q68 -24 148 -24h7q227 3 412 135 l76 -142q-106 -80 -242.5 -127t-286.5 -47q-120 0 -220 35.5t-176.5 106t-119.5 186.5t-43 266z" />
<glyph unicode="D" horiz-adv-x="1400" d="M57 0l252 1434h434q128 0 234 -36t185.5 -107t124 -184.5t44.5 -260.5q0 -133 -34.5 -257t-104 -231t-167 -187t-230.5 -125.5t-287 -45.5h-451zM285 180h241q119 0 219.5 39t169 103.5t116 150.5t69.5 178t22 187q0 203 -108.5 312.5t-296.5 109.5h-242z" />
<glyph unicode="E" horiz-adv-x="1220" d="M57 0l252 1434h916l-29 -168h-721l-82 -455h635l-29 -170h-634l-82 -467h721l-31 -174h-916z" />
<glyph unicode="F" horiz-adv-x="1079" d="M57 0l252 1432h844l-31 -170h-649l-86 -490h567l-30 -170h-568l-104 -602h-195z" />
<glyph unicode="G" horiz-adv-x="1466" d="M127 561q0 130 32.5 258t100.5 244t162 205t228 141.5t288 52.5q172 0 282 -47t193 -127l-129 -145q-73 67 -157 100t-209 33q-112 0 -208.5 -40t-164 -108t-115.5 -156.5t-71 -185t-23 -194.5q0 -216 101 -325t288 -109q113 0 205.5 44t152.5 111l54 297h-371l29 164 h561l-96 -553q-230 -248 -578 -248q-91 0 -172.5 21t-152 67.5t-121.5 114t-80 166.5t-29 219z" />
<glyph unicode="H" horiz-adv-x="1435" d="M57 0l252 1434h195l-111 -625h746l108 625h195l-252 -1434h-195l113 641h-743l-113 -641h-195z" />
<glyph unicode="I" horiz-adv-x="497" d="M57 0l252 1434h195l-252 -1434h-195z" />
<glyph unicode="J" horiz-adv-x="845" d="M-84 -2l39 170q82 -16 174 -16q76 0 129 12t102 46.5t81 103t48 173.5l168 947h197l-172 -969q-18 -117 -56 -205t-86.5 -142.5t-112.5 -88t-129 -46t-142 -12.5q-164 0 -240 27z" />
<glyph unicode="K" horiz-adv-x="1304" d="M59 0l252 1434h195l-117 -672l721 672h260l-735 -662l530 -772h-250l-426 643l-145 -131l-90 -512h-195z" />
<glyph unicode="L" horiz-adv-x="1071" d="M57 0l252 1434h195l-221 -1260h688l-31 -174h-883z" />
<glyph unicode="M" horiz-adv-x="1748" d="M57 0l252 1434h170l348 -1170l744 1170h184l-252 -1434h-190l180 1018l-659 -1002h-109l-305 1002l-180 -1018h-183z" />
<glyph unicode="N" horiz-adv-x="1468" d="M57 0l252 1434h168l608 -1094l193 1094h197l-252 -1434h-166l-615 1092l-190 -1092h-195z" />
<glyph unicode="O" horiz-adv-x="1599" d="M127 571q0 132 36 261t108 242t171 200t233.5 137.5t285.5 50.5q268 0 423 -156q152 -153 152 -429v-11q-1 -134 -39.5 -264.5t-112 -243.5t-172.5 -200t-231.5 -137t-278.5 -50q-124 0 -228.5 38t-182 111t-121 188.5t-43.5 262.5zM334 584q0 -199 106.5 -312.5 t286.5 -113.5q116 0 216.5 44t169.5 116.5t118.5 165.5t72.5 189.5t23 190.5q0 198 -105.5 305t-289.5 107q-116 0 -216 -43t-169 -113.5t-118 -161t-72 -186t-23 -188.5z" />
<glyph unicode="P" horiz-adv-x="1214" d="M57 0l252 1434h445q219 0 327.5 -100.5t108.5 -274.5q0 -75 -20.5 -147.5t-67 -141t-113.5 -120t-168 -82.5t-223 -31h-252l-94 -537h-195zM377 709h237q97 0 170.5 29t115 77t61.5 103.5t20 115.5q0 119 -61.5 175.5t-206.5 56.5h-238z" />
<glyph unicode="Q" horiz-adv-x="1605" d="M127 571q0 132 36 261t108 242t171 200t233.5 137.5t285.5 50.5q268 0 423 -156q152 -153 152 -429v-11q-2 -182 -70 -352.5t-198.5 -304t-300.5 -193.5l372 -184l-122 -164l-490 303h-25q-124 0 -228.5 38t-182 111t-121 188.5t-43.5 262.5zM334 584 q0 -199 106.5 -312.5t286.5 -113.5q116 0 216.5 44t169.5 116.5t118.5 165.5t72.5 189.5t23 190.5q0 198 -105.5 305t-289.5 107q-116 0 -216 -43t-169 -113.5t-118 -161t-72 -186t-23 -188.5z" />
<glyph unicode="R" horiz-adv-x="1312" d="M57 0l252 1434h494q228 0 339 -97.5t111 -265.5q0 -61 -12 -118t-40.5 -113.5t-71.5 -104t-108 -87.5t-147 -66l259 -582h-215l-234 543h-338l-94 -543h-195zM377 713h280q84 0 152.5 22t111 56.5t71.5 80t40.5 89.5t11.5 88q0 106 -67.5 161.5t-222.5 55.5h-279z" />
<glyph unicode="S" horiz-adv-x="1193" d="M23 109l94 161q182 -108 393 -108q93 0 164 22.5t110.5 60.5t58.5 80t19 87q0 20 -3.5 37.5t-14 33t-20 27.5t-30 26t-35 23t-44.5 23t-49 22.5t-58 25.5t-63 27q-66 30 -107 51.5t-89.5 55.5t-75.5 69t-45.5 85.5t-18.5 111.5q0 85 32.5 160.5t96 136t168 96t237.5 35.5 q270 0 453 -135l-113 -154q-156 111 -346 111q-151 0 -236 -63t-85 -162q0 -29 7.5 -53.5t27 -45.5t36.5 -35.5t52.5 -33t57.5 -28.5t69.5 -30t70.5 -30q183 -83 262.5 -165.5t79.5 -197.5q0 -83 -35 -162.5t-103.5 -147.5t-184.5 -109.5t-262 -41.5q-137 0 -260.5 36 t-210.5 98z" />
<glyph unicode="T" horiz-adv-x="1292" d="M207 1264l31 170h1132l-31 -170h-469l-221 -1264h-194l221 1264h-469z" />
<glyph unicode="U" horiz-adv-x="1402" d="M138 308q-6 35 -5 75q0 62 14 135l162 916h195l-162 -922q-9 -49 -9 -91q0 -105 55 -171q77 -94 247 -94t279.5 93.5t138.5 262.5l161 922h197l-162 -916q-21 -116 -67 -209t-108 -155.5t-139.5 -104t-160 -60t-172.5 -18.5t-166.5 19t-141 59.5t-103.5 104.5t-53 154z " />
<glyph unicode="V" horiz-adv-x="1404" d="M197 1434h217l231 -1229l664 1229h219l-803 -1434h-229z" />
<glyph unicode="W" horiz-adv-x="2048" d="M195 1434h188l147 -1135l572 1135h155l170 -1141l529 1141h213l-703 -1434h-166l-172 1143l-577 -1143h-162z" />
<glyph unicode="X" horiz-adv-x="1337" d="M-66 0l646 741l-365 693h225l269 -555l446 555h246l-617 -697l416 -737h-235l-301 596l-488 -596h-242z" />
<glyph unicode="Y" horiz-adv-x="1265" d="M193 1434h231l248 -676l489 676h228l-648 -863l-100 -571h-203l101 573z" />
<glyph unicode="Z" horiz-adv-x="1339" d="M33 0l24 145l1004 1121h-762l31 168h1007l-22 -136l-1010 -1124h854l-31 -174h-1095z" />
<glyph unicode="[" horiz-adv-x="614" d="M10 -246l344 1884h353l-27 -143h-186l-293 -1595h186l-25 -146h-352z" />
<glyph unicode="\" horiz-adv-x="757" d="M264 1540h162l199 -1628h-164z" />
<glyph unicode="]" horiz-adv-x="602" d="M-35 -246l25 146h188l279 1595h-187l27 143h350l-332 -1884h-350z" />
<glyph unicode="^" horiz-adv-x="1396" d="M201 852l585 692h179l344 -692h-205l-258 524l-440 -524h-205z" />
<glyph unicode="_" horiz-adv-x="1460" d="M111 -162l26 148h1182l-25 -148h-1183z" />
<glyph unicode="`" horiz-adv-x="716" d="M342 1540h244l102 -252h-135z" />
<glyph unicode="a" d="M80 408q0 139 46 265.5t126 220.5t195.5 150t248.5 56q117 0 265 -41h165l-153 -858q-3 -16 -3 -30q0 -52 48 -52q19 0 43 4l-33 -115q-40 -18 -106 -18q-69 0 -103 54q-19 31 -19 79q0 37 11 84q-113 -232 -354 -232q-172 0 -274.5 119.5t-102.5 313.5zM276 428 q0 -128 57.5 -209.5t184.5 -81.5q118 0 207 96t119 269l71 395q-90 41 -217 41q-97 0 -179 -45t-134 -118t-80.5 -163t-28.5 -184z" />
<glyph unicode="b" horiz-adv-x="1146" d="M51 51l254 1487h189l-107 -623q62 91 151.5 138t192.5 47q157 0 255.5 -112.5t98.5 -297.5q0 -100 -24.5 -200t-77 -193t-125.5 -164.5t-178 -114.5t-227 -43q-101 0 -211 20t-191 56zM258 176q90 -33 209 -33q83 0 154 34t118 89t80.5 124t48.5 138.5t15 133.5 q0 121 -58 196.5t-157 75.5q-121 0 -218.5 -96t-125.5 -271z" />
<glyph unicode="c" horiz-adv-x="1075" d="M86 453q0 92 24.5 183.5t76.5 175.5t124.5 148.5t176 103t223.5 38.5q228 0 366 -131l-108 -131q-54 47 -113.5 71.5t-148.5 24.5q-87 0 -159.5 -29t-121 -76.5t-82 -109t-48.5 -126t-15 -128.5q0 -157 79 -243.5t209 -86.5q164 0 312 113l71 -129q-76 -64 -186 -107 t-236 -43q-201 0 -322.5 132t-121.5 350z" />
<glyph unicode="d" d="M86 420q0 139 43.5 262t123.5 216t200.5 147.5t265.5 54.5q118 0 217 -39l86 479h182l-235 -1335q-3 -15 -2 -28q-1 -22 7 -36q12 -22 42 -22q21 0 41 4l-33 -115q-38 -18 -98 -18q-71 0 -104 51q-21 33 -21 85q0 28 6 62q-52 -103 -141.5 -159t-208.5 -56 q-169 0 -270 119t-101 328zM289 446q0 -147 60 -225t161 -78q113 0 208 96.5t126 266.5l65 387q-87 41 -202 41q-124 0 -220.5 -66.5t-147 -177t-50.5 -244.5z" />
<glyph unicode="e" horiz-adv-x="1089" d="M164 766q81 153 231.5 243.5t341.5 90.5q152 0 239 -67q85 -65 85 -176v-5q-1 -95 -59 -170.5t-157 -122.5t-224.5 -71.5t-266.5 -24.5q-57 0 -88 2v-25q0 -303 299 -303q207 0 353 125l73 -131q-98 -80 -205.5 -120t-257.5 -40q-203 1 -325 119q-121 118 -121 332 q0 189 82 344zM289 598l73 -2q146 0 264 25.5t189.5 77t71.5 120.5q0 54 -44 84.5t-122 30.5q-153 0 -270.5 -91.5t-161.5 -244.5z" />
<glyph unicode="f" horiz-adv-x="747" d="M-188 -414l38 156q46 -12 103 -12q137 0 162 190l168 1000h-160l29 155h157l35 189q56 299 367 299q92 0 161 -25l-49 -149q-51 14 -106 14q-159 0 -185 -143l-34 -185h264l-29 -155h-262l-178 -1055q-16 -106 -66 -174.5t-118.5 -96.5t-157.5 -28q-84 0 -139 20z" />
<glyph unicode="g" horiz-adv-x="1157" d="M8 -315l82 149q124 -100 313 -100q92 0 165 25.5t126.5 86.5t69.5 154l39 213q-83 -102 -167 -141t-190 -39q-71 0 -135 26t-114.5 76.5t-80.5 132.5t-30 185q0 125 42.5 241.5t118.5 207.5t192 145.5t253 54.5q165 0 283 -43l155 -12l-182 -1045q-21 -116 -71.5 -202 t-123.5 -136t-159 -74t-186 -24q-127 0 -230.5 33t-169.5 86zM291 471q0 -135 63 -205.5t170 -70.5q48 0 96.5 18t96.5 54.5t85 103t52 153.5l66 369q-88 43 -228 43q-125 0 -218 -65t-138 -169t-45 -231z" />
<glyph unicode="h" horiz-adv-x="1241" d="M66 0l237 1321q7 39 -8.5 57.5t-44.5 18.5q-32 0 -47 -6l28 135q40 16 117 16q135 0 135 -140q0 -34 -8 -75l-90 -506h8q72 135 181.5 207t228.5 72q169 0 238 -88q48 -60 47 -159q0 -45 -9 -97l-106 -584q0 -4 -1 -8.5t-1 -7.5q0 -20 11 -31.5t30 -11.5q37 0 61 8 l-31 -125q-46 -16 -118 -16q-68 0 -106 33.5t-38 97.5q0 26 6 53l105 561q7 40 7 72q0 53 -20 85q-34 52 -124 52q-151 0 -272 -160t-167 -418l-65 -356h-184z" />
<glyph unicode="i" horiz-adv-x="544" d="M106 162l164 911h189l-162 -903q-6 -24 5.5 -39.5t33.5 -15.5q23 0 65 6l-24 -127q-55 -19 -123 -19q-86 0 -126 47q-28 32 -28 87q0 24 6 53zM309 1442q7 60 48 95.5t98 35.5q53 -1 81 -31q23 -24 22 -62q0 -9 -1 -20q-6 -59 -47.5 -94t-99.5 -35q-52 0 -80 29 q-23 24 -22 64q0 9 1 18z" />
<glyph unicode="j" horiz-adv-x="569" d="M-293 -410l41 152q24 -12 100 -12q93 0 146.5 43t71.5 141l204 1159h187l-215 -1210q-26 -150 -133 -223.5t-259 -73.5q-84 0 -143 24zM305 1442q6 60 46.5 95.5t97.5 35.5q52 0 81 -31q24 -25 24 -65q0 -8 -1 -17q-6 -59 -48.5 -94t-101.5 -35q-53 0 -79 30 q-20 24 -20 62q0 9 1 19z" />
<glyph unicode="k" horiz-adv-x="1155" d="M86 0l238 1339q1 7 1 13q0 45 -51 45q-24 0 -51 -8l23 135q70 20 119 20q148 0 148 -132q0 -29 -7 -64l-90 -476q151 228 372 228q133 0 202 -70.5t69 -175.5q0 -236 -371 -379l135 -237q38 -64 61.5 -89.5t53.5 -25.5q22 0 43 9.5t31 21.5l51 -113q-59 -66 -176 -66 q-72 0 -118.5 33t-92.5 117l-158 287l-182 -70l-62 -342h-188zM362 492l230 83q141 52 207.5 113t66.5 125q0 49 -36 83t-97 34q-110 0 -214.5 -109.5t-151.5 -302.5z" />
<glyph unicode="l" horiz-adv-x="550" d="M94 160l215 1181q4 30 -10 45t-41 15q-20 0 -51 -8l24 135q61 20 127 20q148 0 148 -131q0 -26 -6 -57l-213 -1182q-6 -28 6 -42.5t35 -14.5q25 0 49 8l-27 -137q-51 -15 -102 -15q-76 0 -123 46q-35 34 -35 94q0 20 4 43z" />
<glyph unicode="m" horiz-adv-x="1880" d="M98 0l160 889q2 11 2 21q0 57 -57 57q-28 0 -43 -6l24 120q53 17 109 17q73 0 107 -46q25 -35 25 -93q0 -19 -3 -41l-12 -64h6q84 133 178.5 189.5t218.5 56.5q52 0 98 -13.5t84 -42t59 -78.5q18 -42 18 -95q0 -10 -1 -21q133 250 385 250q154 0 229 -98q51 -67 51 -172 q0 -50 -12 -109l-104 -555q-5 -26 6.5 -41.5t36.5 -15.5q21 0 49 4l-26 -121q-39 -17 -119 -17q-81 0 -117 48q-24 32 -24 83q0 26 6 56l100 543q7 39 7 71q0 62 -25 100q-38 58 -130 58q-48 0 -98 -21.5t-99 -65.5t-88.5 -122t-58.5 -180l-100 -545h-184l135 745q4 26 4 49 q1 54 -25 90q-36 50 -122 50q-141 0 -245 -150.5t-149 -408.5l-67 -375h-189z" />
<glyph unicode="n" horiz-adv-x="1261" d="M98 0l162 889q7 40 -8.5 59t-44.5 19q-30 0 -45 -6l24 120q49 17 107 17q130 0 130 -134q0 -21 -3 -46l-25 -125h6q167 307 435 307q161 0 237 -86q55 -62 55 -158q0 -37 -8 -78l-116 -604q-6 -28 5.5 -43.5t37.5 -15.5q17 0 49 4l-29 -119q-35 -18 -117 -18 q-80 0 -116 48q-25 33 -24 86q0 24 5 52l111 569q6 31 6 58q0 53 -25 87q-38 52 -127 52q-146 0 -265.5 -153t-164.5 -406l-67 -375h-185z" />
<glyph unicode="o" horiz-adv-x="1222" d="M84 440q0 127 43 245t120 209.5t194.5 146.5t256.5 55q205 0 331 -122.5t126 -338.5q0 -127 -44 -245.5t-122.5 -210.5t-196.5 -147t-257 -55q-197 0 -324 127t-127 336zM276 461q0 -151 73 -236.5t204 -85.5q91 0 169.5 40.5t129.5 107.5t80 151t29 172q0 156 -73.5 240 t-211.5 84q-120 0 -213.5 -71t-140 -177.5t-46.5 -224.5z" />
<glyph unicode="p" horiz-adv-x="1228" d="M29 -422l231 1311q2 13 2 24q0 54 -59 54q-26 0 -41 -6l24 120q53 17 109 17q133 0 133 -136q0 -23 -4 -51l-10 -65h6q138 252 383 252q169 0 265.5 -113.5t96.5 -318.5q0 -180 -76.5 -338.5t-217.5 -257.5t-314 -99q-155 0 -256 78l-84 -471h-188zM330 209 q37 -38 95 -58t120 -20q122 0 221 72t152 189.5t53 254.5q0 138 -59.5 210.5t-163.5 72.5q-128 0 -228.5 -102t-130.5 -277z" />
<glyph unicode="q" horiz-adv-x="1187" d="M84 438q0 178 77.5 329t220 242t318.5 91q117 0 265 -41h165l-260 -1473h-165l106 621q-60 -120 -141.5 -176t-210.5 -56q-160 0 -267.5 126.5t-107.5 336.5zM281 459q0 -141 66.5 -231.5t178.5 -90.5q117 0 204.5 96t117.5 269l72 395q-90 41 -218 41q-98 0 -179.5 -42 t-133 -110.5t-80 -153t-28.5 -173.5z" />
<glyph unicode="r" horiz-adv-x="827" d="M98 0l158 877q6 40 -9 58.5t-42 18.5q-17 0 -47 -6l28 133q53 17 117 17q75 0 105 -39q20 -26 20 -76q0 -26 -6 -59l-12 -72h8q73 141 152 194.5t188 53.5q62 0 106 -23l-37 -176q-55 19 -112 19q-124 0 -220 -131.5t-128 -319.5l-82 -469h-187z" />
<glyph unicode="s" horiz-adv-x="958" d="M16 90l86 150q50 -48 128 -76.5t153 -28.5q128 0 200 53t72 131q0 22 -10 40.5t-23 30.5t-42 25.5t-49.5 21t-63 21.5t-66.5 23q-126 47 -186.5 104t-60.5 156q0 163 129.5 262t322.5 99q105 0 195 -31t147 -80l-92 -135q-131 90 -274 90q-105 0 -172.5 -48t-67.5 -120 q0 -27 12.5 -49t28 -36t49.5 -29.5t56.5 -23t68.5 -22.5q45 -15 74.5 -26t67.5 -28.5t61.5 -36.5t46 -44.5t33 -58.5t10.5 -72q0 -166 -133.5 -270.5t-351.5 -104.5q-102 0 -197 31t-152 82z" />
<glyph unicode="t" horiz-adv-x="768" d="M102 913l29 160h178l27 154l110 121h99l-47 -275h264l-29 -160h-264l-117 -671q-3 -18 -3 -32q1 -28 13 -44q20 -24 58 -25q66 0 147 33l25 -139q-116 -58 -236 -58q-206 0 -206 168q0 29 6 64l125 704h-179z" />
<glyph unicode="u" horiz-adv-x="1218" d="M134 190q-5 30 -5 64q0 51 10 113l97 524q2 12 2 22q0 54 -58 54q-7 0 -43 -4l23 118q52 19 127 19q145 0 145 -136q0 -32 -8 -71l-96 -528q-7 -37 -6 -68q0 -154 167 -154q43 0 88 16t90.5 51t84 85t69 123.5t45.5 161.5l88 495h189l-164 -915q-4 -27 5.5 -41.5 t29.5 -14.5q55 0 65 2l-32 -112q-33 -17 -117 -17q-124 0 -124 112q0 18 3 38l22 104h-10q-83 -137 -177.5 -196.5t-221.5 -59.5q-77 0 -136 22.5t-99.5 70.5t-52.5 122z" />
<glyph unicode="v" horiz-adv-x="1101" d="M68 963l24 118q49 19 117 19q58 0 87 -30t42 -89q22 -87 71.5 -361t71.5 -436l477 889h195l-612 -1075h-181l-192 893q-8 44 -20 60t-39 16q-9 0 -41 -4z" />
<glyph unicode="w" horiz-adv-x="1691" d="M68 963l24 118q49 19 117 19q57 0 85.5 -30t41.5 -89q25 -111 94 -748l393 840h168l129 -827l422 827h199l-580 -1075h-164l-129 838l-397 -838h-166l-139 893q-6 43 -18.5 59.5t-38.5 16.5q-9 0 -41 -4z" />
<glyph unicode="x" horiz-adv-x="1046" d="M-45 0l2 8l475 557l-162 301q-26 44 -46.5 63t-45.5 19q-23 0 -53 -6l12 129q44 14 103 14q67 0 110 -41.5t92 -136.5l113 -215l307 381h223l-2 -8l-450 -512l205 -367q23 -39 40.5 -56t39.5 -17q25 0 53 8l-8 -125q-47 -19 -107 -19q-63 0 -104.5 39t-85.5 125l-158 283 l-328 -424h-225z" />
<glyph unicode="y" horiz-adv-x="1060" d="M-47 -399l41 141q63 -21 125 -21q132 0 237 211l52 103l-244 854q-13 46 -23.5 61t-36.5 15q-9 0 -41 -4l25 118q59 19 115 19q58 0 87 -30t44 -89l198 -762l420 856h201l-635 -1208q-82 -156 -172 -227.5t-219 -71.5q-98 0 -174 35z" />
<glyph unicode="z" horiz-adv-x="1038" d="M10 0l23 135l715 772h-543l28 166h791l-27 -145l-731 -768h615l-27 -160h-844z" />
<glyph unicode="{" horiz-adv-x="806" d="M242 664l16 124q83 11 147 67.5t82 152.5l45 262q28 156 144 250t287 94l-15 -115q-96 -11 -163 -74t-85 -165l-55 -312q-14 -85 -79 -146t-126 -73l-6 -6q55 -12 101 -79t30 -148l-53 -314q-19 -101 23 -161.5t135 -71.5l-15 -113q-173 0 -257 96t-56 254l47 263 q17 102 -23 154.5t-124 60.5z" />
<glyph unicode="|" horiz-adv-x="466" d="M4 -168l332 1870h127l-332 -1870h-127z" />
<glyph unicode="}" horiz-adv-x="806" d="M43 -164l27 113q97 10 160 71t83 162l60 314q14 81 83.5 148t129.5 79l-4 6q-56 12 -99.5 73.5t-27.5 145.5l57 312q20 103 -24 165.5t-136 73.5l27 115q171 0 252.5 -94t52.5 -250l-49 -262q-18 -96 26 -152.5t125 -67.5l-30 -124q-186 -17 -224 -215l-49 -263 q-28 -158 -147.5 -254t-292.5 -96z" />
<glyph unicode="~" horiz-adv-x="1290" d="M141 516q53 127 136 194.5t178 67.5q71 0 210.5 -42t200.5 -42q45 0 86 26.5t66 65.5h170q-56 -136 -146.5 -199t-191.5 -63q-71 0 -211 40t-207 40q-48 0 -80 -22.5t-63 -65.5h-148z" />
<glyph unicode="&#xa1;" horiz-adv-x="620" d="M25 -381l219 1008h164l-140 -1008h-243zM244 954q11 64 53 96.5t98 32.5q66 0 101.5 -40.5t23.5 -114.5q-12 -62 -53 -95.5t-96 -33.5q-66 0 -102.5 41t-24.5 114z" />
<glyph unicode="&#xa2;" horiz-adv-x="1103" d="M113 641q0 87 22 174t68.5 168t111 145t157 107t200.5 53l35 211h143l-45 -213q186 -17 299 -127l-109 -131q-54 47 -113.5 71.5t-148.5 24.5q-87 0 -159.5 -29t-121 -76.5t-82 -109t-48.5 -126t-15 -128.5q0 -157 79.5 -243t209.5 -86q164 0 311 112l72 -129 q-149 -126 -352 -145l-29 -193h-143l41 193q-176 20 -279.5 148.5t-103.5 328.5z" />
<glyph unicode="&#xa3;" horiz-adv-x="1314" d="M123 121q155 79 184 246l53 297h-131l23 131h131l49 280q34 190 159.5 287.5t295.5 97.5q235 0 375 -117l-123 -153q-122 94 -262 94q-105 0 -167 -56.5t-83 -180.5l-45 -252h424l-25 -131h-422l-47 -263q-18 -95 -53 -150t-97 -95q65 16 138 16q58 0 145 -13.5 t146 -13.5q83 0 190 21l6 -166q-96 -29 -250 -29q-75 0 -171 13.5t-154 13.5q-151 0 -260 -25z" />
<glyph unicode="&#xa4;" horiz-adv-x="1314" d="M51 252l191 160q-49 90 -49 204q0 229 145 377l-125 156l119 102l133 -161q138 75 303 75t272 -84l197 166l84 -98l-197 -166q52 -90 52 -207q0 -227 -140 -373l127 -149l-119 -102l-129 155q-138 -78 -313 -78q-164 0 -274 84l-191 -161zM395 641q0 -112 65.5 -175 t172.5 -63q141 0 240.5 96t99.5 253q0 113 -65 176t-171 63q-144 0 -243 -95t-99 -255z" />
<glyph unicode="&#xa5;" horiz-adv-x="1318" d="M127 344l25 135h401l25 135v2h-404l25 136h319l-299 682h236l254 -650l489 650h217l-534 -682h315l-25 -136h-397l-2 -2l-22 -135h399l-25 -135h-399l-59 -344h-197l61 344h-403z" />
<glyph unicode="&#xa6;" horiz-adv-x="458" d="M53 131l90 508l140 780h127l-95 -530l-135 -758h-127z" />
<glyph unicode="&#xa7;" horiz-adv-x="1036" d="M57 47l78 133q48 -30 123.5 -46.5t151.5 -16.5q122 0 184.5 44t62.5 122q0 32 -16 55t-49.5 37.5t-65.5 23.5t-84.5 21.5t-85.5 23.5q-180 62 -180 220q0 103 64 180t176 108q-67 28 -106.5 82t-39.5 121q0 141 115 224t307 83q179 0 295 -61l-72 -131q-96 41 -239 41 q-117 0 -177.5 -43.5t-60.5 -112.5q0 -27 13 -49t29.5 -35.5t51.5 -27t58 -20t70 -18.5l24 -6q55 -15 94.5 -31t76 -42t55 -64.5t18.5 -89.5q0 -201 -248 -291q162 -53 162 -192t-122.5 -229.5t-320.5 -90.5q-199 0 -342 78zM344 688q0 -67 47 -103t131 -36q106 0 171 51 t65 141q0 65 -47 103.5t-129 38.5q-105 0 -171.5 -54t-66.5 -141z" />
<glyph unicode="&#xa8;" horiz-adv-x="888" d="M309 1362q9 52 41.5 78t77.5 26q50 0 75 -28.5t15 -83.5q-9 -52 -41.5 -78.5t-79.5 -26.5q-48 0 -73 29t-15 84zM664 1362q9 52 41 78t79 26q48 0 73 -28.5t15 -83.5q-9 -52 -40.5 -78.5t-75.5 -26.5q-51 0 -76.5 29t-15.5 84z" />
<glyph unicode="&#xa9;" horiz-adv-x="1687" d="M121 596q0 153 49.5 291t135 241.5t198 179.5t242 115t262.5 39q131 0 245 -44t198 -123t132.5 -196.5t48.5 -258.5q0 -153 -49.5 -291.5t-135 -242t-198 -180t-242 -116t-262.5 -39.5q-176 0 -317.5 75t-224 218.5t-82.5 331.5zM248 612q0 -236 144.5 -378t373.5 -142 q143 0 276.5 53.5t235.5 147t163.5 232t61.5 298.5q0 236 -144 376t-372 140q-114 0 -223.5 -33t-202.5 -97t-163 -151.5t-110 -202.5t-40 -243zM500 653q0 112 38.5 202t102.5 144t141.5 82.5t161.5 28.5q157 0 246 -86l-72 -102q-45 36 -85.5 52.5t-106.5 16.5 q-128 0 -212.5 -84t-84.5 -227q0 -102 59.5 -159.5t155.5 -57.5q112 0 217 74l41 -103q-122 -94 -287 -94q-141 0 -228 81t-87 232z" />
<glyph unicode="&#xaa;" horiz-adv-x="776" d="M-8 791q19 102 100.5 151t194.5 49q69 0 133 -8l10 51q9 58 -17 85.5t-91 27.5q-89 0 -175 -60l-49 93q123 92 267 92q251 0 213 -223l-52 -289q-9 -49 37 -49h21l-27 -99q-25 -10 -74 -10q-43 0 -71.5 20t-34.5 54q-39 -36 -94 -56t-111 -20q-91 0 -143 52.5t-37 138.5z M141 795q-6 -36 15.5 -59t62.5 -23q89 0 164 59l16 107q-92 8 -108 8q-132 0 -150 -92z" />
<glyph unicode="&#xab;" horiz-adv-x="987" d="M53 520l375 383l102 -94l-294 -287l192 -286l-119 -95zM432 520l375 383l100 -94l-293 -287l191 -286l-117 -95z" />
<glyph unicode="&#xac;" horiz-adv-x="1314" d="M172 682l25 137h1022l-91 -512h-143l66 375h-879z" />
<glyph unicode="&#xad;" horiz-adv-x="831" d="M113 535l24 137h604l-24 -137h-604z" />
<glyph unicode="&#xae;" horiz-adv-x="1687" d="M121 596q0 153 49.5 291t135 241.5t198 179.5t242 115t262.5 39q131 0 245 -44t198 -123t132.5 -196.5t48.5 -258.5q0 -153 -49.5 -291.5t-135 -242t-198 -180t-242 -116t-262.5 -39.5q-176 0 -317.5 75t-224 218.5t-82.5 331.5zM248 612q0 -236 144.5 -378t373.5 -142 q143 0 276.5 53.5t235.5 147t163.5 232t61.5 298.5q0 236 -144 376t-372 140q-114 0 -223.5 -33t-202.5 -97t-163 -151.5t-110 -202.5t-40 -243zM567 362l131 736h256q115 0 169.5 -49t54.5 -125q0 -85 -47.5 -145.5t-122.5 -94.5l112 -322h-141l-94 285h-148l-51 -285h-119 zM758 756h129q69 0 113 40.5t44 100.5q0 88 -118 88h-129z" />
<glyph unicode="&#xaf;" horiz-adv-x="987" d="M362 1321l19 113h541l-21 -113h-539z" />
<glyph unicode="&#xb0;" horiz-adv-x="780" d="M207 1124q0 80 30 144t80 103.5t110 60t124 20.5q106 0 177 -59.5t71 -171.5q0 -80 -30.5 -143.5t-80.5 -102t-110.5 -58.5t-124.5 -20q-105 0 -175.5 58t-70.5 169zM362 1147q0 -55 31 -84t84 -29q74 0 122 43.5t48 122.5q0 55 -32.5 84t-88.5 29q-71 0 -117.5 -43.5 t-46.5 -122.5z" />
<glyph unicode="&#xb1;" horiz-adv-x="1241" d="M35 33l22 137h1014l-22 -137h-1014zM176 836l23 135h438l82 461h137l-82 -461h438l-22 -135h-438l-82 -461h-138l82 461h-438z" />
<glyph unicode="&#xb4;" horiz-adv-x="860" d="M371 1208l188 252h242l-295 -252h-135z" />
<glyph unicode="&#xb6;" horiz-adv-x="1050" d="M246 1038q0 83 23.5 151.5t74.5 125t140 88t210 31.5h365l-254 -1434h-141l229 1298h-123l-229 -1298h-142l133 754q-144 18 -215 91.5t-71 192.5z" />
<glyph unicode="&#xb7;" horiz-adv-x="573" d="M268 637q11 65 53.5 97t96.5 32q64 0 102 -41t25 -115q-11 -66 -53.5 -99.5t-98.5 -33.5q-64 0 -101.5 41.5t-23.5 118.5z" />
<glyph unicode="&#xb8;" horiz-adv-x="716" d="M76 -336q164 26 164 111q0 20 -12.5 32.5t-34.5 12.5q-23 0 -41 -10l-62 63l105 141h106l-76 -98h25q58 0 92.5 -34t34.5 -87q0 -84 -73 -148t-210 -75z" />
<glyph unicode="&#xba;" horiz-adv-x="813" d="M31 948q16 84 55 149t92.5 104t114.5 59t125 20q63 0 116 -20t93 -59t56 -104.5t1 -148.5t-54 -149t-92.5 -105.5t-114.5 -59.5t-124 -20q-135 0 -215 85.5t-53 248.5zM186 948q-17 -94 19 -149.5t117 -55.5q78 0 132.5 54.5t71.5 150.5q15 93 -19.5 148t-113.5 55 q-81 0 -135 -54.5t-72 -148.5z" />
<glyph unicode="&#xbb;" horiz-adv-x="985" d="M76 236l293 286l-193 287l123 94l252 -383l-381 -379zM453 236l292 286l-190 287l123 94l248 -383l-377 -379z" />
<glyph unicode="&#xbc;" horiz-adv-x="2103" d="M231 608l25 135h174l90 510l-172 -67l-33 117l283 124h109l-121 -684h174l-23 -135h-506zM543 -258l907 1802h123l-905 -1802h-125zM1294 197l23 122l493 498h132l-89 -495h125l-22 -125h-125l-35 -201h-151l34 201h-385zM1479 322h223l49 282z" />
<glyph unicode="&#xbd;" horiz-adv-x="2103" d="M231 608l25 135h174l90 510l-172 -67l-33 117l283 124h109l-121 -684h174l-23 -135h-506zM543 -258l907 1802h123l-905 -1802h-125zM1303 -6l22 127l266 186q193 136 211 260q9 56 -26 87.5t-101 31.5q-105 0 -213 -74l-53 117q151 100 317 100q130 0 199 -65t55 -166 q-22 -182 -290 -358l-160 -107h391l-25 -139h-593z" />
<glyph unicode="&#xbe;" horiz-adv-x="2103" d="M123 676l84 123q99 -74 213 -74q93 0 145 36t62 95q9 61 -28.5 89t-133.5 28h-92l22 125h76q77 0 126 29.5t58 82.5q6 45 -25 72t-102 27q-103 0 -219 -80l-53 106q144 111 307 111q141 0 208 -57.5t56 -145.5q-6 -64 -55.5 -117.5t-130.5 -76.5q83 -17 122.5 -66.5 t29.5 -126.5q-15 -119 -123 -195.5t-258 -76.5q-175 0 -289 92zM543 -258l907 1802h123l-905 -1802h-125zM1294 197l23 122l493 498h132l-89 -495h125l-22 -125h-125l-35 -201h-151l34 201h-385zM1479 322h223l49 282z" />
<glyph unicode="&#xbf;" horiz-adv-x="1140" d="M197 -74q0 71 25.5 132t67 106t92 86t104 81.5t100 83t82 100.5t47.5 124h159q-13 -75 -46 -140t-75 -110.5t-89.5 -86.5t-92 -77t-81 -73t-58.5 -83.5t-22 -99.5q0 -79 59 -122.5t164 -43.5q193 0 346 101l59 -133q-83 -60 -206.5 -98t-253.5 -38q-180 0 -280.5 82 t-100.5 209zM713 950q0 75 46 120.5t115 45.5q53 0 84 -29.5t31 -82.5q0 -74 -47 -120t-117 -46q-53 0 -82.5 30t-29.5 82z" />
<glyph unicode="&#xc0;" horiz-adv-x="1447" d="M-12 0l786 1434h221l289 -1434h-221l-59 340h-623l-178 -340h-215zM467 504h508l-127 725zM655 1901h244l102 -252h-135z" />
<glyph unicode="&#xc1;" horiz-adv-x="1447" d="M-12 0l786 1434h221l289 -1434h-221l-59 340h-623l-178 -340h-215zM467 504h508l-127 725zM831 1567l189 252h242l-295 -252h-136z" />
<glyph unicode="&#xc2;" horiz-adv-x="1447" d="M-12 0l786 1434h221l289 -1434h-221l-59 340h-623l-178 -340h-215zM467 504h508l-127 725zM612 1589l279 242h108l179 -242h-168l-95 111l-127 -111h-176z" />
<glyph unicode="&#xc3;" horiz-adv-x="1447" d="M-12 0l786 1434h221l289 -1434h-221l-59 340h-623l-178 -340h-215zM467 504h508l-127 725zM602 1647q38 84 94.5 124.5t120.5 40.5q41 0 80.5 -19t72.5 -37.5t58 -18.5q36 0 63.5 24.5t53.5 67.5l92 -51q-34 -81 -89 -127.5t-120 -46.5q-52 0 -117 37.5t-102 37.5 q-40 0 -68 -21.5t-51 -64.5z" />
<glyph unicode="&#xc4;" horiz-adv-x="1447" d="M-12 0l786 1434h221l289 -1434h-221l-59 340h-623l-178 -340h-215zM467 504h508l-127 725zM649 1722q9 52 41.5 78.5t77.5 26.5q49 0 74.5 -29t15.5 -84q-9 -52 -41.5 -78t-79.5 -26q-48 0 -73 28.5t-15 83.5zM1004 1722q9 52 41.5 78.5t78.5 26.5q48 0 73 -29t15 -84 q-9 -52 -40.5 -78t-75.5 -26q-51 0 -76.5 28.5t-15.5 83.5z" />
<glyph unicode="&#xc5;" horiz-adv-x="1447" d="M-12 0l786 1434h221l289 -1434h-221l-59 340h-623l-178 -340h-215zM467 504h508l-127 725zM782 1733q12 71 65 111t122 40t107.5 -40t25.5 -111q-12 -71 -65 -111.5t-122 -40.5t-107.5 40.5t-25.5 111.5zM870 1733q-6 -33 10.5 -53.5t49.5 -20.5q32 0 55 20.5t29 53.5 q6 31 -10.5 52t-49.5 21t-55.5 -20.5t-28.5 -52.5z" />
<glyph unicode="&#xc6;" horiz-adv-x="1894" d="M-20 0l974 1434h928l-31 -174h-626l-80 -447h567l-31 -174h-567l-82 -465h645l-30 -174h-844l51 285h-457l-188 -285h-229zM508 453h375l137 780z" />
<glyph unicode="&#xc7;" horiz-adv-x="1341" d="M131 565q0 176 44.5 324t122 252.5t182.5 177.5t226 108t252 35q140 0 253.5 -35t183.5 -96l-121 -151q-134 104 -348 104q-90 0 -175 -27t-161 -83.5t-132 -137.5t-89 -196t-33 -252q0 -113 30.5 -198.5t84.5 -137t124.5 -76.5t155.5 -24q227 3 412 135l76 -142 q-211 -159 -488 -174l-43 -55h25q59 0 93 -34t34 -87q0 -84 -73 -148t-210 -75l-18 92q89 14 126 42t37 69q0 20 -12.5 32.5t-34.5 12.5q-23 0 -41 -10l-61 63l74 100q-108 10 -197 50t-156.5 111t-105 181t-37.5 250z" />
<glyph unicode="&#xc8;" horiz-adv-x="1220" d="M57 0l252 1434h916l-29 -168h-721l-82 -455h635l-29 -170h-634l-82 -467h721l-31 -174h-916zM526 1901h244l102 -252h-135z" />
<glyph unicode="&#xc9;" horiz-adv-x="1220" d="M57 0l252 1434h916l-29 -168h-721l-82 -455h635l-29 -170h-634l-82 -467h721l-31 -174h-916zM702 1567l189 252h242l-295 -252h-136z" />
<glyph unicode="&#xca;" horiz-adv-x="1220" d="M57 0l252 1434h916l-29 -168h-721l-82 -455h635l-29 -170h-634l-82 -467h721l-31 -174h-916zM483 1589l279 242h108l179 -242h-168l-95 111l-127 -111h-176z" />
<glyph unicode="&#xcb;" horiz-adv-x="1220" d="M57 0l252 1434h916l-29 -168h-721l-82 -455h635l-29 -170h-634l-82 -467h721l-31 -174h-916zM520 1722q9 52 41.5 78.5t77.5 26.5q49 0 74.5 -29t15.5 -84q-9 -52 -41.5 -78t-79.5 -26q-48 0 -73 28.5t-15 83.5zM874 1722q9 52 41.5 78.5t79.5 26.5q48 0 73 -29t15 -84 q-9 -52 -40.5 -78t-75.5 -26q-52 0 -77.5 28.5t-15.5 83.5z" />
<glyph unicode="&#xcc;" horiz-adv-x="497" d="M57 0l252 1434h195l-252 -1434h-195zM180 1901h244l102 -252h-135z" />
<glyph unicode="&#xcd;" horiz-adv-x="497" d="M57 0l252 1434h195l-252 -1434h-195zM356 1567l189 252h241l-294 -252h-136z" />
<glyph unicode="&#xce;" horiz-adv-x="497" d="M57 0l252 1434h195l-252 -1434h-195zM137 1589l279 242h108l178 -242h-167l-95 111l-127 -111h-176z" />
<glyph unicode="&#xcf;" horiz-adv-x="497" d="M57 0l252 1434h195l-252 -1434h-195zM172 1722q9 52 41.5 78.5t77.5 26.5q49 0 74.5 -29t15.5 -84q-9 -52 -41.5 -78t-79.5 -26q-48 0 -73 28.5t-15 83.5zM526 1722q9 52 41.5 78.5t79.5 26.5q48 0 73 -29t15 -84q-9 -51 -41 -77.5t-76 -26.5q-51 0 -76.5 28.5 t-15.5 83.5z" />
<glyph unicode="&#xd0;" horiz-adv-x="1509" d="M94 659l25 150h192l111 625h434q128 0 234 -36t185.5 -107t124 -184.5t44.5 -260.5q0 -133 -34.5 -257t-104 -231t-167 -187t-230.5 -125.5t-287 -45.5h-451l117 659h-193zM397 180h242q119 0 219.5 39t169 103.5t116 150.5t69.5 178t22 187q0 203 -109 312.5t-297 109.5 h-241l-80 -451h235l-26 -150h-236z" />
<glyph unicode="&#xd1;" horiz-adv-x="1468" d="M57 0l252 1434h168l608 -1094l193 1094h197l-252 -1434h-166l-615 1092l-190 -1092h-195zM618 1647q38 84 95 124.5t121 40.5q41 0 80 -19t72 -37.5t58 -18.5q36 0 63.5 24.5t53.5 67.5l92 -51q-34 -81 -89 -127.5t-120 -46.5q-52 0 -117 37.5t-102 37.5q-40 0 -67 -21.5 t-51 -64.5z" />
<glyph unicode="&#xd2;" horiz-adv-x="1599" d="M127 571q0 132 36 261t108 242t171 200t233.5 137.5t285.5 50.5q268 0 423 -156t152 -440q-1 -134 -39.5 -264.5t-112 -243.5t-172.5 -200t-231.5 -137t-278.5 -50q-124 0 -228.5 38t-182 111t-121 188.5t-43.5 262.5zM334 584q0 -199 106.5 -312.5t286.5 -113.5 q116 0 216.5 44t169.5 116.5t118.5 165.5t72.5 189.5t23 190.5q0 198 -105.5 305t-289.5 107q-116 0 -216 -43t-169 -113.5t-118 -161t-72 -186t-23 -188.5zM729 1905h244l102 -252h-135z" />
<glyph unicode="&#xd3;" horiz-adv-x="1599" d="M127 571q0 132 36 261t108 242t171 200t233.5 137.5t285.5 50.5q268 0 423 -156t152 -440q-1 -134 -39.5 -264.5t-112 -243.5t-172.5 -200t-231.5 -137t-278.5 -50q-124 0 -228.5 38t-182 111t-121 188.5t-43.5 262.5zM334 584q0 -199 106.5 -312.5t286.5 -113.5 q116 0 216.5 44t169.5 116.5t118.5 165.5t72.5 189.5t23 190.5q0 198 -105.5 305t-289.5 107q-116 0 -216 -43t-169 -113.5t-118 -161t-72 -186t-23 -188.5zM905 1571l189 252h241l-295 -252h-135z" />
<glyph unicode="&#xd4;" horiz-adv-x="1599" d="M127 571q0 132 36 261t108 242t171 200t233.5 137.5t285.5 50.5q268 0 423 -156t152 -440q-1 -134 -39.5 -264.5t-112 -243.5t-172.5 -200t-231.5 -137t-278.5 -50q-124 0 -228.5 38t-182 111t-121 188.5t-43.5 262.5zM334 584q0 -199 106.5 -312.5t286.5 -113.5 q116 0 216.5 44t169.5 116.5t118.5 165.5t72.5 189.5t23 190.5q0 198 -105.5 305t-289.5 107q-116 0 -216 -43t-169 -113.5t-118 -161t-72 -186t-23 -188.5zM686 1593l279 242h108l178 -242h-168l-94 111l-127 -111h-176z" />
<glyph unicode="&#xd5;" horiz-adv-x="1599" d="M127 571q0 132 36 261t108 242t171 200t233.5 137.5t285.5 50.5q268 0 423 -156t152 -440q-1 -134 -39.5 -264.5t-112 -243.5t-172.5 -200t-231.5 -137t-278.5 -50q-124 0 -228.5 38t-182 111t-121 188.5t-43.5 262.5zM334 584q0 -199 106.5 -312.5t286.5 -113.5 q116 0 216.5 44t169.5 116.5t118.5 165.5t72.5 189.5t23 190.5q0 198 -105.5 305t-289.5 107q-116 0 -216 -43t-169 -113.5t-118 -161t-72 -186t-23 -188.5zM678 1651q38 84 94.5 125t120.5 41q41 0 80.5 -19t72.5 -38t58 -19q36 0 63.5 24.5t53.5 67.5l92 -51 q-34 -81 -89 -127.5t-120 -46.5q-52 0 -117 37.5t-102 37.5q-40 0 -68 -21.5t-51 -64.5z" />
<glyph unicode="&#xd6;" horiz-adv-x="1599" d="M127 571q0 132 36 261t108 242t171 200t233.5 137.5t285.5 50.5q268 0 423 -156t152 -440q-1 -134 -39.5 -264.5t-112 -243.5t-172.5 -200t-231.5 -137t-278.5 -50q-124 0 -228.5 38t-182 111t-121 188.5t-43.5 262.5zM334 584q0 -199 106.5 -312.5t286.5 -113.5 q116 0 216.5 44t169.5 116.5t118.5 165.5t72.5 189.5t23 190.5q0 198 -105.5 305t-289.5 107q-116 0 -216 -43t-169 -113.5t-118 -161t-72 -186t-23 -188.5zM723 1726q9 52 41.5 78.5t77.5 26.5q49 0 74.5 -29t15.5 -84q-9 -52 -41.5 -78t-79.5 -26q-48 0 -73 28.5t-15 83.5 zM1077 1726q9 52 41.5 78.5t79.5 26.5q48 0 73 -29t15 -84q-9 -51 -41 -77.5t-76 -26.5q-51 0 -76.5 28.5t-15.5 83.5z" />
<glyph unicode="&#xd7;" horiz-adv-x="1347" d="M82 113l485 426l-338 428l127 106l336 -426l486 426l86 -110l-486 -424l336 -426l-123 -107l-336 424l-487 -422z" />
<glyph unicode="&#xd8;" horiz-adv-x="1599" d="M115 -154l192 260q-180 156 -180 465q0 132 36 261t108 242t171 200t233.5 137.5t285.5 50.5q177 0 305 -67l157 213l115 -62l-168 -225q169 -158 166 -455q-1 -134 -39.5 -264.5t-112 -243.5t-172.5 -200t-231.5 -137t-278.5 -50q-164 0 -286 64l-191 -256zM334 584 q0 -191 100 -308l709 953q-89 47 -211 47q-116 0 -216 -43t-169 -113.5t-118 -161t-72 -186t-23 -188.5zM537 199q84 -41 190 -41q116 0 216.5 44t169.5 116.5t118.5 165.5t72.5 189.5t23 190.5q0 177 -86 283z" />
<glyph unicode="&#xd9;" horiz-adv-x="1402" d="M138.5 308.5q-14.5 90.5 8.5 209.5l162 916h195l-162 -922q-31 -169 46 -262.5t247 -93.5t279.5 93.5t138.5 262.5l161 922h197l-162 -916q-21 -116 -67 -209t-108 -155.5t-139.5 -104t-160 -60t-172.5 -18.5t-166.5 19t-141 59.5t-103 104.5t-53 154.5zM635 1901h244 l102 -252h-135z" />
<glyph unicode="&#xda;" horiz-adv-x="1402" d="M138.5 308.5q-14.5 90.5 8.5 209.5l162 916h195l-162 -922q-31 -169 46 -262.5t247 -93.5t279.5 93.5t138.5 262.5l161 922h197l-162 -916q-21 -116 -67 -209t-108 -155.5t-139.5 -104t-160 -60t-172.5 -18.5t-166.5 19t-141 59.5t-103 104.5t-53 154.5zM811 1567 l188 252h242l-295 -252h-135z" />
<glyph unicode="&#xdb;" horiz-adv-x="1402" d="M138.5 308.5q-14.5 90.5 8.5 209.5l162 916h195l-162 -922q-31 -169 46 -262.5t247 -93.5t279.5 93.5t138.5 262.5l161 922h197l-162 -916q-21 -116 -67 -209t-108 -155.5t-139.5 -104t-160 -60t-172.5 -18.5t-166.5 19t-141 59.5t-103 104.5t-53 154.5zM592 1589 l278 242h109l178 -242h-168l-94 111l-127 -111h-176z" />
<glyph unicode="&#xdc;" horiz-adv-x="1402" d="M138.5 308.5q-14.5 90.5 8.5 209.5l162 916h195l-162 -922q-31 -169 46 -262.5t247 -93.5t279.5 93.5t138.5 262.5l161 922h197l-162 -916q-21 -116 -67 -209t-108 -155.5t-139.5 -104t-160 -60t-172.5 -18.5t-166.5 19t-141 59.5t-103 104.5t-53 154.5zM629 1722 q9 52 41.5 78.5t77.5 26.5q49 0 74.5 -29t15.5 -84q-9 -52 -41.5 -78t-79.5 -26q-48 0 -73 28.5t-15 83.5zM983 1722q9 52 41.5 78.5t79.5 26.5q48 0 73 -29t15 -84q-9 -51 -41 -77.5t-76 -26.5q-51 0 -76.5 28.5t-15.5 83.5z" />
<glyph unicode="&#xdd;" horiz-adv-x="1265" d="M193 1434h231l248 -676l489 676h228l-648 -863l-100 -571h-203l101 573zM731 1571l189 252h241l-295 -252h-135z" />
<glyph unicode="&#xde;" horiz-adv-x="1193" d="M57 0l252 1434h199l-43 -244h248q206 0 310.5 -99.5t104.5 -267.5q0 -73 -20.5 -145t-66 -140t-110.5 -119.5t-162 -82.5t-212 -31h-250l-51 -305h-199zM340 475h223q91 0 162 28.5t111.5 76.5t61 104t20.5 117q0 215 -261 215h-225z" />
<glyph unicode="&#xdf;" horiz-adv-x="1124" d="M49 0l199 1133q30 165 140.5 255.5t297.5 90.5q161 0 250.5 -68t89.5 -190q0 -50 -15 -96t-34.5 -78t-56 -69t-61 -56.5t-69.5 -53.5t-63 -49q-25 -19 -25 -41q0 -14 7 -23t26 -20q5 -3 41 -24t47 -28.5t43 -30.5t45.5 -38.5t36.5 -43.5t33 -54t18.5 -62t8.5 -75 q0 -80 -26 -151.5t-76 -128.5t-131.5 -90.5t-184.5 -33.5q-75 0 -126 14.5t-102 43.5l52 151q82 -53 176 -53q103 0 164 62t61 176q0 42 -11 77t-27.5 58t-43 44.5t-48.5 34.5t-54 31.5t-51 30.5q-33 20 -46.5 43t-13.5 57q0 72 51 113q24 20 69 53t71.5 55t56 53.5 t43.5 68.5t14 81q0 66 -44.5 104t-118.5 38q-79 0 -143.5 -46t-80.5 -139l-198 -1126h-191z" />
<glyph unicode="&#xe0;" d="M80 408q0 139 46 265.5t126 220.5t195.5 150t248.5 56q117 0 265 -41h165l-153 -858q-15 -82 45 -82q19 0 43 4l-33 -115q-40 -18 -106 -18q-69 0 -103 54.5t-8 162.5q-113 -232 -354 -232q-172 0 -274.5 119.5t-102.5 313.5zM276 428q0 -128 57.5 -209.5t184.5 -81.5 q118 0 207 96t119 269l71 395q-90 41 -217 41q-97 0 -179 -45t-134 -118t-80.5 -163t-28.5 -184zM475 1542h244l102 -252h-135z" />
<glyph unicode="&#xe1;" d="M80 408q0 139 46 265.5t126 220.5t195.5 150t248.5 56q117 0 265 -41h165l-153 -858q-15 -82 45 -82q19 0 43 4l-33 -115q-40 -18 -106 -18q-69 0 -103 54.5t-8 162.5q-113 -232 -354 -232q-172 0 -274.5 119.5t-102.5 313.5zM276 428q0 -128 57.5 -209.5t184.5 -81.5 q118 0 207 96t119 269l71 395q-90 41 -217 41q-97 0 -179 -45t-134 -118t-80.5 -163t-28.5 -184zM651 1208l189 252h241l-295 -252h-135z" />
<glyph unicode="&#xe2;" d="M80 408q0 139 46 265.5t126 220.5t195.5 150t248.5 56q117 0 265 -41h165l-153 -858q-15 -82 45 -82q19 0 43 4l-33 -115q-40 -18 -106 -18q-69 0 -103 54.5t-8 162.5q-113 -232 -354 -232q-172 0 -274.5 119.5t-102.5 313.5zM276 428q0 -128 57.5 -209.5t184.5 -81.5 q118 0 207 96t119 269l71 395q-90 41 -217 41q-97 0 -179 -45t-134 -118t-80.5 -163t-28.5 -184zM432 1231l279 242h108l178 -242h-168l-94 110l-127 -110h-176z" />
<glyph unicode="&#xe3;" d="M80 408q0 139 46 265.5t126 220.5t195.5 150t248.5 56q117 0 265 -41h165l-153 -858q-15 -82 45 -82q19 0 43 4l-33 -115q-40 -18 -106 -18q-69 0 -103 54.5t-8 162.5q-113 -232 -354 -232q-172 0 -274.5 119.5t-102.5 313.5zM276 428q0 -128 57.5 -209.5t184.5 -81.5 q118 0 207 96t119 269l71 395q-90 41 -217 41q-97 0 -179 -45t-134 -118t-80.5 -163t-28.5 -184zM424 1288q38 84 94.5 125t120.5 41q41 0 80.5 -19t72.5 -38t58 -19q36 0 63.5 24.5t53.5 67.5l92 -51q-34 -81 -89 -127.5t-120 -46.5q-52 0 -117 38t-102 38q-40 0 -68 -21.5 t-51 -64.5z" />
<glyph unicode="&#xe4;" d="M80 408q0 139 46 265.5t126 220.5t195.5 150t248.5 56q117 0 265 -41h165l-153 -858q-15 -82 45 -82q19 0 43 4l-33 -115q-40 -18 -106 -18q-69 0 -103 54.5t-8 162.5q-113 -232 -354 -232q-172 0 -274.5 119.5t-102.5 313.5zM276 428q0 -128 57.5 -209.5t184.5 -81.5 q118 0 207 96t119 269l71 395q-90 41 -217 41q-97 0 -179 -45t-134 -118t-80.5 -163t-28.5 -184zM469 1364q9 52 41.5 78t77.5 26q50 0 75 -28.5t15 -83.5q-9 -52 -41.5 -78.5t-79.5 -26.5q-48 0 -73 29t-15 84zM823 1364q9 52 41.5 78t79.5 26q48 0 73 -28.5t15 -83.5 q-9 -52 -41 -78.5t-76 -26.5q-51 0 -76.5 29t-15.5 84z" />
<glyph unicode="&#xe5;" d="M80 408q0 139 46 265.5t126 220.5t195.5 150t248.5 56q117 0 265 -41h165l-153 -858q-15 -82 45 -82q19 0 43 4l-33 -115q-40 -18 -106 -18q-69 0 -103 54.5t-8 162.5q-113 -232 -354 -232q-172 0 -274.5 119.5t-102.5 313.5zM276 428q0 -128 57.5 -209.5t184.5 -81.5 q118 0 207 96t119 269l71 395q-90 41 -217 41q-97 0 -179 -45t-134 -118t-80.5 -163t-28.5 -184zM602 1374q12 71 64.5 111.5t121.5 40.5t108 -40.5t26 -111.5q-12 -71 -65 -111t-122 -40t-107.5 40t-25.5 111zM690 1374q-6 -33 10.5 -53.5t49.5 -20.5q32 0 55 20.5t29 53.5 q6 31 -10.5 52.5t-49.5 21.5t-55.5 -21t-28.5 -53z" />
<glyph unicode="&#xe6;" horiz-adv-x="1814" d="M45 246q0 178 139.5 281.5t386.5 103.5q142 0 236 -23l16 84q44 250 -213 250q-75 0 -161 -28t-158 -76l-60 123q205 141 433 141q154 0 226.5 -54t94.5 -180q174 232 479 232q148 0 234 -68t86 -186q-1 -95 -58.5 -167.5t-144.5 -113t-197 -64.5t-206 -29.5t-181 -0.5 q-3 -52 2.5 -96.5t24 -91t50 -79t86.5 -53t128 -20.5q200 0 354 125l66 -129q-94 -77 -199.5 -116.5t-253.5 -39.5q-150 0 -257 69.5t-144 211.5q-74 -144 -201.5 -212.5t-290.5 -68.5q-143 0 -230 71t-87 204zM231 285q0 -87 54 -124.5t135 -37.5q133 0 239.5 102.5 t131.5 245.5q-138 25 -230 25q-160 0 -245 -58t-85 -153zM1012 598q87 -3 178.5 5t191 29t163 69.5t63.5 117.5q0 54 -43.5 84.5t-122.5 30.5q-152 0 -269 -91t-161 -245z" />
<glyph unicode="&#xe7;" horiz-adv-x="1075" d="M86 453q0 92 24.5 183.5t76.5 175.5t124.5 148.5t176 103t223.5 38.5q228 0 366 -131l-108 -131q-54 47 -113.5 71.5t-148.5 24.5q-87 0 -159.5 -29t-121 -76.5t-82 -109t-48.5 -126t-15 -128.5q0 -157 79 -243.5t209 -86.5q164 0 312 113l71 -129q-68 -58 -166.5 -99.5 t-212.5 -48.5l-43 -57h25q59 0 93 -34t34 -87q0 -84 -73 -148t-210 -75l-18 92q164 26 164 111q0 20 -12.5 32.5t-34.5 12.5q-24 0 -41 -10l-62 63l76 102q-177 20 -281 148.5t-104 329.5z" />
<glyph unicode="&#xe8;" horiz-adv-x="1089" d="M82 426q1 187 82 340t231.5 243.5t341.5 90.5q152 0 239 -67t85 -181q-1 -95 -59 -170.5t-157 -122.5t-224.5 -71.5t-266.5 -24.5q-57 0 -88 2v-25q0 -303 299 -303q207 0 353 125l73 -131q-98 -80 -205.5 -120t-257.5 -40q-203 0 -325 118.5t-121 336.5zM289 598l73 -2 q146 0 264 25.5t189.5 77t71.5 120.5q0 54 -44 84.5t-122 30.5q-153 0 -270.5 -91.5t-161.5 -244.5zM479 1542h244l102 -252h-135z" />
<glyph unicode="&#xe9;" horiz-adv-x="1089" d="M82 426q1 187 82 340t231.5 243.5t341.5 90.5q152 0 239 -67t85 -181q-1 -95 -59 -170.5t-157 -122.5t-224.5 -71.5t-266.5 -24.5q-57 0 -88 2v-25q0 -303 299 -303q207 0 353 125l73 -131q-98 -80 -205.5 -120t-257.5 -40q-203 0 -325 118.5t-121 336.5zM289 596h73 q146 0 264 25.5t189.5 77t71.5 120.5q0 54 -44 84.5t-122 30.5q-153 0 -270.5 -91.5t-161.5 -246.5zM655 1208l189 252h241l-294 -252h-136z" />
<glyph unicode="&#xea;" horiz-adv-x="1089" d="M82 426q1 187 82 340t231.5 243.5t341.5 90.5q152 0 239 -67t85 -181q-1 -95 -59 -170.5t-157 -122.5t-224.5 -71.5t-266.5 -24.5q-57 0 -88 2v-25q0 -303 299 -303q207 0 353 125l73 -131q-98 -80 -205.5 -120t-257.5 -40q-203 0 -325 118.5t-121 336.5zM289 596h73 q146 0 264 25.5t189.5 77t71.5 120.5q0 54 -44 84.5t-122 30.5q-153 0 -270.5 -91.5t-161.5 -246.5zM436 1231l279 242h108l178 -242h-167l-95 110l-127 -110h-176z" />
<glyph unicode="&#xeb;" horiz-adv-x="1089" d="M82 426q1 187 82 340t231.5 243.5t341.5 90.5q152 0 239 -67t85 -181q-1 -95 -59 -170.5t-157 -122.5t-224.5 -71.5t-266.5 -24.5q-57 0 -88 2v-25q0 -303 299 -303q207 0 353 125l73 -131q-98 -80 -205.5 -120t-257.5 -40q-203 0 -325 118.5t-121 336.5zM289 596h73 q146 0 264 25.5t189.5 77t71.5 120.5q0 54 -44 84.5t-122 30.5q-153 0 -270.5 -91.5t-161.5 -246.5zM471 1364q9 52 41.5 78t77.5 26q50 0 75 -28.5t15 -83.5q-9 -52 -41.5 -78.5t-79.5 -26.5q-48 0 -73 29t-15 84zM825 1364q9 52 41.5 78t79.5 26q48 0 73 -28.5t15 -83.5 q-9 -52 -40.5 -78.5t-75.5 -26.5q-51 0 -77 29t-16 84z" />
<glyph unicode="&#xec;" horiz-adv-x="542" d="M82 160l162 913h190l-162 -895q-9 -57 41 -57q43 0 64 6l-25 -135q-53 -17 -131 -17q-68 0 -111.5 47.5t-27.5 137.5zM104 1540h244l103 -252h-136z" />
<glyph unicode="&#xed;" horiz-adv-x="542" d="M82 160l162 913h190l-162 -895q-9 -57 41 -57q43 0 64 6l-25 -135q-53 -17 -131 -17q-68 0 -111.5 47.5t-27.5 137.5zM281 1206l188 252h242l-295 -252h-135z" />
<glyph unicode="&#xee;" horiz-adv-x="542" d="M61 1229l279 241h109l178 -241h-168l-94 110l-127 -110h-177zM82 160l162 913h190l-162 -895q-9 -57 41 -57q43 0 64 6l-25 -135q-53 -17 -131 -17q-68 0 -111.5 47.5t-27.5 137.5z" />
<glyph unicode="&#xef;" horiz-adv-x="542" d="M82 160l162 913h190l-162 -895q-9 -57 41 -57q43 0 64 6l-25 -135q-53 -17 -131 -17q-68 0 -111.5 47.5t-27.5 137.5zM98 1362q9 52 41.5 78t77.5 26q50 0 75 -28.5t15 -83.5q-9 -52 -41.5 -78.5t-79.5 -26.5q-48 0 -73 29t-15 84zM453 1362q9 52 41 78t79 26 q48 0 73.5 -28.5t15.5 -83.5q-9 -52 -41 -78.5t-76 -26.5q-51 0 -76.5 29t-15.5 84z" />
<glyph unicode="&#xf0;" horiz-adv-x="1228" d="M104 518q38 266 205.5 425t392.5 159q197 0 287 -150q-39 185 -151 322l-275 -121l-35 92l238 105q-68 62 -141 106l112 109q101 -63 187 -146l211 92l32 -92l-176 -78q225 -278 164 -690q-15 -117 -49.5 -218.5t-89 -187t-126 -146t-165.5 -94.5t-203 -34 q-104 0 -188 34t-143 100.5t-82.5 172t-4.5 240.5zM299 526q-29 -178 40 -281.5t216 -103.5q151 0 257 113.5t136 298.5q28 173 -41.5 276t-210.5 103q-153 0 -261 -110.5t-136 -295.5z" />
<glyph unicode="&#xf1;" horiz-adv-x="1261" d="M98 0l162 889q7 40 -8.5 59t-44.5 19q-30 0 -45 -6l24 120q49 17 107 17q151 0 127 -180l-25 -125h6q167 307 435 307q161 0 237 -85.5t47 -236.5l-116 -604q-6 -28 5.5 -43.5t37.5 -15.5q17 0 49 4l-29 -119q-35 -18 -117 -18q-79 0 -115.5 48.5t-19.5 137.5l111 569 q19 94 -19 145.5t-127 51.5q-146 0 -265.5 -153t-164.5 -406l-67 -375h-185zM467 1288q38 84 94.5 125t120.5 41q41 0 80.5 -19t72.5 -38t58 -19q36 0 63.5 24.5t53.5 67.5l92 -51q-34 -81 -89 -127.5t-120 -46.5q-41 0 -79.5 19t-73 38t-66.5 19q-40 0 -68 -21.5t-51 -64.5 z" />
<glyph unicode="&#xf2;" horiz-adv-x="1222" d="M84 440q0 127 43 245t120 209.5t194.5 146.5t256.5 55q205 0 331 -122.5t126 -338.5q0 -127 -44 -245.5t-122.5 -210.5t-196.5 -147t-257 -55q-197 0 -324 127t-127 336zM276 461q0 -151 73 -236.5t204 -85.5q91 0 169.5 40.5t129.5 107.5t80 151t29 172q0 156 -73.5 240 t-211.5 84q-120 0 -213.5 -71t-140 -177.5t-46.5 -224.5zM483 1540h244l102 -252h-135z" />
<glyph unicode="&#xf3;" horiz-adv-x="1222" d="M84 440q0 127 43 245t120 209.5t194.5 146.5t256.5 55q205 0 331 -122.5t126 -338.5q0 -127 -44 -245.5t-122.5 -210.5t-196.5 -147t-257 -55q-197 0 -324 127t-127 336zM276 461q0 -151 73 -236.5t204 -85.5q91 0 169.5 40.5t129.5 107.5t80 151t29 172q0 156 -73.5 240 t-211.5 84q-120 0 -213.5 -71t-140 -177.5t-46.5 -224.5zM659 1206l189 252h242l-295 -252h-136z" />
<glyph unicode="&#xf4;" horiz-adv-x="1222" d="M84 440q0 127 43 245t120 209.5t194.5 146.5t256.5 55q205 0 331 -122.5t126 -338.5q0 -127 -44 -245.5t-122.5 -210.5t-196.5 -147t-257 -55q-197 0 -324 127t-127 336zM276 461q0 -151 73 -236.5t204 -85.5q91 0 169.5 40.5t129.5 107.5t80 151t29 172q0 156 -73.5 240 t-211.5 84q-120 0 -213.5 -71t-140 -177.5t-46.5 -224.5zM440 1229l279 241h108l179 -241h-168l-95 110l-127 -110h-176z" />
<glyph unicode="&#xf5;" horiz-adv-x="1222" d="M84 440q0 127 43 245t120 209.5t194.5 146.5t256.5 55q205 0 331 -122.5t126 -338.5q0 -127 -44 -245.5t-122.5 -210.5t-196.5 -147t-257 -55q-197 0 -324 127t-127 336zM276 461q0 -151 73 -236.5t204 -85.5q91 0 169.5 40.5t129.5 107.5t80 151t29 172q0 156 -73.5 240 t-211.5 84q-120 0 -213.5 -71t-140 -177.5t-46.5 -224.5zM430 1286q38 84 94.5 125t120.5 41q41 0 80.5 -19t72.5 -38t58 -19q36 0 63.5 24.5t53.5 67.5l92 -51q-34 -81 -89 -127.5t-120 -46.5q-52 0 -117 38t-102 38q-40 0 -68 -21.5t-51 -64.5z" />
<glyph unicode="&#xf6;" horiz-adv-x="1222" d="M84 440q0 127 43 245t120 209.5t194.5 146.5t256.5 55q205 0 331 -122.5t126 -338.5q0 -127 -44 -245.5t-122.5 -210.5t-196.5 -147t-257 -55q-197 0 -324 127t-127 336zM276 461q0 -151 73 -236.5t204 -85.5q91 0 169.5 40.5t129.5 107.5t80 151t29 172q0 156 -73.5 240 t-211.5 84q-120 0 -213.5 -71t-140 -177.5t-46.5 -224.5zM475 1362q9 52 41.5 78t77.5 26q50 0 75 -28.5t15 -83.5q-9 -52 -41.5 -78.5t-79.5 -26.5q-48 0 -73 29t-15 84zM829 1362q9 52 41.5 78t79.5 26q48 0 73 -28.5t15 -83.5q-9 -52 -40.5 -78.5t-75.5 -26.5 q-51 0 -77 29t-16 84z" />
<glyph unicode="&#xf7;" horiz-adv-x="1284" d="M133 469l25 137h993l-25 -137h-993zM434 94q0 73 46 112.5t106 39.5q46 0 77 -27t31 -78q0 -74 -45.5 -113.5t-105.5 -39.5q-46 0 -77.5 27t-31.5 79zM584 938q0 73 45.5 113.5t105.5 40.5q46 0 77.5 -27.5t31.5 -79.5q0 -73 -46 -112t-108 -39q-45 0 -75.5 26.5 t-30.5 77.5z" />
<glyph unicode="&#xf8;" horiz-adv-x="1253" d="M84 440q0 127 43 245t120 209.5t194.5 146.5t256.5 55q130 0 228 -49l143 213l96 -56l-153 -215q143 -124 143 -354q0 -127 -44 -245.5t-122.5 -210.5t-196.5 -147t-257 -55q-109 0 -199 41l-146 -208l-98 59l152 207q-76 61 -118 154t-42 210zM276 461q0 -155 74 -238 l473 678q-68 33 -147 33q-120 0 -213.5 -71t-140 -177.5t-46.5 -224.5zM434 162q58 -23 119 -23q91 0 169.5 40.5t129.5 107.5t80 151t29 172q0 139 -60 221z" />
<glyph unicode="&#xf9;" horiz-adv-x="1218" d="M133.5 189.5q-11.5 74.5 5.5 177.5l97 524q13 76 -56 76q-7 0 -43 -4l23 118q52 19 127 19q179 0 137 -207l-96 -528q-40 -222 161 -222q43 0 88 16t90.5 51t84 85t69 123.5t45.5 161.5l88 495h189l-164 -915q-4 -27 5.5 -41.5t29.5 -14.5q55 0 65 2l-32 -112 q-33 -17 -117 -17q-144 0 -121 150l22 104h-10q-83 -137 -177.5 -196.5t-221.5 -59.5q-77 0 -136 22.5t-100 70t-52.5 122zM479 1540h244l102 -252h-135z" />
<glyph unicode="&#xfa;" horiz-adv-x="1218" d="M133.5 189.5q-11.5 74.5 5.5 177.5l97 524q13 76 -56 76q-7 0 -43 -4l23 118q52 19 127 19q179 0 137 -207l-96 -528q-40 -222 161 -222q43 0 88 16t90.5 51t84 85t69 123.5t45.5 161.5l88 495h189l-164 -915q-4 -27 5.5 -41.5t29.5 -14.5q55 0 65 2l-32 -112 q-33 -17 -117 -17q-144 0 -121 150l22 104h-10q-83 -137 -177.5 -196.5t-221.5 -59.5q-77 0 -136 22.5t-100 70t-52.5 122zM655 1206l189 252h241l-294 -252h-136z" />
<glyph unicode="&#xfb;" horiz-adv-x="1218" d="M133.5 189.5q-11.5 74.5 5.5 177.5l97 524q13 76 -56 76q-7 0 -43 -4l23 118q52 19 127 19q179 0 137 -207l-96 -528q-40 -222 161 -222q43 0 88 16t90.5 51t84 85t69 123.5t45.5 161.5l88 495h189l-164 -915q-4 -27 5.5 -41.5t29.5 -14.5q55 0 65 2l-32 -112 q-33 -17 -117 -17q-144 0 -121 150l22 104h-10q-83 -137 -177.5 -196.5t-221.5 -59.5q-77 0 -136 22.5t-100 70t-52.5 122zM436 1229l279 241h108l178 -241h-167l-95 110l-127 -110h-176z" />
<glyph unicode="&#xfc;" horiz-adv-x="1218" d="M133.5 189.5q-11.5 74.5 5.5 177.5l97 524q13 76 -56 76q-7 0 -43 -4l23 118q52 19 127 19q179 0 137 -207l-96 -528q-40 -222 161 -222q43 0 88 16t90.5 51t84 85t69 123.5t45.5 161.5l88 495h189l-164 -915q-4 -27 5.5 -41.5t29.5 -14.5q55 0 65 2l-32 -112 q-33 -17 -117 -17q-144 0 -121 150l22 104h-10q-83 -137 -177.5 -196.5t-221.5 -59.5q-77 0 -136 22.5t-100 70t-52.5 122zM471 1362q9 52 41.5 78t77.5 26q50 0 75 -28.5t15 -83.5q-9 -52 -41.5 -78.5t-79.5 -26.5q-48 0 -73 29t-15 84zM825 1362q9 52 41.5 78t79.5 26 q48 0 73 -28.5t15 -83.5q-9 -52 -40.5 -78.5t-75.5 -26.5q-51 0 -77 29t-16 84z" />
<glyph unicode="&#xfd;" horiz-adv-x="1060" d="M-47 -399l41 141q63 -21 125 -21q132 0 237 211l52 103l-244 854q-13 46 -23.5 61t-36.5 15q-9 0 -41 -4l25 118q59 19 115 19q58 0 87 -30t44 -89l198 -762l420 856h201l-635 -1208q-82 -156 -172 -227.5t-219 -71.5q-98 0 -174 35zM608 1208l189 252h241l-295 -252 h-135z" />
<glyph unicode="&#xfe;" d="M-18 -422l348 1962h178l-117 -647h6q119 205 371 205q161 0 254.5 -115t93.5 -324q0 -131 -46.5 -256.5t-125.5 -220.5t-190 -153t-232 -58q-172 0 -268 78l-84 -471h-188zM281 209q84 -78 231 -78q111 0 206.5 71.5t150.5 189.5t55 251q0 144 -60 215.5t-168 71.5 q-122 0 -222 -95.5t-128 -261.5z" />
<glyph unicode="&#xff;" horiz-adv-x="1060" d="M-47 -399l41 141q63 -21 125 -21q132 0 237 211l52 103l-244 854q-13 46 -23.5 61t-36.5 15q-9 0 -41 -4l25 118q59 19 115 19q58 0 87 -30t44 -89l198 -762l420 856h201l-635 -1208q-82 -156 -172 -227.5t-219 -71.5q-98 0 -174 35zM426 1364q9 52 41.5 78t77.5 26 q50 0 75 -28.5t15 -83.5q-9 -52 -41.5 -78.5t-79.5 -26.5q-48 0 -73 29t-15 84zM780 1364q9 52 41.5 78t79.5 26q48 0 73 -28.5t15 -83.5q-9 -52 -41 -78.5t-76 -26.5q-51 0 -76.5 29t-15.5 84z" />
<glyph unicode="&#x152;" horiz-adv-x="1814" d="M139 721q31 174 109.5 310.5t192.5 224t255.5 133t302.5 45.5h820l-31 -170h-604l-80 -457h526l-28 -160h-527l-86 -477h606l-28 -170h-824q-159 0 -284 46.5t-207 136t-112.5 227t-0.5 311.5zM344 721q-45 -254 63.5 -403.5t348.5 -149.5h37l194 1102h-37 q-238 0 -399.5 -148.5t-206.5 -400.5z" />
<glyph unicode="&#x153;" horiz-adv-x="1763" d="M78 399q0 179 73.5 340t207 262t294.5 101q263 0 316 -275q82 130 202 201.5t259 71.5q136 0 213 -63.5t77 -174.5q0 -123 -88.5 -215.5t-228.5 -138t-307 -45.5q-35 0 -101 4q-40 -330 240 -330q180 0 354 119l49 -135q-201 -144 -426 -144q-304 0 -362 263 q-81 -130 -188.5 -196.5t-231.5 -66.5q-160 0 -256 115t-96 307zM268 416q0 -128 53.5 -202.5t151.5 -74.5q103 0 189 75.5t133 194t47 248.5q0 129 -54 203t-153 74q-105 0 -191 -76.5t-131 -194.5t-45 -247zM1018 600q33 -2 98 -2q182 0 306 62t124 167q0 50 -36 78.5 t-103 28.5q-132 0 -237 -89.5t-152 -244.5z" />
<glyph unicode="&#x178;" horiz-adv-x="1265" d="M193 1434h231l248 -676l489 676h228l-648 -863l-100 -571h-203l101 573zM549 1726q9 52 41.5 78.5t77.5 26.5q49 0 74.5 -29t15.5 -84q-9 -52 -41.5 -78t-79.5 -26q-48 0 -73 28.5t-15 83.5zM903 1726q9 52 41.5 78.5t79.5 26.5q48 0 73 -29t15 -84q-9 -51 -41 -77.5 t-76 -26.5q-51 0 -76.5 28.5t-15.5 83.5z" />
<glyph unicode="&#x2c6;" horiz-adv-x="665" d="M172 1229l279 241h108l178 -241h-168l-94 110l-127 -110h-176z" />
<glyph unicode="&#x2dc;" horiz-adv-x="1136" d="M393 1286q38 84 94.5 125t120.5 41q41 0 80.5 -19t72.5 -38t58 -19q36 0 63.5 24.5t53.5 67.5l92 -51q-34 -81 -89 -127.5t-120 -46.5q-41 0 -79.5 19t-73 38t-66.5 19q-40 0 -68 -21.5t-51 -64.5z" />
<glyph unicode="&#x2000;" horiz-adv-x="952" />
<glyph unicode="&#x2001;" horiz-adv-x="1905" />
<glyph unicode="&#x2002;" horiz-adv-x="952" />
<glyph unicode="&#x2003;" horiz-adv-x="1905" />
<glyph unicode="&#x2004;" horiz-adv-x="635" />
<glyph unicode="&#x2005;" horiz-adv-x="476" />
<glyph unicode="&#x2006;" horiz-adv-x="317" />
<glyph unicode="&#x2007;" horiz-adv-x="317" />
<glyph unicode="&#x2008;" horiz-adv-x="238" />
<glyph unicode="&#x2009;" horiz-adv-x="381" />
<glyph unicode="&#x200a;" horiz-adv-x="105" />
<glyph unicode="&#x2010;" horiz-adv-x="831" d="M113 535l24 137h604l-24 -137h-604z" />
<glyph unicode="&#x2011;" horiz-adv-x="831" d="M113 535l24 137h604l-24 -137h-604z" />
<glyph unicode="&#x2012;" horiz-adv-x="831" d="M113 535l24 137h604l-24 -137h-604z" />
<glyph unicode="&#x2013;" horiz-adv-x="1226" d="M137 451l29 165h921l-28 -165h-922z" />
<glyph unicode="&#x2014;" horiz-adv-x="1857" d="M129 451l29 165h1571l-29 -165h-1571z" />
<glyph unicode="&#x2018;" horiz-adv-x="466" d="M170 1182q27 162 229 286l72 -43q-27 -24 -41.5 -37.5t-40.5 -46t-39 -63.5q51 -11 76 -50.5t16 -97.5q-12 -61 -52.5 -92.5t-96.5 -31.5q-68 0 -102 48.5t-21 127.5z" />
<glyph unicode="&#x2019;" horiz-adv-x="524" d="M233 1044q90 74 121 148q-52 11 -77 50t-15 95q10 62 52 94.5t98 32.5q68 0 102 -48.5t21 -127.5q-31 -167 -228 -287z" />
<glyph unicode="&#x201a;" horiz-adv-x="577" d="M47 -162q94 82 125 152q-50 5 -77 45t-17 100q10 59 51 92t96 33q68 0 103 -48.5t20 -129.5q-27 -165 -227 -285z" />
<glyph unicode="&#x201c;" horiz-adv-x="813" d="M238 1147q19 184 241 315l66 -32q-32 -25 -71 -70t-58 -96q48 -6 76.5 -41t21.5 -93q-6 -64 -50.5 -102.5t-105.5 -38.5q-63 0 -95.5 43.5t-24.5 114.5zM582 1147q19 184 241 315l66 -32q-30 -24 -69 -69t-58 -93q46 -6 74.5 -43t21.5 -95q-6 -64 -50.5 -102.5 t-105.5 -38.5q-63 0 -95.5 43.5t-24.5 114.5z" />
<glyph unicode="&#x201d;" horiz-adv-x="813" d="M166 1020q30 24 69 69t58 93q-46 7 -75.5 43t-22.5 94q6 64 51 102.5t106 38.5q62 0 94.5 -43t26.5 -114q-22 -184 -242 -316zM510 1020q32 25 71 70t58 96q-47 5 -77 39.5t-23 93.5q6 64 51 102.5t106 38.5q62 0 94.5 -43t26.5 -114q-22 -184 -242 -316z" />
<glyph unicode="&#x201e;" horiz-adv-x="925" d="M47 -162q89 79 119 146q-48 12 -73 53.5t-15 97.5q10 59 51 92t96 33q68 0 103 -48.5t20 -129.5q-27 -165 -225 -285zM393 -162q88 73 121 150q-51 11 -75.5 50t-14.5 97q10 60 50.5 92.5t96.5 32.5q68 0 103 -48.5t20 -129.5q-27 -164 -227 -285z" />
<glyph unicode="&#x2022;" horiz-adv-x="595" d="M254 610q13 76 62.5 115t111.5 39q72 0 115.5 -46.5t27.5 -133.5q-13 -74 -64 -113t-114 -39q-70 0 -112.5 47t-26.5 131z" />
<glyph unicode="&#x2026;" horiz-adv-x="1804" d="M217 127q11 63 52.5 96t97.5 33q66 0 102 -41t23 -115q-10 -63 -51.5 -96t-98.5 -33q-66 0 -102 41t-23 115zM784 127q10 63 52 96t98 33q64 0 100.5 -41t24.5 -115q-11 -63 -52.5 -96t-97.5 -33q-65 0 -101.5 41.5t-23.5 114.5zM1350 127q11 63 53 96t98 33 q64 0 100.5 -41t24.5 -115q-12 -63 -53 -96t-98 -33q-64 0 -100.5 41t-24.5 115z" />
<glyph unicode="&#x202f;" horiz-adv-x="381" />
<glyph unicode="&#x2039;" horiz-adv-x="606" d="M53 520l375 383l100 -84l-299 -297l193 -297l-113 -84z" />
<glyph unicode="&#x203a;" horiz-adv-x="608" d="M74 227l299 295l-193 295l115 86l254 -385l-383 -381z" />
<glyph unicode="&#x205f;" horiz-adv-x="476" />
<glyph unicode="&#x20ac;" horiz-adv-x="1468" d="M92 492l25 133h164q7 109 22 182h-156l25 133h168q59 169 171 287.5t252 174.5t300 56q277 0 432 -155l-133 -138q-142 115 -330 115q-160 0 -287 -88.5t-194 -251.5h729l-55 -133h-715q-18 -82 -21 -182h674l-55 -133h-612q23 -159 110 -247.5t215 -88.5q203 0 400 131 l79 -133q-238 -179 -522 -179q-101 0 -187 32t-153.5 94t-108.5 162t-48 229h-189z" />
<glyph unicode="&#x2122;" horiz-adv-x="1781" d="M254 1292l25 142h618l-25 -142h-231l-115 -641h-153l112 641h-231zM858 651l139 783h127l195 -498l391 498h109l-138 -783h-155l82 465l-305 -397h-54l-157 395l-82 -463h-152z" />
<glyph unicode="&#xe000;" horiz-adv-x="1085" d="M0 0v1085h1085v-1085h-1085z" />
<glyph unicode="&#xfb01;" horiz-adv-x="1210" d="M-188 -414l36 156q36 -12 93 -12q91 0 145.5 42.5t71.5 137.5l178 1010h-170l29 155h167l33 189q29 152 131 228.5t260 76.5q193 0 306 -70l-58 -153q-109 63 -239 63q-182 0 -211 -149l-33 -185h340q106 0 146 -36.5t22 -129.5l-131 -719q-11 -69 53 -69q28 0 57 10 l-24 -135q-72 -21 -121 -21q-78 0 -126.5 48t-31.5 145l127 706q5 25 -3.5 35.5t-35.5 10.5h-301l-184 -1045q-27 -151 -137.5 -230t-266.5 -79q-61 0 -122 20z" />
<glyph unicode="&#xfb02;" horiz-adv-x="1247" d="M-193 -348l39 158q60 -15 95 -15q91 0 144.5 42.5t70.5 139.5l166 943h-168l28 155h168l31 189q29 152 128.5 228.5t252.5 76.5q124 0 241.5 -29.5t194.5 -81.5l-233 -1268q-14 -69 53 -69q32 0 57 10l-24 -135q-72 -21 -119 -21q-80 0 -128.5 48t-31.5 145l223 1198 q-60 43 -225 43q-173 0 -199 -149l-32 -185h262l-29 -155h-262l-174 -979q-27 -150 -137.5 -230t-264.5 -80q-52 0 -127 21z" />
<glyph unicode="&#xfb03;" horiz-adv-x="1763" d="M-188 -414l38 156q46 -12 103 -12q137 0 162 190l168 1000h-160l29 155h157l35 189q56 299 367 299q92 0 161 -25l-49 -149q-51 14 -106 14q-159 0 -185 -143l-34 -185h417l33 189q60 305 389 305q78 0 151 -19.5t116 -50.5l-74 -153q-39 30 -92.5 46.5t-104.5 16.5 q-169 0 -196 -154l-33 -180h340q108 0 146.5 -40t17.5 -152l-127 -693q-11 -69 53 -69q32 0 57 10l-24 -135q-61 -21 -115 -21q-85 0 -133.5 48t-30.5 145l127 694q12 58 -47 58h-293l-174 -979q-27 -153 -133 -230.5t-260 -77.5q-69 0 -137 23l43 154q45 -15 94 -15 q89 0 143 43.5t72 143.5l166 938h-418l-178 -1055q-16 -106 -66 -174.5t-118.5 -96.5t-157.5 -28q-84 0 -139 20z" />
<glyph unicode="&#xfb04;" horiz-adv-x="1765" d="M-207 -414l39 156q36 -12 92 -12q91 0 145 42.5t72 137.5l178 1010h-157l28 155h156l33 189q27 151 127 228t252 77q95 0 162 -25l-62 -149q-63 14 -113 14q-72 0 -119 -34.5t-57 -100.5l-34 -199h380l33 189q27 151 127 228t254 77q247 0 381 -137l-229 -1242 q-14 -69 53 -69q32 0 57 10l-24 -135q-72 -21 -121 -21q-78 0 -126.5 48t-31.5 145l223 1196q-62 45 -174 45q-174 0 -200 -149l-33 -185h262l-27 -155h-264l-174 -979q-27 -148 -137 -228t-256 -80q-66 0 -137 21l43 156q3 -2 15 -5t34.5 -6.5t42.5 -3.5q91 0 145 44.5 t72 144.5l166 936h-383l-184 -1045q-27 -151 -137.5 -230t-266.5 -79q-61 0 -125 20z" />
</font>
</defs>
</svg>
