<?xml version="1.0" standalone="no"?>
<!DOCTYPE svg PUBLIC "-//W3C//DTD SVG 1.1//EN" "http://www.w3.org/Graphics/SVG/1.1/DTD/svg11.dtd" >
<svg xmlns="http://www.w3.org/2000/svg">
<metadata></metadata>
<defs>
<font id="motiva_sanslight" horiz-adv-x="1632" >
<font-face units-per-em="2048" ascent="1540" descent="-508" />
<missing-glyph horiz-adv-x="604" />
<glyph horiz-adv-x="2048" />
<glyph horiz-adv-x="2048" />
<glyph unicode="&#xd;" horiz-adv-x="2048" />
<glyph unicode=" "  horiz-adv-x="604" />
<glyph unicode="&#x09;" horiz-adv-x="604" />
<glyph unicode="&#xa0;" horiz-adv-x="604" />
<glyph unicode="!" horiz-adv-x="602" d="M178 98q0 58 34.5 91.5t88.5 33.5t88.5 -33.5t34.5 -91.5q0 -60 -34.5 -92.5t-88.5 -32.5t-88.5 32.5t-34.5 92.5zM213 1436h195l-37 -1026h-129z" />
<glyph unicode="&#x22;" horiz-adv-x="886" d="M219 1434h158l-25 -455h-104zM510 1434h156l-23 -455h-106z" />
<glyph unicode="#" horiz-adv-x="1406" d="M76 420v106h311l51 400h-317v106h332l53 402h112l-51 -402h340l51 402h113l-51 -402h311v-106h-323l-52 -400h328v-106h-340l-53 -420h-113l53 420h-344l-53 -420h-117l56 420h-297zM502 526h342l51 400h-342z" />
<glyph unicode="$" horiz-adv-x="1165" d="M109 106l57 125q190 -112 418 -112q167 0 253.5 68.5t86.5 177.5q0 47 -19 86t-42.5 64.5t-79.5 55.5t-92 45.5t-119 48.5q-2 1 -3.5 1.5t-3.5 1.5q-59 23 -97 39t-88 41t-82 47t-66.5 54t-54 65.5t-32 77t-12.5 93.5q0 158 112 259.5t312 111.5l-10 189h133l-10 -189 q196 -18 372 -129l-67 -117q-179 117 -377 117q-141 0 -225 -63t-84 -170q0 -33 10 -62.5t23 -51t42 -45t50 -37.5t65 -35t69 -31t81 -32.5t82 -33.5q75 -31 126.5 -56.5t101 -60t78.5 -71.5t46.5 -87t17.5 -110q0 -169 -121 -281.5t-329 -122.5l10 -204h-133l10 204 q-234 19 -409 129z" />
<glyph unicode="%" horiz-adv-x="1527" d="M76 1139q0 149 87 234t216 85q130 0 214.5 -85t84.5 -234q0 -150 -84.5 -236t-214.5 -86q-129 0 -216 85.5t-87 236.5zM201 1139q0 -102 47.5 -158.5t130.5 -56.5q84 0 128 55.5t44 159.5q0 102 -44 158.5t-128 56.5q-82 0 -130 -57t-48 -158zM227 0l963 1434h129 l-967 -1434h-125zM850 297q0 151 87 236t218 85q129 0 214 -86t85 -235q0 -150 -85 -236t-214 -86q-132 0 -218.5 85.5t-86.5 236.5zM977 297q0 -101 47 -159t129 -58q84 0 128 56.5t44 160.5q0 103 -44 160t-128 57q-82 0 -129 -58t-47 -159z" />
<glyph unicode="&#x26;" horiz-adv-x="1488" d="M164 307q0 199 233 373l66 49l-4 4q-53 51 -79 77t-61.5 68t-51.5 74t-28 75.5t-12 90.5q0 153 102 247.5t287 94.5q172 0 273.5 -84t101.5 -215q0 -188 -207 -352l-106 -80l321 -303q44 100 56 133l75 199l132 -49l-82 -211q-35 -89 -76 -172l270 -256l-104 -105 l-244 232q-85 -117 -190 -169.5t-248 -52.5q-205 0 -314.5 92.5t-109.5 239.5zM317 322q0 -97 65.5 -154t192.5 -57q212 0 347 184l-363 342l-88 -68q-82 -60 -118 -119.5t-36 -127.5zM377 1118q0 -41 10 -73.5t38.5 -68.5t54.5 -61.5t83 -76.5l21 -21l90 68 q170 127 170 270q0 91 -64 132.5t-164 41.5q-119 0 -179 -56t-60 -155z" />
<glyph unicode="'" horiz-adv-x="512" d="M178 1434h156l-23 -455h-106z" />
<glyph unicode="(" horiz-adv-x="759" d="M158 715q0 129 19.5 246t49.5 202t72 160t80.5 123t82 89t70 60t50.5 33l59 -72q-2 -2 -29.5 -28t-42 -42t-46.5 -53t-52.5 -72t-49 -86t-47 -108t-36.5 -126t-26.5 -152t-8.5 -174q0 -109 14.5 -210t35 -175t53.5 -145t59 -114t64.5 -89.5t55.5 -64t46 -44.5l12 -12 l-59 -72q-25 17 -49 35t-69.5 62t-83 92.5t-81 125.5t-73.5 162.5t-50 202.5t-20 246z" />
<glyph unicode=")" horiz-adv-x="761" d="M117 -139q10 9 23.5 22t49.5 54.5t67.5 88t69.5 121.5t65.5 155.5t46 189t18.5 223.5q0 110 -17.5 214t-41 180t-61 150t-65.5 117t-66.5 88.5t-50.5 57.5t-32 30l-4 4l59 72q10 -6 31.5 -22t63.5 -55.5t83.5 -89.5t87.5 -127.5t80.5 -164.5t57 -206t22.5 -248 q0 -128 -23 -247.5t-57 -207.5t-81 -167.5t-88 -130t-84 -92.5t-63 -58t-32 -23z" />
<glyph unicode="*" horiz-adv-x="870" d="M160 1360l51 82l180 -113l-8 213h104l-14 -215l189 117l49 -82l-197 -111l197 -98l-49 -82l-189 115l14 -215h-104l8 215l-180 -115l-49 80l196 100z" />
<glyph unicode="+" horiz-adv-x="1492" d="M238 657v125h442v467h127v-467h444v-125h-444v-467h-127v467h-442z" />
<glyph unicode="," horiz-adv-x="645" d="M199 -190q91 95 104 190q-36 5 -65 34t-29 72q0 50 30.5 77.5t77.5 27.5q51 0 81 -35t30 -96q0 -78 -42 -160.5t-134 -150.5z" />
<glyph unicode="-" horiz-adv-x="929" d="M176 535v129h578v-129h-578z" />
<glyph unicode="." horiz-adv-x="653" d="M209 94q0 57 32.5 90t84.5 33q53 0 85.5 -32.5t32.5 -90.5q0 -57 -32 -89t-86 -32q-52 0 -84.5 32t-32.5 89z" />
<glyph unicode="/" horiz-adv-x="722" d="M37 -84l553 1624h139l-551 -1624h-141z" />
<glyph unicode="0" horiz-adv-x="1314" d="M109 711q0 153 29 278.5t80 212t120.5 145.5t149.5 86t169 27q88 0 168 -27t150 -86t121 -145.5t80.5 -212t29.5 -278.5q0 -148 -29.5 -271t-80.5 -208.5t-121 -144.5t-150 -86.5t-168 -27.5q-112 0 -209 45t-173.5 132.5t-121 232t-44.5 328.5zM266 711q0 -282 105 -438 t286 -156t286.5 156.5t105.5 437.5q0 291 -105 447.5t-287 156.5t-286.5 -156.5t-104.5 -447.5z" />
<glyph unicode="1" horiz-adv-x="1132" d="M106 1212l447 228h115v-1303h303v-137h-766v137h307v1127l-342 -166z" />
<glyph unicode="2" horiz-adv-x="1302" d="M131 1305q223 155 483 155q237 0 369.5 -117t132.5 -305q0 -37 -6 -71.5t-14 -63.5t-27.5 -63t-33.5 -57.5t-45.5 -58.5t-50.5 -55.5t-62 -60.5t-66 -60.5t-75 -66.5q-15 -13 -23 -20l-363 -318h809v-143h-1005v139l405 359q32 28 81.5 71.5t77 67t65.5 60t59 61t46 59 t37 64t20.5 66t8.5 75.5q0 140 -95.5 214.5t-262.5 74.5q-223 0 -383 -127z" />
<glyph unicode="3" horiz-adv-x="1259" d="M72 133l84 123q77 -59 181.5 -97t223.5 -38q203 0 316.5 87t113.5 212q0 143 -106 206.5t-326 63.5h-149v139h137q164 0 271.5 65t107.5 189q0 101 -94.5 166.5t-253.5 65.5q-203 0 -375 -135l-84 110q200 168 485 168q118 0 211.5 -27t151.5 -74t88 -105.5t30 -125.5 q0 -125 -72.5 -216t-193.5 -132v-6q143 -17 237.5 -114t94.5 -232q0 -198 -160.5 -324.5t-415.5 -126.5q-146 0 -276.5 42t-226.5 116z" />
<glyph unicode="4" horiz-adv-x="1351" d="M123 391v117l760 926h133v-912h227v-131h-227v-391h-152l-4 391h-737zM297 522h565v690z" />
<glyph unicode="5" horiz-adv-x="1304" d="M184 106l74 117q141 -102 354 -102q182 0 293 92.5t111 247.5q0 98 -47.5 167t-124 100.5t-174.5 31.5q-185 0 -338 -115l-113 72v723h854v-146h-704v-489q133 92 321 92q95 0 180.5 -26.5t154 -77.5t109 -135t40.5 -191q0 -224 -149 -358t-409 -134q-273 0 -432 131z " />
<glyph unicode="6" horiz-adv-x="1259" d="M102 696q0 160 34 290t91.5 216.5t136 145t163.5 84.5t178 26q151 0 254.5 -29.5t187.5 -85.5l-82 -120q-155 90 -344 90q-73 0 -137.5 -18t-126 -62.5t-105.5 -113t-70.5 -177t-27.5 -246.5q95 94 204 144.5t261 50.5q88 0 171 -26.5t153 -77t112.5 -136.5t42.5 -194 q0 -203 -147.5 -342.5t-366.5 -139.5q-282 0 -432 177.5t-150 543.5zM270 543q9 -200 117.5 -312t286.5 -112q167 0 266.5 94t99.5 242q0 140 -99.5 217.5t-254.5 77.5q-122 0 -232 -55.5t-184 -151.5z" />
<glyph unicode="7" horiz-adv-x="1187" d="M61 1294v140h1020v-136l-653 -1298h-172l662 1294h-857z" />
<glyph unicode="8" horiz-adv-x="1265" d="M109 397q0 139 82.5 245t203.5 134q-110 40 -172.5 125t-62.5 199q0 157 130 257.5t345 100.5q217 0 346 -100t129 -258q0 -115 -61.5 -199.5t-174.5 -124.5q118 -27 200.5 -132.5t82.5 -244.5q0 -191 -136.5 -308.5t-385.5 -117.5q-255 0 -390.5 116.5t-135.5 307.5z M266 412q0 -134 95 -213.5t274 -79.5q178 0 271 79t93 214q0 131 -100.5 214t-263.5 83q-164 0 -266.5 -83t-102.5 -214zM315 1085q0 -113 91 -175t229 -62q140 0 228.5 61.5t88.5 175.5q0 109 -84 171.5t-233 62.5q-147 0 -233.5 -63t-86.5 -171z" />
<glyph unicode="9" horiz-adv-x="1245" d="M72 1008q0 137 69.5 241t180.5 156.5t243 52.5q281 0 428.5 -169.5t147.5 -504.5q0 -175 -32.5 -313.5t-89 -230.5t-137.5 -152t-174 -86.5t-202 -26.5q-122 0 -215.5 28.5t-181.5 78.5l63 123q159 -86 338 -86q80 0 149.5 21t130.5 68t104.5 118.5t68.5 177.5t26 239 q-110 -98 -213.5 -140t-247.5 -42q-127 0 -228.5 49.5t-164.5 152.5t-63 245zM227 1010q0 -144 83.5 -222.5t230.5 -78.5q129 0 257.5 54.5t182.5 137.5q-4 106 -40.5 188t-93.5 130t-124.5 72t-140.5 24q-145 0 -250 -86.5t-105 -218.5z" />
<glyph unicode=":" horiz-adv-x="653" d="M205 98q0 59 33.5 92t87.5 33t88.5 -33.5t34.5 -91.5q0 -60 -34.5 -92.5t-88.5 -32.5t-87.5 32.5t-33.5 92.5zM205 973q0 59 33.5 92t87.5 33t88.5 -33.5t34.5 -91.5q0 -60 -34.5 -92.5t-88.5 -32.5t-87.5 32.5t-33.5 92.5z" />
<glyph unicode=";" horiz-adv-x="653" d="M199 -190q93 93 106 190q-36 5 -65 34t-29 72q0 50 30.5 77.5t77.5 27.5q50 0 80.5 -35t30.5 -96q0 -78 -42 -160.5t-134 -150.5zM207 975q0 56 33.5 88.5t85.5 32.5t85 -32.5t33 -88.5q0 -58 -32.5 -89.5t-85.5 -31.5t-86 31.5t-33 89.5z" />
<glyph unicode="&#x3c;" horiz-adv-x="1024" d="M59 539v112l756 473l70 -114l-674 -416l670 -420l-68 -108z" />
<glyph unicode="=" horiz-adv-x="1413" d="M231 358v115h943v-115h-943zM231 768v117h943v-117h-943z" />
<glyph unicode="&#x3e;" horiz-adv-x="1019" d="M139 1010l68 116l754 -477v-110l-750 -471l-70 106l672 420z" />
<glyph unicode="?" horiz-adv-x="1083" d="M72 1323q70 59 182.5 97t241.5 38q193 0 307.5 -96t114.5 -238q0 -65 -22 -122t-57 -100t-77.5 -83l-85 -80t-78 -82t-58 -96.5t-22.5 -116.5h-133q0 71 21 133t54 107t73.5 85.5t80.5 78t73 74.5t54 83.5t21 98.5q0 105 -74 163t-201 58q-206 0 -346 -106zM338 100 q0 58 33 91.5t88 33.5t88 -33.5t33 -91.5t-33 -90.5t-88 -32.5t-88 32.5t-33 90.5z" />
<glyph unicode="@" horiz-adv-x="1800" d="M109 475q0 186 67 342t185 263.5t282.5 167t355.5 59.5q150 0 276.5 -44t219.5 -127t145 -209.5t52 -283.5q0 -227 -110.5 -373.5t-293.5 -146.5q-157 0 -217 110q-106 -106 -264 -106q-116 0 -198.5 86.5t-82.5 253.5q0 198 124.5 313t324.5 115q134 0 264 -49l-61 -422 q-13 -91 19.5 -135.5t94.5 -44.5q118 0 189 106t71 293q0 266 -157.5 403.5t-427.5 137.5q-151 0 -281 -48.5t-227.5 -138.5t-153 -229t-55.5 -311q0 -164 46.5 -285t132 -191.5t194 -103.5t243.5 -33q70 0 176 15.5t177 38.5l36 -113q-81 -28 -186.5 -46t-183.5 -18 q-776 0 -776 754zM668 477q0 -119 49 -175t129 -56q122 0 196 104q0 6 5 64l47 344l-8 2q-7 2 -20 5t-29.5 6t-39.5 5t-47 2q-129 0 -205.5 -84.5t-76.5 -216.5z" />
<glyph unicode="A" horiz-adv-x="1415" d="M80 0l532 1434h189l536 -1434h-170l-131 365h-663l-133 -365h-160zM420 498h569l-284 786z" />
<glyph unicode="B" horiz-adv-x="1296" d="M178 0v1434h430q223 0 340 -90.5t117 -253.5q0 -111 -61 -200.5t-152 -133.5q56 -12 108.5 -40t97.5 -71.5t72 -109t27 -142.5q0 -134 -66 -224t-174.5 -129.5t-254.5 -39.5h-484zM330 131h313q181 0 269.5 69.5t88.5 190.5q0 273 -348 273h-323v-533zM330 793h254 q152 0 240.5 72.5t88.5 195.5q0 242 -335 242h-248v-510z" />
<glyph unicode="C" horiz-adv-x="1349" d="M139 713v9q0 148 33 269q34 125 95 211t146 145t183 86t209 27q277 0 452 -129l-77 -114q-161 106 -381 106q-82 0 -155.5 -22t-137.5 -70.5t-110.5 -118.5t-73.5 -172.5t-27 -226.5q0 -157 40.5 -275.5t112.5 -187.5q70 -70 160 -104q87 -33 189 -33h6q238 3 405 141 l84 -111q-198 -170 -493 -170q-108 0 -204.5 26.5t-180 84t-144 143t-95.5 209.5t-36 277z" />
<glyph unicode="D" horiz-adv-x="1411" d="M178 0v1434h404q115 0 216 -24.5t189 -78.5t150.5 -135t98.5 -200t36 -267t-36 -269t-99 -205.5t-150.5 -142.5t-189 -85t-215.5 -27h-404zM330 141h270q248 0 382 148t134 440q0 290 -132.5 429.5t-383.5 139.5h-270v-1157z" />
<glyph unicode="E" horiz-adv-x="1175" d="M178 0v1434h893v-134h-743v-499h659v-135h-659v-527h743v-139h-893z" />
<glyph unicode="F" horiz-adv-x="1052" d="M178 0v1432h815v-136h-665v-532h583v-133h-583v-631h-150z" />
<glyph unicode="G" horiz-adv-x="1519" d="M139 727q0 177 50.5 317.5t140 230.5t208.5 137.5t259 47.5q175 0 291.5 -47.5t211.5 -128.5l-88 -108q-181 147 -421 147q-108 0 -198 -38t-156.5 -111t-104 -187t-37.5 -258q0 -296 137 -451t369 -155q128 0 229 46.5t154 109.5v376h-451v129h600v-569 q-90 -111 -230 -175.5t-323 -64.5q-131 0 -244 44.5t-203 133t-142 236t-52 338.5z" />
<glyph unicode="H" horiz-adv-x="1460" d="M178 0v1434h150v-639h805v639h151v-1434h-151v659h-805v-659h-150z" />
<glyph unicode="I" horiz-adv-x="546" d="M199 0v1434h151v-1434h-151z" />
<glyph unicode="J" horiz-adv-x="935" d="M100 -10l15 135q2 0 17.5 -1.5t36.5 -3t36 -1.5q58 0 102 3.5t88 12.5t75 25.5t58.5 43.5t44 65t26 90.5t9.5 119.5v955h152v-981q0 -115 -26.5 -201.5t-70 -138.5t-109 -84.5t-134 -44t-154.5 -11.5q-92 0 -166 17z" />
<glyph unicode="K" horiz-adv-x="1284" d="M178 0v1434h152v-719l659 719h191l-635 -672l682 -762h-201l-586 649l-110 -117v-532h-152z" />
<glyph unicode="L" horiz-adv-x="1126" d="M178 0v1434h150v-1299h700v-135h-850z" />
<glyph unicode="M" horiz-adv-x="1777" d="M178 0v1434h156l563 -1225l547 1225h158v-1434h-150v1124l-522 -1118h-82l-522 1122v-1128h-148z" />
<glyph unicode="N" horiz-adv-x="1492" d="M178 0v1434h133l852 -1168v1168h152v-1434h-129l-858 1167v-1167h-150z" />
<glyph unicode="O" d="M139 723q0 150 39 274.5t104 208.5t153 142.5t184 85t198 26.5q103 0 199 -26.5t183.5 -85t153 -142.5t104 -208.5t38.5 -274.5q0 -151 -38.5 -277t-104 -212t-153 -146t-184 -87.5t-198.5 -27.5t-198 27.5t-184 87.5t-153.5 146t-104 212t-38.5 277zM295 723 q0 -145 41.5 -263t112.5 -193.5t163 -115.5t197 -40q108 0 202.5 39t167.5 113t115.5 193t42.5 267t-41.5 264.5t-114 188.5t-165 109.5t-199.5 37.5q-108 0 -201.5 -37.5t-165.5 -109.5t-113.5 -188.5t-41.5 -264.5z" />
<glyph unicode="P" horiz-adv-x="1142" d="M178 0v1434h422q236 0 359.5 -113t123.5 -307q0 -94 -31 -175.5t-89.5 -144t-151.5 -98t-209 -35.5h-274v-561h-150zM328 696h258q163 0 250.5 83.5t87.5 236.5q0 284 -338 284h-258v-604z" />
<glyph unicode="Q" d="M139 723q0 150 39 274.5t104 208.5t153 142.5t184 85t198 26.5q103 0 199 -26.5t183.5 -85t153 -142.5t104 -208.5t38.5 -274.5q0 -147 -36 -269.5t-99.5 -209.5t-144 -145.5t-177.5 -90.5l410 -192l-72 -125l-538 282h-21q-102 0 -198 27.5t-184 87.5t-153.5 146 t-104 212t-38.5 277zM295 723q0 -145 41.5 -263t112.5 -193.5t163 -115.5t197 -40q108 0 202.5 39t167.5 113t115.5 193t42.5 267t-41.5 264.5t-114 188.5t-165 109.5t-199.5 37.5q-108 0 -201.5 -37.5t-165.5 -109.5t-113.5 -188.5t-41.5 -264.5z" />
<glyph unicode="R" horiz-adv-x="1308" d="M178 0v1434h475q136 0 234.5 -32.5t154 -90.5t80.5 -129t25 -158q0 -158 -74.5 -273t-222.5 -159l362 -592h-170l-342 565h-36h-336v-565h-150zM328 700h354q146 0 225.5 86t79.5 220q0 147 -82.5 220.5t-271.5 73.5h-305v-600z" />
<glyph unicode="S" horiz-adv-x="1165" d="M109 106l57 125q88 -53 196.5 -82.5t210.5 -29.5q178 0 264.5 68.5t86.5 181.5q0 54 -24 96.5t-76 78.5t-109.5 62.5t-149.5 61.5q-60 23 -97.5 39t-88 41t-82 47.5t-66 54.5t-54 66.5t-32 79t-12.5 96.5q0 161 124.5 263.5t334.5 102.5q102 0 194 -22.5t143.5 -47 t112.5 -61.5l-67 -117q-179 117 -377 117q-142 0 -225.5 -63.5t-83.5 -176.5q0 -107 119 -184q66 -42 252 -117q35 -13 51 -20q93 -38 153.5 -71t113.5 -78.5t78 -103t25 -130.5q0 -183 -133 -295.5t-364 -112.5q-122 0 -249.5 34.5t-225.5 96.5z" />
<glyph unicode="T" horiz-adv-x="1316" d="M100 1298v136h1117v-136h-482v-1298h-151v1298h-484z" />
<glyph unicode="U" horiz-adv-x="1429" d="M178 516v918h150v-928q0 -183 102.5 -285t286.5 -102t284.5 101.5t100.5 285.5v928h151v-918q0 -115 -29 -207t-78 -154t-118 -103.5t-146.5 -60t-164.5 -18.5t-164.5 18.5t-147 60t-119.5 103.5t-79 154t-29 207z" />
<glyph unicode="V" horiz-adv-x="1429" d="M76 1434h164l481 -1297l467 1297h166l-541 -1434h-192z" />
<glyph unicode="W" horiz-adv-x="2062" d="M53 1434h162l363 -1231l378 1231h160l373 -1231l362 1231h158l-440 -1434h-162l-379 1206l-375 -1206h-161z" />
<glyph unicode="X" horiz-adv-x="1394" d="M61 0l498 743l-475 691h199l368 -574l367 574h199l-482 -680l541 -754h-199l-436 629l-397 -629h-183z" />
<glyph unicode="Y" horiz-adv-x="1333" d="M61 1434h179l403 -719l399 719h172l-499 -861v-573h-152v573z" />
<glyph unicode="Z" horiz-adv-x="1347" d="M129 0v125l854 1173h-807v136h987v-115l-858 -1184h899v-135h-1075z" />
<glyph unicode="[" horiz-adv-x="583" d="M158 -236v1866h311v-121h-174v-1624h174v-121h-311z" />
<glyph unicode="\" horiz-adv-x="731" d="M8 1540h139l488 -1624h-139z" />
<glyph unicode="]" horiz-adv-x="583" d="M115 -115h174v1624h-174v121h311v-1866h-311v121z" />
<glyph unicode="^" horiz-adv-x="1411" d="M135 860l455 682h164l452 -682h-164l-370 561l-373 -561h-164z" />
<glyph unicode="_" horiz-adv-x="1474" d="M147 -16h1184v-113h-1184v113z" />
<glyph unicode="`" horiz-adv-x="634" d="M137 1444h209l154 -236h-121z" />
<glyph unicode="a" horiz-adv-x="1134" d="M109 287q0 81 34 141.5t94 95t133.5 51.5t161.5 17q65 0 135.5 -6t107 -12t42.5 -7v158q0 135 -67 190.5t-193 55.5q-101 0 -177.5 -27.5t-148.5 -83.5l-67 98q176 142 401 142q210 0 305 -89.5t95 -289.5v-531q0 -88 67 -88q5 0 13 0.5t13.5 1t6.5 0.5l-16 -96 q-21 -16 -78 -16t-89.5 28t-50.5 97q-118 -144 -339 -144q-175 0 -279 77.5t-104 236.5zM256 289q0 -52 20.5 -90t56.5 -59t78 -30.5t93 -9.5q104 0 186 40t127 116v190q-154 27 -270 27q-291 0 -291 -184z" />
<glyph unicode="b" horiz-adv-x="1232" d="M176 0v1540h148v-600h4q63 77 153 118.5t193 41.5q202 0 326 -143.5t124 -399.5q0 -275 -134.5 -429.5t-362.5 -154.5q-94 0 -177 37.5t-139 108.5h-6l-29 -119h-100zM324 260q97 -154 305 -154q151 0 247.5 122t96.5 327q0 193 -89.5 302.5t-230.5 109.5q-93 0 -172 -44 t-157 -145v-518z" />
<glyph unicode="c" horiz-adv-x="1097" d="M109 543q0 131 42 238t113.5 176t164 106t196.5 37q230 0 381 -131l-78 -105q-69 53 -134 79t-161 26q-167 0 -270 -111.5t-103 -314.5q0 -204 107 -321.5t270 -117.5q165 0 315 117l76 -98q-66 -62 -167.5 -106t-229.5 -44q-111 0 -205.5 37.5t-165 108.5t-111 180 t-40.5 244z" />
<glyph unicode="d" horiz-adv-x="1224" d="M109 535q0 137 39 247t104.5 178t148 104t174.5 36q207 0 326 -119v559h148v-1540h-103l-26 127h-7q-59 -66 -146.5 -110t-182.5 -44q-71 0 -137 18.5t-128 61.5t-108 106.5t-74 160t-28 215.5zM260 537q0 -108 29.5 -192.5t78.5 -134.5t107.5 -75.5t122.5 -25.5 q184 0 303 157v563q-129 138 -299 138q-66 0 -125.5 -25t-109 -75t-78.5 -135t-29 -195z" />
<glyph unicode="e" horiz-adv-x="1200" d="M109 530q0 267 134.5 418.5t356.5 151.5q92 0 170 -28.5t133 -77.5t93.5 -115t56.5 -140.5t18 -154.5q0 -64 -6 -113h-803q39 -369 369 -369q194 0 342 123l78 -94q-175 -158 -445 -158q-79 0 -151.5 21t-135.5 66t-109.5 109.5t-73.5 157t-27 203.5zM256 590h680 q-6 171 -95.5 277t-236.5 106q-153 0 -247 -100.5t-101 -282.5z" />
<glyph unicode="f" horiz-adv-x="698" d="M78 948v125h162v203q0 150 81 220.5t222 70.5q89 0 157 -21l-28 -121q-52 15 -109 15q-176 0 -176 -158v-209h275v-125h-275v-948h-147v948h-162z" />
<glyph unicode="g" horiz-adv-x="1247" d="M109 561q0 131 45.5 237t119 170t159.5 98t173 34q113 0 189 -29.5t139 -85.5h8l43 88h86v-1034q0 -235 -125 -350t-342 -115q-237 0 -407 129l65 113q137 -105 330 -105q147 0 240.5 69t93.5 212v170q-75 -75 -152 -103t-184 -28q-95 0 -180 34t-153 98t-108 167 t-40 231zM264 565q0 -194 99.5 -298.5t257.5 -104.5q188 0 303 155v525q-50 58 -118.5 91.5t-176.5 33.5q-70 0 -134 -25.5t-116.5 -74t-83.5 -127t-31 -175.5z" />
<glyph unicode="h" horiz-adv-x="1216" d="M176 0v1540h146v-620q79 93 163.5 135.5t190.5 42.5q74 0 138.5 -22t115.5 -65t80.5 -112t29.5 -156v-743h-147v709q0 73 -21.5 125.5t-59 80t-81 40t-96.5 12.5q-179 0 -311 -209v-758h-148z" />
<glyph unicode="i" horiz-adv-x="509" d="M152 1348q0 51 30 77.5t72 26.5q43 0 73.5 -26.5t30.5 -77.5t-30.5 -78t-73.5 -27q-42 0 -72 27t-30 78zM182 0v1073h144v-1073h-144z" />
<glyph unicode="j" horiz-adv-x="526" d="M-137 -403l26 122l16 -3q16 -4 41 -7.5t48 -3.5q103 0 154 47t51 160v1161h147v-1206q0 -147 -92.5 -220t-239.5 -73q-89 0 -151 23zM168 1348q0 51 29.5 77.5t72.5 26.5q42 0 73.5 -27t31.5 -77q0 -51 -31.5 -78t-73.5 -27q-43 0 -72.5 27t-29.5 78z" />
<glyph unicode="k" horiz-adv-x="1079" d="M176 0v1540h148v-1005l452 538h197l-406 -455l486 -618h-195l-389 508l-145 -162v-346h-148z" />
<glyph unicode="l" horiz-adv-x="503" d="M178 0v1540h148v-1540h-148z" />
<glyph unicode="m" horiz-adv-x="1820" d="M176 0v1073h115l24 -155h9q65 93 138 136.5t183 43.5q112 0 185.5 -47.5t117.5 -151.5q78 109 165 154t192 45q161 0 250.5 -94.5t89.5 -276.5v-727h-150v721q0 246 -205 246q-93 0 -166.5 -52t-138.5 -157v-758h-149v727q0 127 -59.5 183.5t-147.5 56.5 q-96 0 -175.5 -58t-127.5 -151v-758h-150z" />
<glyph unicode="n" horiz-adv-x="1216" d="M176 0v1073h105l22 -166h6q78 94 165 143.5t214 49.5q167 0 259.5 -90.5t92.5 -264.5v-745h-147v705q0 144 -56.5 202t-164.5 58q-215 0 -353 -213v-752h-143z" />
<glyph unicode="o" horiz-adv-x="1251" d="M109 537q0 115 28 209.5t76.5 159t115 109t141 65t155.5 20.5q103 0 194.5 -33.5t164.5 -99.5t116 -177t43 -253t-43 -253t-116 -177.5t-164.5 -100t-194.5 -33.5q-81 0 -155.5 20.5t-141 65t-115 109.5t-76.5 159.5t-28 209.5zM260 537q0 -202 99.5 -316.5t265.5 -114.5 q168 0 266 115.5t98 315.5t-98 315t-266 115q-166 0 -265.5 -114.5t-99.5 -315.5z" />
<glyph unicode="p" horiz-adv-x="1210" d="M176 -422v1495h105l30 -164h6q67 95 150 142t197 47q92 0 170 -32.5t138.5 -97t95 -169t34.5 -238.5q0 -130 -41 -242t-109 -187t-156 -117t-182 -42q-166 0 -290 78v-473h-148zM324 188q60 -47 117 -66.5t145 -19.5q66 0 129.5 29.5t116.5 84.5t85.5 143.5t32.5 195.5 q0 106 -26 188t-70.5 129.5t-98 71t-114.5 23.5q-99 0 -174.5 -56t-142.5 -170v-553z" />
<glyph unicode="q" horiz-adv-x="1230" d="M109 537q0 139 44.5 250t118 177.5t162 101t182.5 34.5q177 0 304 -115h6l49 88h80v-1495h-148v490q-132 -95 -309 -95q-91 0 -176.5 35.5t-156 102.5t-113.5 178t-43 248zM262 532q0 -90 23.5 -164.5t60.5 -121t85 -78.5t94 -45.5t91 -13.5q155 0 291 106v627 q-123 123 -278 123q-157 0 -262 -111t-105 -322z" />
<glyph unicode="r" horiz-adv-x="790" d="M176 0v1073h111l28 -158h7q83 185 301 185q65 0 118 -21l-32 -139q-62 16 -109 16q-194 0 -278 -229v-727h-146z" />
<glyph unicode="s" horiz-adv-x="966" d="M104 92l54 123q57 -51 139.5 -81t159.5 -30q128 0 197 53t69 132q0 22 -6.5 41t-15 33t-27.5 27.5t-34 22t-44 20t-48 18t-56.5 18.5t-59.5 20q-64 23 -105.5 41t-83.5 45t-65.5 56.5t-38 72.5t-14.5 97q0 137 107 218t272 81q103 0 197 -31t157 -80l-63 -108 q-154 92 -291 92q-106 0 -171 -47.5t-65 -120.5q0 -29 8.5 -53t28.5 -43t39 -32.5t53.5 -27.5t57.5 -22t65 -21q52 -16 75 -23.5t69 -25t68 -31.5t54 -38.5t47.5 -50t27 -62t11.5 -78.5q0 -145 -108.5 -234.5t-300.5 -89.5q-96 0 -194 32t-165 87z" />
<glyph unicode="t" horiz-adv-x="751" d="M61 948v125h183v168l75 107h74v-275h262v-125h-262v-735q0 -56 25 -81.5t63 -25.5q58 0 144 35l41 -112q-99 -56 -199 -56q-106 0 -164.5 54t-58.5 161v760h-183z" />
<glyph unicode="u" horiz-adv-x="1206" d="M176 358v715h148v-682q0 -282 213 -282q106 0 186.5 53t159.5 145v766h147v-1073h-110l-33 164q-72 -92 -161 -140.5t-212 -48.5q-150 0 -244 93t-94 290z" />
<glyph unicode="v" horiz-adv-x="1062" d="M33 1073h155l340 -915l346 915h156l-432 -1073h-149z" />
<glyph unicode="w" horiz-adv-x="1579" d="M33 1073h153l250 -872l293 872h107l282 -883l285 883h143l-375 -1073h-112l-285 840l-293 -840h-110z" />
<glyph unicode="x" horiz-adv-x="987" d="M16 0v4l396 555l-369 508v6h178l273 -409l272 409h174v-4l-360 -512l391 -553v-4h-178l-297 449l-306 -449h-174z" />
<glyph unicode="y" horiz-adv-x="1136" d="M57 1073h154l373 -958l346 958h147l-422 -1139q-134 -358 -383 -358q-82 0 -161 23l28 116q54 -18 113 -18q75 0 139 56t101 155l24 61z" />
<glyph unicode="z" horiz-adv-x="964" d="M82 0v113l604 829h-584v131h764v-123l-618 -821h637v-129h-803z" />
<glyph unicode="{" horiz-adv-x="800" d="M150 678v102q81 13 134.5 70t53.5 154v253q0 154 94.5 249.5t255.5 95.5v-95q-94 -11 -148.5 -75.5t-54.5 -169.5v-301q0 -87 -58 -152t-116 -76v-8q56 -9 115 -77t59 -152v-301q0 -104 54.5 -171t148.5 -79v-90q-163 0 -256.5 93.5t-93.5 248.5v256q0 103 -51 159.5 t-137 65.5z" />
<glyph unicode="|" horiz-adv-x="464" d="M178 -154v1862h109v-1862h-109z" />
<glyph unicode="}" horiz-adv-x="798" d="M111 -55v-90q163 0 256.5 93.5t93.5 248.5v256q0 103 51 159.5t137 65.5v102q-81 13 -134.5 70t-53.5 154v253q0 154 -94.5 249.5t-255.5 95.5v-95q94 -11 148 -75.5t54 -169.5v-301q0 -87 58 -152t116 -76v-8q-56 -9 -115 -77t-59 -152v-301q0 -104 -54 -171t-148 -79z " />
<glyph unicode="~" horiz-adv-x="1298" d="M137 537q30 112 97 173.5t155 61.5q72 0 230.5 -43t218.5 -43q93 0 141 94h141q-32 -121 -104.5 -178t-167.5 -57q-76 0 -231 42t-226 42q-50 0 -80 -24t-53 -68h-121z" />
<glyph unicode="&#xa1;" horiz-adv-x="602" d="M178 952q0 58 34.5 90.5t88.5 32.5t88.5 -32.5t34.5 -90.5q0 -60 -34.5 -93.5t-88.5 -33.5t-88.5 33.5t-34.5 93.5zM193 -387l38 1028h131l39 -1028h-208z" />
<glyph unicode="&#xa2;" horiz-adv-x="1099" d="M109 731q0 236 125.5 381.5t316.5 171.5l-2 215h129l-4 -213q194 -11 332 -129l-78 -104q-69 52 -134 78t-161 26q-167 0 -270 -111.5t-103 -314.5q0 -204 107 -321t270 -117q165 0 315 117l76 -99q-137 -127 -334 -147l4 -193h-129l4 193q-206 19 -335 168t-129 399z " />
<glyph unicode="&#xa3;" horiz-adv-x="1341" d="M217 104q148 73 148 254v316h-134v121h134v299q0 180 101.5 272t260.5 92q229 0 387 -119l-80 -122q-77 53 -142.5 76.5t-150.5 23.5q-109 0 -163 -60t-54 -186v-276h445v-121h-445v-293q0 -99 -28.5 -156.5t-85.5 -99.5q73 20 141 20q63 0 157 -14t154 -14q105 0 193 18 l30 -137q-102 -25 -237 -25q-76 0 -171.5 13.5t-150.5 13.5q-160 0 -258 -25z" />
<glyph unicode="&#xa4;" horiz-adv-x="1275" d="M109 256l153 150q-90 117 -90 284q0 168 90 285l-151 153l90 93l155 -158q121 76 281 76q161 0 283 -80l157 158l90 -89l-155 -157q88 -118 88 -281q0 -166 -84 -280l151 -152l-88 -92l-159 153q-115 -77 -283 -77q-163 0 -281 77l-155 -153zM338 690q0 -144 85.5 -226.5 t213.5 -82.5q127 0 212 82.5t85 226.5q0 145 -85 227t-212 82q-129 0 -214 -82t-85 -227z" />
<glyph unicode="&#xa5;" horiz-adv-x="1333" d="M90 1434h191l391 -676l399 676h172l-422 -697h332v-125h-405l-3 -2v-135h408v-125h-408v-350h-151v350h-412v125h412v135l-2 2h-410v125h334z" />
<glyph unicode="&#xa6;" horiz-adv-x="460" d="M178 -35v762h107v-762h-107zM178 817v778h107v-778h-107z" />
<glyph unicode="&#xa7;" horiz-adv-x="1015" d="M154 41l43 106q109 -59 282 -59q116 0 175 42.5t59 121.5q0 34 -15 60.5t-37 42.5t-59.5 29.5t-69.5 21t-81.5 19t-81.5 21.5q-99 31 -156 92t-57 171q0 90 52.5 155.5t149.5 91.5q-88 30 -141 93t-53 145q0 127 94 196.5t262 69.5q165 0 291 -59l-39 -103 q-106 41 -246 41q-113 0 -171 -41.5t-58 -109.5q0 -36 14.5 -64t37.5 -46t59 -32.5t71 -24t81 -20.5q12 -3 18 -4q44 -12 73 -21.5t66 -25.5t60 -35t45 -45t32 -61.5t10 -79.5q0 -87 -53.5 -151t-157.5 -101q205 -62 205 -229q0 -125 -100 -202t-275 -77q-188 0 -329 72z M291 715q0 -85 58.5 -130.5t160.5 -45.5t160.5 45.5t58.5 130.5q0 82 -59.5 130t-159.5 48t-159.5 -48t-59.5 -130z" />
<glyph unicode="&#xa8;" horiz-adv-x="634" d="M53 1350q0 46 26 72t68 26q44 0 70.5 -26t26.5 -72t-26.5 -71.5t-70.5 -25.5q-42 0 -68 25.5t-26 71.5zM391 1350q0 47 26.5 72.5t71.5 25.5q41 0 67 -26t26 -72t-26 -71.5t-67 -25.5q-45 0 -71.5 25.5t-26.5 71.5z" />
<glyph unicode="&#xa9;" horiz-adv-x="1695" d="M109 719q0 167 60 308.5t162 235.5t236.5 146.5t282.5 52.5q147 0 280.5 -52.5t235 -146.5t161.5 -235t60 -309t-60 -309.5t-161 -236t-235 -147.5t-281 -53q-148 0 -282.5 53t-236.5 147.5t-162 236t-60 309.5zM221 719q0 -191 86 -338.5t228 -224t315 -76.5 q128 0 242 45t199.5 126.5t135.5 202.5t50 265q0 191 -86 337.5t-227.5 222t-313.5 75.5q-128 0 -242.5 -45t-200.5 -125.5t-136 -201t-50 -263.5zM481 729q0 96 30.5 171t82.5 120t115.5 67.5t134.5 22.5q161 0 262 -88l-51 -90q-54 38 -96.5 55t-112.5 17 q-113 0 -183.5 -72.5t-70.5 -202.5q0 -129 75.5 -202.5t190.5 -73.5q123 0 215 75l53 -88q-104 -96 -274 -96q-160 0 -265.5 98t-105.5 287z" />
<glyph unicode="&#xaa;" horiz-adv-x="815" d="M131 991q0 85 62.5 135t160.5 50q69 0 168 -13v51q0 144 -139 144q-83 0 -178 -43l-41 74q94 65 227 65q116 0 176 -55.5t60 -165.5v-301q0 -51 47 -51h18l-10 -74q-16 -8 -55 -8q-79 0 -99 57q-77 -61 -194 -61q-87 0 -145 52.5t-58 143.5zM236 987q0 -47 31 -73.5 t81 -26.5q101 0 170 61v127q-49 10 -147 10q-64 0 -99.5 -24.5t-35.5 -73.5z" />
<glyph unicode="&#xab;" horiz-adv-x="942" d="M59 522l303 371l97 -78l-244 -291l242 -293l-90 -77zM408 522l303 371l94 -78l-242 -291l242 -293l-90 -77z" />
<glyph unicode="&#xac;" horiz-adv-x="1378" d="M180 686v123h1018v-487h-133v364h-885z" />
<glyph unicode="&#xad;" horiz-adv-x="929" d="M176 535v129h578v-129h-578z" />
<glyph unicode="&#xae;" horiz-adv-x="1695" d="M109 719q0 167 60 308.5t162 235.5t236.5 146.5t282.5 52.5q147 0 280.5 -52.5t235 -146.5t161.5 -235t60 -309t-60 -309.5t-161 -236t-235 -147.5t-281 -53q-148 0 -282.5 53t-236.5 147.5t-162 236t-60 309.5zM221 719q0 -191 86 -338.5t228 -224t315 -76.5 q128 0 242 45t199.5 126.5t135.5 202.5t50 265q0 191 -86 337.5t-227.5 222t-313.5 75.5q-128 0 -242.5 -45t-200.5 -125.5t-136 -201t-50 -263.5zM606 365v733h252q135 0 193.5 -59t58.5 -148q0 -72 -36.5 -123t-94.5 -80l172 -323h-131l-148 288h-157v-288h-109zM715 754 h135q66 0 104.5 36.5t38.5 90.5q0 116 -141 116h-137v-243z" />
<glyph unicode="&#xaf;" horiz-adv-x="634" d="M92 1335v99h451v-99h-451z" />
<glyph unicode="&#xb0;" horiz-adv-x="759" d="M106 1196q0 85 40.5 145.5t100.5 87.5t132 27q113 0 193.5 -67t80.5 -193q0 -125 -80 -190.5t-194 -65.5q-113 0 -193 65.5t-80 190.5zM242 1196q0 -69 37.5 -104t99.5 -35q66 0 104.5 35t38.5 104q0 68 -39 103.5t-104 35.5q-61 0 -99 -35.5t-38 -103.5z" />
<glyph unicode="&#xb1;" horiz-adv-x="1255" d="M121 39v123h1014v-123h-1014zM121 844v121h446v467h123v-467h445v-121h-445v-467h-123v467h-446z" />
<glyph unicode="&#xb4;" horiz-adv-x="634" d="M139 1208l152 236h207l-236 -236h-123z" />
<glyph unicode="&#xb6;" horiz-adv-x="1044" d="M147 1108q0 151 90.5 238.5t282.5 87.5h348v-1434h-129v1317h-121v-1317h-129v766q-342 35 -342 342z" />
<glyph unicode="&#xb7;" horiz-adv-x="589" d="M170 629q0 62 36.5 94.5t88.5 32.5q53 0 89 -32.5t36 -94.5q0 -65 -35.5 -98t-89.5 -33q-52 0 -88.5 33t-36.5 98z" />
<glyph unicode="&#xb8;" horiz-adv-x="634" d="M176 -123l84 139h92l-61 -96q72 6 119 -37t47 -108q0 -84 -63.5 -129.5t-168.5 -55.5l-30 82q75 11 111 35t36 66q0 26 -17.5 42.5t-45.5 16.5q-20 0 -39 -8z" />
<glyph unicode="&#xba;" horiz-adv-x="823" d="M104 1122q0 83 26 148.5t70.5 104.5t99 59t114.5 20q59 0 113 -20t98.5 -59t71 -104.5t26.5 -148.5t-26.5 -147.5t-71 -103t-98.5 -58.5t-113 -20q-128 0 -219 84t-91 245zM213 1122q0 -107 55 -169t146 -62q89 0 144.5 62t55.5 169t-55.5 170.5t-144.5 63.5 q-90 0 -145.5 -63t-55.5 -171z" />
<glyph unicode="&#xbb;" horiz-adv-x="942" d="M137 231l244 293l-244 291l96 78l304 -371l-308 -368zM485 231l246 293l-246 291l97 78l301 -371l-305 -368z" />
<glyph unicode="&#xbc;" horiz-adv-x="2086" d="M154 1294l256 127h90v-696h174v-117h-481v117h174v541l-162 -74zM698 -250l582 1782h104l-579 -1782h-107zM1354 209v108l409 496h107v-494h125v-110h-125v-211h-129v211h-387zM1499 319h240v297z" />
<glyph unicode="&#xbd;" horiz-adv-x="2086" d="M154 1294l256 127h90v-696h174v-117h-481v117h174v541l-162 -74zM698 -250l582 1782h104l-579 -1782h-107zM1374 721q129 102 289 102q130 0 208.5 -68t78.5 -171q0 -180 -236 -361l-141 -110h399v-119h-579v106l235 191q176 143 176 278q0 62 -43 96.5t-112 34.5 q-117 0 -207 -75z" />
<glyph unicode="&#xbe;" horiz-adv-x="2086" d="M96 680l68 104q106 -79 223 -79q97 0 146 39.5t49 99.5q0 70 -46 102.5t-149 32.5h-80v113h64q81 0 129.5 30t48.5 88q0 49 -37.5 78t-114.5 29q-109 0 -207 -84l-67 90q115 115 280 115q138 0 213.5 -59.5t75.5 -147.5q0 -62 -42.5 -114t-112.5 -70q87 -14 137.5 -66 t50.5 -137q0 -114 -92 -188t-236 -74q-169 0 -301 98zM698 -250l582 1782h104l-579 -1782h-107zM1354 209v108l409 496h107v-494h125v-110h-125v-211h-129v211h-387zM1499 319h240v297z" />
<glyph unicode="&#xbf;" horiz-adv-x="1153" d="M123 -27q0 65 22 122t57 100t77.5 83l85 80t77.5 82t57.5 96.5t22.5 116.5h133q0 -71 -20.5 -132.5t-54 -106.5t-73.5 -86t-80 -78t-73.5 -74t-54 -83.5t-20.5 -98.5q0 -105 73.5 -163t200.5 -58q206 0 346 106l70 -104q-70 -59 -182.5 -97t-241.5 -38 q-193 0 -307.5 95.5t-114.5 237.5zM461 997q0 58 33 90.5t88 32.5t87.5 -32.5t32.5 -90.5t-32.5 -91.5t-87.5 -33.5t-88 33.5t-33 91.5z" />
<glyph unicode="&#xc0;" horiz-adv-x="1415" d="M80 0l532 1434h189l536 -1434h-170l-131 365h-663l-133 -365h-160zM420 498h569l-284 786zM432 1804h209l154 -235h-121z" />
<glyph unicode="&#xc1;" horiz-adv-x="1415" d="M80 0l532 1434h189l536 -1434h-170l-131 365h-663l-133 -365h-160zM420 498h569l-284 786zM629 1569l151 235h207l-235 -235h-123z" />
<glyph unicode="&#xc2;" horiz-adv-x="1415" d="M80 0l532 1434h189l536 -1434h-170l-131 365h-663l-133 -365h-160zM420 498h569l-284 786zM432 1591l232 226h86l219 -226h-150l-119 107l-112 -107h-156z" />
<glyph unicode="&#xc3;" horiz-adv-x="1415" d="M80 0l532 1434h189l536 -1434h-170l-131 365h-663l-133 -365h-160zM412 1640q26 80 76 118t106 38q48 0 116.5 -38t98.5 -38q62 0 100 90l82 -47q-23 -74 -69 -115.5t-107 -41.5q-45 0 -110 37.5t-103 37.5q-40 0 -64.5 -20.5t-45.5 -61.5zM420 498h569l-284 786z" />
<glyph unicode="&#xc4;" horiz-adv-x="1415" d="M80 0l532 1434h189l536 -1434h-170l-131 365h-663l-133 -365h-160zM420 498h569l-284 786zM444 1710q0 46 26.5 72t68.5 26q44 0 70 -26t26 -72t-26 -71t-70 -25q-43 0 -69 25t-26 71zM782 1710q0 46 27 72t72 26q41 0 66.5 -26t25.5 -72t-25.5 -71t-66.5 -25 q-45 0 -72 25t-27 71z" />
<glyph unicode="&#xc5;" horiz-adv-x="1415" d="M80 0l532 1434h189l536 -1434h-170l-131 365h-663l-133 -365h-160zM420 498h569l-284 786zM559 1720q0 70 44.5 109t109.5 39q63 0 107 -39t44 -109q0 -69 -44 -106t-107 -37q-66 0 -110 36.5t-44 106.5zM641 1720q0 -32 20 -52.5t52 -20.5q31 0 50 20.5t19 52.5 q0 34 -19 55t-50 21q-33 0 -52.5 -21t-19.5 -55z" />
<glyph unicode="&#xc6;" horiz-adv-x="1802" d="M80 0l713 1434h905v-136h-672v-503h596v-136h-596v-520h672v-139h-824v301h-471l-145 -301h-178zM467 434h407v846z" />
<glyph unicode="&#xc7;" horiz-adv-x="1349" d="M139 713q-1 153 33 278t95 211t146 145t183 86t209 27q277 0 452 -129l-77 -114q-161 106 -381 106q-82 0 -155.5 -22t-137.5 -70.5t-110.5 -118.5t-73.5 -172.5t-27 -226.5q0 -157 40.5 -275.5t112 -188t161 -103.5t194.5 -33q238 3 405 141l84 -111 q-198 -170 -493 -170h-8l-35 -53q72 6 119 -37t47 -108q0 -84 -63.5 -129.5t-168.5 -55.5l-31 82q148 21 148 101q0 26 -18 42.5t-46 16.5q-19 0 -38 -8l-64 53l61 103q-95 11 -178 44.5t-154 93t-121.5 142.5t-79.5 198.5t-30 254.5z" />
<glyph unicode="&#xc8;" horiz-adv-x="1175" d="M178 0v1434h893v-134h-743v-499h659v-135h-659v-527h743v-139h-893zM315 1804h209l154 -235h-121z" />
<glyph unicode="&#xc9;" horiz-adv-x="1175" d="M178 0v1434h893v-134h-743v-499h659v-135h-659v-527h743v-139h-893zM512 1569l152 235h206l-235 -235h-123z" />
<glyph unicode="&#xca;" horiz-adv-x="1175" d="M178 0v1434h893v-134h-743v-499h659v-135h-659v-527h743v-139h-893zM315 1591l232 226h86l219 -226h-150l-118 107l-113 -107h-156z" />
<glyph unicode="&#xcb;" horiz-adv-x="1175" d="M178 0v1434h893v-134h-743v-499h659v-135h-659v-527h743v-139h-893zM328 1710q0 46 26 72t68 26q44 0 70 -26t26 -72t-26 -71t-70 -25q-42 0 -68 25t-26 71zM666 1710q0 47 26.5 72.5t71.5 25.5q41 0 66.5 -26t25.5 -72t-25.5 -71t-66.5 -25q-45 0 -71.5 25t-26.5 71z " />
<glyph unicode="&#xcc;" horiz-adv-x="546" d="M-6 1804h209l153 -235h-120zM199 0v1434h151v-1434h-151z" />
<glyph unicode="&#xcd;" horiz-adv-x="546" d="M190 1569l152 235h207l-236 -235h-123zM199 0v1434h151v-1434h-151z" />
<glyph unicode="&#xce;" horiz-adv-x="546" d="M-6 1591l231 226h86l219 -226h-149l-119 107l-112 -107h-156zM199 0v1434h151v-1434h-151z" />
<glyph unicode="&#xcf;" horiz-adv-x="546" d="M6 1710q0 46 26 72t68 26q44 0 70.5 -26t26.5 -72t-26.5 -71t-70.5 -25q-42 0 -68 25t-26 71zM199 0v1434h151v-1434h-151zM344 1710q0 47 26.5 72.5t71.5 25.5q41 0 67 -26t26 -72t-26 -71t-67 -25q-45 0 -71.5 25t-26.5 71z" />
<glyph unicode="&#xd0;" horiz-adv-x="1603" d="M178 676v125h195v633h403q115 0 216 -24.5t189 -78.5t150.5 -135t98.5 -200t36 -267t-36 -269t-99 -205.5t-150.5 -142.5t-189 -85t-215.5 -27h-403v676h-195zM524 141h271q248 0 382 148t134 440q0 290 -132.5 429.5t-383.5 139.5h-271v-497h240v-125h-240v-535z" />
<glyph unicode="&#xd1;" horiz-adv-x="1492" d="M178 0v1434h133l852 -1168v1168h152v-1434h-129l-858 1167v-1167h-150zM434 1642q26 80 76 118t106 38q48 0 116.5 -38t98.5 -38q63 0 101 90l82 -47q-23 -74 -69 -115.5t-107 -41.5q-45 0 -110 37.5t-103 37.5q-40 0 -65 -20.5t-46 -60.5z" />
<glyph unicode="&#xd2;" d="M139 723q0 150 39 274.5t104 208.5t153 142.5t184 85t198 26.5q103 0 199 -26.5t183.5 -85t153 -142.5t104 -208.5t38.5 -274.5q0 -151 -38.5 -277t-104 -212t-153 -146t-184 -87.5t-198.5 -27.5t-198 27.5t-184 87.5t-153.5 146t-104 212t-38.5 277zM295 723 q0 -145 41.5 -263t112.5 -193.5t163 -115.5t197 -40q108 0 202.5 39t167.5 113t115.5 193t42.5 267t-41.5 264.5t-114 188.5t-165 109.5t-199.5 37.5q-108 0 -201.5 -37.5t-165.5 -109.5t-113.5 -188.5t-41.5 -264.5zM518 1804h209l154 -235h-121z" />
<glyph unicode="&#xd3;" d="M139 723q0 150 39 274.5t104 208.5t153 142.5t184 85t198 26.5q103 0 199 -26.5t183.5 -85t153 -142.5t104 -208.5t38.5 -274.5q0 -151 -38.5 -277t-104 -212t-153 -146t-184 -87.5t-198.5 -27.5t-198 27.5t-184 87.5t-153.5 146t-104 212t-38.5 277zM295 723 q0 -145 41.5 -263t112.5 -193.5t163 -115.5t197 -40q108 0 202.5 39t167.5 113t115.5 193t42.5 267t-41.5 264.5t-114 188.5t-165 109.5t-199.5 37.5q-108 0 -201.5 -37.5t-165.5 -109.5t-113.5 -188.5t-41.5 -264.5zM717 1569l151 235h207l-235 -235h-123z" />
<glyph unicode="&#xd4;" d="M139 723q0 150 39 274.5t104 208.5t153 142.5t184 85t198 26.5q103 0 199 -26.5t183.5 -85t153 -142.5t104 -208.5t38.5 -274.5q0 -151 -38.5 -277t-104 -212t-153 -146t-184 -87.5t-198.5 -27.5t-198 27.5t-184 87.5t-153.5 146t-104 212t-38.5 277zM295 723 q0 -145 41.5 -263t112.5 -193.5t163 -115.5t197 -40q108 0 202.5 39t167.5 113t115.5 193t42.5 267t-41.5 264.5t-114 188.5t-165 109.5t-199.5 37.5q-108 0 -201.5 -37.5t-165.5 -109.5t-113.5 -188.5t-41.5 -264.5zM518 1591l232 226h86l219 -226h-150l-119 107l-112 -107 h-156z" />
<glyph unicode="&#xd5;" d="M139 723q0 150 39 274.5t104 208.5t153 142.5t184 85t198 26.5q103 0 199 -26.5t183.5 -85t153 -142.5t104 -208.5t38.5 -274.5q0 -151 -38.5 -277t-104 -212t-153 -146t-184 -87.5t-198.5 -27.5t-198 27.5t-184 87.5t-153.5 146t-104 212t-38.5 277zM295 723 q0 -145 41.5 -263t112.5 -193.5t163 -115.5t197 -40q108 0 202.5 39t167.5 113t115.5 193t42.5 267t-41.5 264.5t-114 188.5t-165 109.5t-199.5 37.5q-108 0 -201.5 -37.5t-165.5 -109.5t-113.5 -188.5t-41.5 -264.5zM498 1640q26 80 76 118t106 38q48 0 116.5 -38t98.5 -38 q62 0 100 90l82 -47q-23 -74 -69 -115.5t-107 -41.5q-45 0 -110 37.5t-103 37.5q-40 0 -64.5 -20.5t-45.5 -61.5z" />
<glyph unicode="&#xd6;" d="M139 723q0 150 39 274.5t104 208.5t153 142.5t184 85t198 26.5q103 0 199 -26.5t183.5 -85t153 -142.5t104 -208.5t38.5 -274.5q0 -151 -38.5 -277t-104 -212t-153 -146t-184 -87.5t-198.5 -27.5t-198 27.5t-184 87.5t-153.5 146t-104 212t-38.5 277zM295 723 q0 -145 41.5 -263t112.5 -193.5t163 -115.5t197 -40q108 0 202.5 39t167.5 113t115.5 193t42.5 267t-41.5 264.5t-114 188.5t-165 109.5t-199.5 37.5q-108 0 -201.5 -37.5t-165.5 -109.5t-113.5 -188.5t-41.5 -264.5zM530 1710q0 46 26.5 72t68.5 26q44 0 70 -26t26 -72 t-26 -71t-70 -25q-43 0 -69 25t-26 71zM868 1710q0 46 27 72t72 26q41 0 66.5 -26t25.5 -72t-25.5 -71t-66.5 -25q-45 0 -72 25t-27 71z" />
<glyph unicode="&#xd7;" horiz-adv-x="1380" d="M178 981l94 90l418 -438l418 438l94 -96l-420 -438l420 -439l-90 -94l-420 438l-420 -436l-90 92l418 441z" />
<glyph unicode="&#xd8;" d="M139 723q0 150 39 274.5t104 208.5t153 142.5t184 85t198 26.5q167 0 303 -65l129 227l105 -57l-131 -232q127 -91 199.5 -244.5t72.5 -365.5q0 -151 -38.5 -277t-104 -212t-153 -146t-184 -87.5t-198.5 -27.5q-174 0 -321 78l-140 -244l-102 62l141 248 q-256 204 -256 606zM295 723q0 -306 174 -477l582 1026q-105 51 -234 51q-108 0 -201.5 -37.5t-165.5 -109.5t-113.5 -188.5t-41.5 -264.5zM565 174q105 -63 244 -63q108 0 202.5 39t167.5 113t115.5 193t42.5 267q0 323 -188 483z" />
<glyph unicode="&#xd9;" horiz-adv-x="1429" d="M178 516v918h150v-928q0 -183 102.5 -285t286.5 -102t284.5 101.5t100.5 285.5v928h151v-918q0 -115 -29 -207t-78 -154t-118 -103.5t-146.5 -60t-164.5 -18.5t-164.5 18.5t-147 60t-119.5 103.5t-79 154t-29 207zM422 1804h209l153 -235h-120z" />
<glyph unicode="&#xda;" horiz-adv-x="1429" d="M178 516v918h150v-928q0 -183 102.5 -285t286.5 -102t284.5 101.5t100.5 285.5v928h151v-918q0 -115 -29 -207t-78 -154t-118 -103.5t-146.5 -60t-164.5 -18.5t-164.5 18.5t-147 60t-119.5 103.5t-79 154t-29 207zM621 1569l151 235h207l-236 -235h-122z" />
<glyph unicode="&#xdb;" horiz-adv-x="1429" d="M178 516v918h150v-928q0 -183 102.5 -285t286.5 -102t284.5 101.5t100.5 285.5v928h151v-918q0 -115 -29 -207t-78 -154t-118 -103.5t-146.5 -60t-164.5 -18.5t-164.5 18.5t-147 60t-119.5 103.5t-79 154t-29 207zM422 1591l231 226h86l219 -226h-149l-119 107l-112 -107 h-156z" />
<glyph unicode="&#xdc;" horiz-adv-x="1429" d="M178 516v918h150v-928q0 -183 102.5 -285t286.5 -102t284.5 101.5t100.5 285.5v928h151v-918q0 -115 -29 -207t-78 -154t-118 -103.5t-146.5 -60t-164.5 -18.5t-164.5 18.5t-147 60t-119.5 103.5t-79 154t-29 207zM434 1710q0 46 26 72t68 26q44 0 70.5 -26t26.5 -72 t-26.5 -71t-70.5 -25q-42 0 -68 25t-26 71zM772 1710q0 47 26.5 72.5t71.5 25.5q41 0 67 -26t26 -72t-26 -71t-67 -25q-45 0 -71.5 25t-26.5 71z" />
<glyph unicode="&#xdd;" horiz-adv-x="1333" d="M61 1434h179l403 -719l399 719h172l-499 -861v-573h-152v573zM569 1569l152 235h207l-236 -235h-123z" />
<glyph unicode="&#xde;" horiz-adv-x="1130" d="M178 0v1434h154v-252h264q231 0 353 -113.5t122 -304.5q0 -128 -52 -228t-161 -161.5t-262 -61.5h-264v-313h-154zM332 449h246q160 0 246.5 81.5t86.5 233.5q0 280 -333 280h-246v-595z" />
<glyph unicode="&#xdf;" horiz-adv-x="1112" d="M176 0v1241q0 148 92.5 236t255.5 88q170 0 262.5 -88t92.5 -222q0 -73 -21.5 -132.5t-51.5 -97t-60.5 -70t-52 -66.5t-21.5 -70q0 -29 18.5 -57t47.5 -53t64.5 -52.5t71 -61.5t64.5 -73t47.5 -93t18.5 -116q0 -162 -93.5 -249t-248.5 -87q-133 0 -238 41l37 119 q103 -35 192 -35q94 0 146.5 60t52.5 141q0 57 -24.5 107t-61 85.5t-79.5 73.5t-79.5 71t-61 78t-24.5 95q0 45 21 86.5t51 74.5t60.5 68.5t51.5 84.5t21 106q0 97 -53 149t-148 52q-200 0 -200 -197v-1237h-150z" />
<glyph unicode="&#xe0;" horiz-adv-x="1134" d="M109 287q0 81 34 141.5t94 95t133.5 51.5t161.5 17q65 0 135.5 -6t107 -11.5t42.5 -7.5v158q0 135 -67 190.5t-193 55.5q-101 0 -177.5 -27.5t-148.5 -83.5l-67 98q176 142 401 142q210 0 305 -89.5t95 -289.5v-531q0 -88 67 -88q5 0 13 0.5t13.5 1t6.5 0.5l-16 -96 q-21 -16 -78 -16t-89.5 28t-50.5 97q-118 -144 -339 -144q-175 0 -279 77.5t-104 236.5zM256 289q0 -52 20.5 -90t56.5 -59t78 -30.5t93 -9.5q104 0 186 40t127 116v190q-154 27 -270 27q-291 0 -291 -184zM285 1446h209l153 -236h-121z" />
<glyph unicode="&#xe1;" horiz-adv-x="1134" d="M109 287q0 81 34 141.5t94 95t133.5 51.5t161.5 17q65 0 135.5 -6t107 -11.5t42.5 -7.5v158q0 135 -67 190.5t-193 55.5q-101 0 -177.5 -27.5t-148.5 -83.5l-67 98q176 142 401 142q210 0 305 -89.5t95 -289.5v-531q0 -88 67 -88q5 0 13 0.5t13.5 1t6.5 0.5l-16 -96 q-21 -16 -78 -16t-89.5 28t-50.5 97q-118 -144 -339 -144q-175 0 -279 77.5t-104 236.5zM256 289q0 -52 20.5 -90t56.5 -59t78 -30.5t93 -9.5q104 0 186 40t127 116v190q-154 27 -270 27q-291 0 -291 -184zM481 1210l152 236h207l-236 -236h-123z" />
<glyph unicode="&#xe2;" horiz-adv-x="1134" d="M109 287q0 81 34 141.5t94 95t133.5 51.5t161.5 17q65 0 135.5 -6t107 -11.5t42.5 -7.5v158q0 135 -67 190.5t-193 55.5q-101 0 -177.5 -27.5t-148.5 -83.5l-67 98q176 142 401 142q210 0 305 -89.5t95 -289.5v-531q0 -88 67 -88q5 0 13 0.5t13.5 1t6.5 0.5l-16 -96 q-21 -16 -78 -16t-89.5 28t-50.5 97q-118 -144 -339 -144q-175 0 -279 77.5t-104 236.5zM256 289q0 -52 20.5 -90t56.5 -59t78 -30.5t93 -9.5q104 0 186 40t127 116v190q-154 27 -270 27q-291 0 -291 -184zM285 1233l231 225h86l219 -225h-149l-119 106l-113 -106h-155z" />
<glyph unicode="&#xe3;" horiz-adv-x="1134" d="M109 287q0 81 34 141.5t94 95t133.5 51.5t161.5 17q65 0 135.5 -6t107 -11.5t42.5 -7.5v158q0 135 -67 190.5t-193 55.5q-101 0 -177.5 -27.5t-148.5 -83.5l-67 98q176 142 401 142q210 0 305 -89.5t95 -289.5v-531q0 -88 67 -88q5 0 13 0.5t13.5 1t6.5 0.5l-16 -96 q-21 -16 -78 -16t-89.5 28t-50.5 97q-118 -144 -339 -144q-175 0 -279 77.5t-104 236.5zM256 289q0 -52 20.5 -90t56.5 -59t78 -30.5t93 -9.5q104 0 186 40t127 116v190q-154 27 -270 27q-291 0 -291 -184zM264 1282q26 80 76 118t106 38q48 0 117 -38t99 -38q62 0 100 90 l82 -47q-24 -74 -69.5 -116t-106.5 -42q-45 0 -110 38t-103 38q-40 0 -65 -20.5t-46 -61.5z" />
<glyph unicode="&#xe4;" horiz-adv-x="1134" d="M109 287q0 81 34 141.5t94 95t133.5 51.5t161.5 17q65 0 135.5 -6t107 -11.5t42.5 -7.5v158q0 135 -67 190.5t-193 55.5q-101 0 -177.5 -27.5t-148.5 -83.5l-67 98q176 142 401 142q210 0 305 -89.5t95 -289.5v-531q0 -88 67 -88q5 0 13 0.5t13.5 1t6.5 0.5l-16 -96 q-21 -16 -78 -16t-89.5 28t-50.5 97q-118 -144 -339 -144q-175 0 -279 77.5t-104 236.5zM256 289q0 -52 20.5 -90t56.5 -59t78 -30.5t93 -9.5q104 0 186 40t127 116v190q-154 27 -270 27q-291 0 -291 -184zM297 1352q0 46 26 72t68 26q44 0 70 -26t26 -72t-26 -71.5 t-70 -25.5q-42 0 -68 25.5t-26 71.5zM635 1352q0 47 26.5 72.5t71.5 25.5q41 0 66.5 -26t25.5 -72t-25.5 -71.5t-66.5 -25.5q-45 0 -71.5 25.5t-26.5 71.5z" />
<glyph unicode="&#xe5;" horiz-adv-x="1134" d="M109 287q0 81 34 141.5t94 95t133.5 51.5t161.5 17q65 0 135.5 -6t107 -11.5t42.5 -7.5v158q0 135 -67 190.5t-193 55.5q-101 0 -177.5 -27.5t-148.5 -83.5l-67 98q176 142 401 142q210 0 305 -89.5t95 -289.5v-531q0 -88 67 -88q5 0 13 0.5t13.5 1t6.5 0.5l-16 -96 q-21 -16 -78 -16t-89.5 28t-50.5 97q-118 -144 -339 -144q-175 0 -279 77.5t-104 236.5zM256 289q0 -52 20.5 -90t56.5 -59t78 -30.5t93 -9.5q104 0 186 40t127 116v190q-154 27 -270 27q-291 0 -291 -184zM412 1362q0 70 44 108.5t109 38.5q63 0 107.5 -38.5t44.5 -108.5 q0 -69 -44.5 -106t-107.5 -37q-66 0 -109.5 36.5t-43.5 106.5zM494 1362q0 -33 19.5 -53.5t51.5 -20.5q31 0 50.5 21t19.5 53q0 34 -19.5 55t-50.5 21q-33 0 -52 -21t-19 -55z" />
<glyph unicode="&#xe6;" horiz-adv-x="1888" d="M109 297q0 73 26 131t70 95t105.5 61.5t128.5 34.5t143 10q55 0 116 -6t94.5 -11.5t36.5 -7.5v98q0 134 -70 200.5t-196 66.5q-168 0 -317 -109l-70 103q86 64 180.5 99.5t221.5 35.5q141 0 223.5 -50.5t128.5 -160.5q63 104 166.5 157.5t228.5 53.5q191 0 311.5 -129 t120.5 -375q0 -7 1 -30.5t0.5 -42.5t-3.5 -36h-776q10 -186 103 -283.5t253 -97.5q100 0 188 34.5t148 90.5l58 -96q-162 -158 -406 -158q-284 0 -414 228q-64 -106 -177 -167t-255 -61q-163 0 -265.5 84.5t-102.5 237.5zM258 305q0 -56 21 -97.5t56 -63.5t72.5 -32 t79.5 -10q134 0 239 75t108 173v133q-143 25 -254 25q-74 0 -129.5 -9t-100.5 -31t-68.5 -63t-23.5 -100zM983 604h631q-8 178 -82.5 272.5t-218.5 94.5q-147 0 -235 -96.5t-95 -270.5z" />
<glyph unicode="&#xe7;" horiz-adv-x="1097" d="M109 543q0 131 42 238t113.5 176t164 106t196.5 37q230 0 381 -131l-78 -105q-69 53 -134 79t-161 26q-167 0 -270 -111.5t-103 -314.5q0 -204 107 -321.5t270 -117.5q165 0 315 117l76 -98q-66 -62 -167.5 -106t-229.5 -44l-35 -53q72 6 119 -37t47 -108 q0 -84 -63.5 -129.5t-168.5 -55.5l-30 82q75 11 111 35t36 66q0 26 -17.5 42.5t-45.5 16.5q-20 0 -39 -8l-64 53l62 103q-195 29 -314.5 175.5t-119.5 387.5z" />
<glyph unicode="&#xe8;" horiz-adv-x="1200" d="M109 530q0 267 134.5 418.5t356.5 151.5q92 0 170 -28.5t133 -77.5t93.5 -115t56.5 -140.5t18 -154.5q0 -64 -6 -113h-803q39 -369 369 -369q194 0 342 123l78 -94q-175 -158 -445 -158q-79 0 -151.5 21t-135.5 66t-109.5 109.5t-73.5 157t-27 203.5zM256 590h680 q-6 171 -95.5 277t-236.5 106q-153 0 -247 -100.5t-101 -282.5zM307 1444h209l154 -236h-121z" />
<glyph unicode="&#xe9;" horiz-adv-x="1200" d="M109 530q0 267 134.5 418.5t356.5 151.5q92 0 170 -28.5t133 -77.5t93.5 -115t56.5 -140.5t18 -154.5q0 -64 -6 -113h-803q39 -369 369 -369q194 0 342 123l78 -94q-175 -158 -445 -158q-79 0 -151.5 21t-135.5 66t-109.5 109.5t-73.5 157t-27 203.5zM256 590h680 q-6 171 -95.5 277t-236.5 106q-153 0 -247 -100.5t-101 -282.5zM506 1208l151 236h207l-235 -236h-123z" />
<glyph unicode="&#xea;" horiz-adv-x="1200" d="M109 530q0 267 134.5 418.5t356.5 151.5q92 0 170 -28.5t133 -77.5t93.5 -115t56.5 -140.5t18 -154.5q0 -64 -6 -113h-803q39 -369 369 -369q194 0 342 123l78 -94q-175 -158 -445 -158q-79 0 -151.5 21t-135.5 66t-109.5 109.5t-73.5 157t-27 203.5zM256 590h680 q-6 171 -95.5 277t-236.5 106q-153 0 -247 -100.5t-101 -282.5zM307 1231l232 225h86l219 -225h-150l-119 106l-112 -106h-156z" />
<glyph unicode="&#xeb;" horiz-adv-x="1200" d="M109 530q0 267 134.5 418.5t356.5 151.5q92 0 170 -28.5t133 -77.5t93.5 -115t56.5 -140.5t18 -154.5q0 -64 -6 -113h-803q39 -369 369 -369q194 0 342 123l78 -94q-175 -158 -445 -158q-79 0 -151.5 21t-135.5 66t-109.5 109.5t-73.5 157t-27 203.5zM256 590h680 q-6 171 -95.5 277t-236.5 106q-153 0 -247 -100.5t-101 -282.5zM319 1350q0 46 26.5 72t68.5 26q44 0 70 -26t26 -72t-26 -71.5t-70 -25.5q-42 0 -68.5 25.5t-26.5 71.5zM657 1350q0 46 27 72t72 26q41 0 66.5 -26t25.5 -72t-25.5 -71.5t-66.5 -25.5q-45 0 -72 25.5 t-27 71.5z" />
<glyph unicode="&#xec;" horiz-adv-x="448" d="M-76 1444h209l154 -236h-121zM152 0v1073h147v-1073h-147z" />
<glyph unicode="&#xed;" horiz-adv-x="448" d="M123 1208l151 236h207l-235 -236h-123zM152 0v1073h147v-1073h-147z" />
<glyph unicode="&#xee;" horiz-adv-x="448" d="M-76 1231l232 225h86l219 -225h-150l-118 106l-113 -106h-156zM152 0v1073h147v-1073h-147z" />
<glyph unicode="&#xef;" horiz-adv-x="448" d="M-63 1350q0 46 26 72t68 26q44 0 70 -26t26 -72t-26 -71.5t-70 -25.5q-42 0 -68 25.5t-26 71.5zM152 0v1073h147v-1073h-147zM274 1350q0 46 27 72t72 26q41 0 66.5 -26t25.5 -72t-25.5 -71.5t-66.5 -25.5q-45 0 -72 25.5t-27 71.5z" />
<glyph unicode="&#xf0;" horiz-adv-x="1228" d="M109 539q0 142 40.5 252t109.5 176t155.5 99.5t185.5 33.5q212 0 334 -162q-75 198 -234 344l-262 -127l-45 86l225 109q-71 53 -157 102l67 90q124 -65 211 -135l207 100l45 -86l-172 -84q301 -290 301 -759q0 -288 -134.5 -446.5t-369.5 -158.5q-101 0 -190 33.5 t-161 100.5t-114 178t-42 254zM260 537q0 -199 97.5 -315t258.5 -116q158 0 255.5 116.5t97.5 314.5q0 197 -102 312.5t-261 115.5t-252.5 -114t-93.5 -314z" />
<glyph unicode="&#xf1;" horiz-adv-x="1216" d="M176 0v1073h105l22 -166h6q78 94 165 143.5t214 49.5q167 0 259.5 -90.5t92.5 -264.5v-745h-147v705q0 144 -56.5 202t-164.5 58q-215 0 -353 -213v-752h-143zM301 1282q26 80 76 118t106 38q48 0 116.5 -38t98.5 -38q63 0 101 90l82 -47q-24 -74 -69.5 -116t-106.5 -42 q-45 0 -110 38t-103 38q-40 0 -65 -20.5t-46 -61.5z" />
<glyph unicode="&#xf2;" horiz-adv-x="1251" d="M109 537q0 115 28 209.5t76.5 159t115 109t141 65t155.5 20.5q103 0 194.5 -33.5t164.5 -99.5t116 -177t43 -253t-43 -253t-116 -177.5t-164.5 -100t-194.5 -33.5q-81 0 -155.5 20.5t-141 65t-115 109.5t-76.5 159.5t-28 209.5zM260 537q0 -202 99.5 -316.5t265.5 -114.5 q168 0 266 115.5t98 315.5t-98 315t-266 115q-166 0 -265.5 -114.5t-99.5 -315.5zM326 1444h209l153 -236h-121z" />
<glyph unicode="&#xf3;" horiz-adv-x="1251" d="M109 537q0 115 28 209.5t76.5 159t115 109t141 65t155.5 20.5q103 0 194.5 -33.5t164.5 -99.5t116 -177t43 -253t-43 -253t-116 -177.5t-164.5 -100t-194.5 -33.5q-81 0 -155.5 20.5t-141 65t-115 109.5t-76.5 159.5t-28 209.5zM260 537q0 -202 99.5 -316.5t265.5 -114.5 q168 0 266 115.5t98 315.5t-98 315t-266 115q-166 0 -265.5 -114.5t-99.5 -315.5zM524 1208l152 236h207l-236 -236h-123z" />
<glyph unicode="&#xf4;" horiz-adv-x="1251" d="M109 537q0 115 28 209.5t76.5 159t115 109t141 65t155.5 20.5q103 0 194.5 -33.5t164.5 -99.5t116 -177t43 -253t-43 -253t-116 -177.5t-164.5 -100t-194.5 -33.5q-81 0 -155.5 20.5t-141 65t-115 109.5t-76.5 159.5t-28 209.5zM260 537q0 -202 99.5 -316.5t265.5 -114.5 q168 0 266 115.5t98 315.5t-98 315t-266 115q-166 0 -265.5 -114.5t-99.5 -315.5zM326 1231l231 225h86l219 -225h-149l-119 106l-113 -106h-155z" />
<glyph unicode="&#xf5;" horiz-adv-x="1251" d="M109 537q0 115 28 209.5t76.5 159t115 109t141 65t155.5 20.5q103 0 194.5 -33.5t164.5 -99.5t116 -177t43 -253t-43 -253t-116 -177.5t-164.5 -100t-194.5 -33.5q-81 0 -155.5 20.5t-141 65t-115 109.5t-76.5 159.5t-28 209.5zM260 537q0 -202 99.5 -316.5t265.5 -114.5 q168 0 266 115.5t98 315.5t-98 315t-266 115q-166 0 -265.5 -114.5t-99.5 -315.5zM305 1280q26 80 76 118t106 38q48 0 116.5 -38t98.5 -38q63 0 101 90l82 -47q-24 -74 -69.5 -116t-106.5 -42q-45 0 -110 38t-103 38q-40 0 -65 -20.5t-46 -61.5z" />
<glyph unicode="&#xf6;" horiz-adv-x="1251" d="M109 537q0 115 28 209.5t76.5 159t115 109t141 65t155.5 20.5q103 0 194.5 -33.5t164.5 -99.5t116 -177t43 -253t-43 -253t-116 -177.5t-164.5 -100t-194.5 -33.5q-81 0 -155.5 20.5t-141 65t-115 109.5t-76.5 159.5t-28 209.5zM260 537q0 -202 99.5 -316.5t265.5 -114.5 q168 0 266 115.5t98 315.5t-98 315t-266 115q-166 0 -265.5 -114.5t-99.5 -315.5zM338 1350q0 46 26 72t68 26q44 0 70 -26t26 -72t-26 -71.5t-70 -25.5q-42 0 -68 25.5t-26 71.5zM676 1350q0 47 26.5 72.5t71.5 25.5q41 0 66.5 -26t25.5 -72t-25.5 -71.5t-66.5 -25.5 q-45 0 -71.5 25.5t-26.5 71.5z" />
<glyph unicode="&#xf7;" horiz-adv-x="1224" d="M117 475v123h1005v-123h-1005zM496 104q0 60 35.5 92.5t84.5 32.5q51 0 88 -32.5t37 -92.5q0 -61 -37 -92.5t-88 -31.5q-49 0 -84.5 31t-35.5 93zM496 969q0 62 35.5 94.5t84.5 32.5q51 0 88 -32.5t37 -94.5q0 -60 -37 -90.5t-88 -30.5q-49 0 -84.5 30.5t-35.5 90.5z" />
<glyph unicode="&#xf8;" horiz-adv-x="1251" d="M109 537q0 115 28 209.5t76.5 159t115 109t141 65t155.5 20.5q119 0 215 -41l96 188l92 -49l-98 -188q100 -67 156.5 -186.5t56.5 -286.5q0 -142 -43 -253t-116 -177.5t-164.5 -100t-194.5 -33.5q-114 0 -209 39l-103 -198l-96 49l105 198q-99 70 -156 189.5t-57 286.5z M260 537q0 -231 129 -347l387 746q-70 31 -151 31q-166 0 -265.5 -114.5t-99.5 -315.5zM479 133q73 -27 146 -27q168 0 266 115.5t98 315.5q0 229 -127 344z" />
<glyph unicode="&#xf9;" horiz-adv-x="1206" d="M176 358v715h148v-682q0 -282 213 -282q106 0 186.5 53t159.5 145v766h147v-1073h-110l-33 164q-72 -92 -161 -140.5t-212 -48.5q-150 0 -244 93t-94 290zM332 1444h209l153 -236h-121z" />
<glyph unicode="&#xfa;" horiz-adv-x="1206" d="M176 358v715h148v-682q0 -282 213 -282q106 0 186.5 53t159.5 145v766h147v-1073h-110l-33 164q-72 -92 -161 -140.5t-212 -48.5q-150 0 -244 93t-94 290zM530 1208l152 236h207l-236 -236h-123z" />
<glyph unicode="&#xfb;" horiz-adv-x="1206" d="M176 358v715h148v-682q0 -282 213 -282q106 0 186.5 53t159.5 145v766h147v-1073h-110l-33 164q-72 -92 -161 -140.5t-212 -48.5q-150 0 -244 93t-94 290zM332 1231l231 225h86l219 -225h-149l-119 106l-113 -106h-155z" />
<glyph unicode="&#xfc;" horiz-adv-x="1206" d="M176 358v715h148v-682q0 -282 213 -282q106 0 186.5 53t159.5 145v766h147v-1073h-110l-33 164q-72 -92 -161 -140.5t-212 -48.5q-150 0 -244 93t-94 290zM344 1350q0 46 26 72t68 26q44 0 70.5 -26t26.5 -72t-26.5 -71.5t-70.5 -25.5q-42 0 -68 25.5t-26 71.5zM682 1350 q0 47 26.5 72.5t71.5 25.5q41 0 66.5 -26t25.5 -72t-25.5 -71.5t-66.5 -25.5q-45 0 -71.5 25.5t-26.5 71.5z" />
<glyph unicode="&#xfd;" horiz-adv-x="1136" d="M57 1073h154l373 -958l346 958h147l-422 -1139q-134 -358 -383 -358q-82 0 -161 23l28 116q54 -18 113 -18q75 0 139 56t101 155l24 61zM483 1210l152 236h207l-236 -236h-123z" />
<glyph unicode="&#xfe;" horiz-adv-x="1210" d="M176 -424v1858h139v-519h7q66 91 148 137t194 46q93 0 171 -32.5t138.5 -97t94.5 -168.5t34 -239q0 -130 -41 -242t-109 -186t-155.5 -116t-180.5 -42q-171 0 -292 76v-475h-148zM324 188q60 -47 116.5 -65.5t145.5 -18.5q66 0 129.5 29.5t116.5 84t85.5 142.5t32.5 195 q0 106 -26 188t-70.5 129.5t-98 71t-114.5 23.5q-98 0 -175 -56.5t-142 -167.5v-555z" />
<glyph unicode="&#xff;" horiz-adv-x="1136" d="M57 1073h154l373 -958l346 958h147l-422 -1139q-134 -358 -383 -358q-82 0 -161 23l28 116q54 -18 113 -18q75 0 139 56t101 155l24 61zM297 1352q0 46 26 72t68 26q44 0 70 -26t26 -72t-26 -71.5t-70 -25.5q-42 0 -68 25.5t-26 71.5zM635 1352q0 47 26.5 72.5t71.5 25.5 q41 0 66.5 -26t25.5 -72t-25.5 -71.5t-66.5 -25.5q-45 0 -71.5 25.5t-26.5 71.5z" />
<glyph unicode="&#x152;" horiz-adv-x="1763" d="M139 717q0 229 91.5 392t252.5 244t377 81h799v-129h-617v-514h537v-127h-537v-535h617v-129h-807q-158 0 -288.5 47t-225 136.5t-147 226t-52.5 307.5zM297 717q0 -268 144.5 -428t402.5 -160h47v1178h-47q-256 0 -401.5 -160.5t-145.5 -429.5z" />
<glyph unicode="&#x153;" horiz-adv-x="2058" d="M109 537q0 133 40 241t108.5 177t157.5 106t189 37q139 0 258 -68.5t176 -206.5q35 94 102 157.5t147 90.5t173 27t171 -29t132 -77t92 -112.5t56 -134.5t18 -143q0 -93 -6 -117h-795q1 -47 11 -94t35.5 -100.5t64.5 -93.5t104 -66.5t148 -26.5q191 0 330 125l75 -96 q-72 -68 -175 -113t-230 -45q-151 0 -271 67t-182 204q-35 -90 -108 -153t-155.5 -90.5t-170.5 -27.5q-101 0 -190 37t-157 106.5t-108 177.5t-40 241zM256 537q0 -200 97 -315.5t259 -115.5q163 0 257 115t94 316q0 200 -93.5 315t-257.5 115q-162 0 -259 -115t-97 -315z M1128 606h650q-5 167 -92 266t-232 99q-143 0 -230 -96.5t-96 -268.5z" />
<glyph unicode="&#x178;" horiz-adv-x="1333" d="M61 1434h179l403 -719l399 719h172l-499 -861v-573h-152v573zM383 1710q0 46 26 72t68 26q44 0 70 -26t26 -72t-26 -71t-70 -25q-42 0 -68 25t-26 71zM721 1710q0 47 26.5 72.5t71.5 25.5q41 0 66.5 -26t25.5 -72t-25.5 -71t-66.5 -25q-45 0 -71.5 25t-26.5 71z" />
<glyph unicode="&#x2c6;" horiz-adv-x="634" d="M49 1231l232 225h86l219 -225h-150l-119 106l-112 -106h-156z" />
<glyph unicode="&#x2dc;" horiz-adv-x="634" d="M29 1280q26 80 76 118t106 38q48 0 116.5 -38t98.5 -38q62 0 100 90l82 -47q-24 -74 -69.5 -116t-106.5 -42q-45 0 -110 38t-103 38q-40 0 -64.5 -20.5t-45.5 -61.5z" />
<glyph unicode="&#x2000;" horiz-adv-x="934" />
<glyph unicode="&#x2001;" horiz-adv-x="1868" />
<glyph unicode="&#x2002;" horiz-adv-x="934" />
<glyph unicode="&#x2003;" horiz-adv-x="1868" />
<glyph unicode="&#x2004;" horiz-adv-x="622" />
<glyph unicode="&#x2005;" horiz-adv-x="467" />
<glyph unicode="&#x2006;" horiz-adv-x="311" />
<glyph unicode="&#x2007;" horiz-adv-x="311" />
<glyph unicode="&#x2008;" horiz-adv-x="233" />
<glyph unicode="&#x2009;" horiz-adv-x="373" />
<glyph unicode="&#x200a;" horiz-adv-x="103" />
<glyph unicode="&#x2010;" horiz-adv-x="929" d="M176 535v129h578v-129h-578z" />
<glyph unicode="&#x2011;" horiz-adv-x="929" d="M176 535v129h578v-129h-578z" />
<glyph unicode="&#x2012;" horiz-adv-x="929" d="M176 535v129h578v-129h-578z" />
<glyph unicode="&#x2013;" horiz-adv-x="1241" d="M162 469v129h911v-129h-911z" />
<glyph unicode="&#x2014;" horiz-adv-x="1869" d="M164 469v129h1587v-129h-1587z" />
<glyph unicode="&#x2018;" horiz-adv-x="442" d="M59 1190q0 159 177 270l45 -30q-74 -74 -84 -140q47 -8 77.5 -40.5t30.5 -84.5q0 -55 -35 -88t-86 -33q-58 0 -91.5 40.5t-33.5 105.5z" />
<glyph unicode="&#x2019;" horiz-adv-x="509" d="M137 1341q0 55 34.5 87t86.5 32q58 0 91.5 -39.5t33.5 -103.5q0 -160 -176 -273l-47 33q74 74 84 140q-47 8 -77 40t-30 84z" />
<glyph unicode="&#x201a;" horiz-adv-x="442" d="M137 113q0 54 34 86t85 32q59 0 93 -39.5t34 -103.5q0 -164 -180 -276l-43 30q74 74 86 140q-46 5 -77.5 40.5t-31.5 90.5z" />
<glyph unicode="&#x201c;" horiz-adv-x="747" d="M63 1184q0 160 179 274l45 -28q-79 -79 -88 -146q45 -5 77.5 -38t32.5 -89q0 -54 -35 -86.5t-86 -32.5q-57 0 -91 41t-34 105zM369 1184q0 161 178 274l45 -28q-76 -76 -88 -144q45 -5 77.5 -39.5t32.5 -89.5q0 -54 -34.5 -86.5t-85.5 -32.5q-57 0 -91 41t-34 105z" />
<glyph unicode="&#x201d;" horiz-adv-x="747" d="M133 1339q0 54 34 86.5t85 32.5q59 0 93 -39.5t34 -103.5q0 -165 -180 -277l-43 31q75 75 86 141q-45 5 -77 40.5t-32 88.5zM438 1339q0 54 35 86.5t86 32.5q58 0 91.5 -39.5t33.5 -103.5q0 -164 -178 -277l-45 31q77 77 88 143q-46 7 -78.5 39.5t-32.5 87.5z" />
<glyph unicode="&#x201e;" horiz-adv-x="747" d="M133 113q0 54 34 86t85 32q59 0 93 -39.5t34 -103.5q0 -164 -180 -276l-43 30q74 74 86 142q-45 5 -77 39.5t-32 89.5zM438 113q0 54 35 86t86 32q58 0 91.5 -39.5t33.5 -103.5q0 -163 -178 -276l-45 30q79 79 88 144q-46 7 -78.5 39t-32.5 88z" />
<glyph unicode="&#x2022;" horiz-adv-x="655" d="M158 610q0 85 49.5 129.5t118.5 44.5q71 0 121.5 -44.5t50.5 -129.5t-50.5 -130.5t-121.5 -45.5q-69 0 -118.5 45.5t-49.5 130.5z" />
<glyph unicode="&#x2026;" horiz-adv-x="1796" d="M209 98q0 59 33.5 92t87.5 33q55 0 89 -33t34 -92q0 -60 -33.5 -92.5t-89.5 -32.5q-54 0 -87.5 32.5t-33.5 92.5zM776 98q0 59 33.5 92t87.5 33t88.5 -33.5t34.5 -91.5q0 -60 -34.5 -92.5t-88.5 -32.5t-87.5 32.5t-33.5 92.5zM1341 98q0 58 34.5 91.5t88.5 33.5 t88.5 -33.5t34.5 -91.5q0 -60 -34.5 -92.5t-88.5 -32.5t-88.5 32.5t-34.5 92.5z" />
<glyph unicode="&#x202f;" horiz-adv-x="373" />
<glyph unicode="&#x2039;" horiz-adv-x="724" d="M162 522l303 371l96 -78l-244 -291l244 -293l-90 -77z" />
<glyph unicode="&#x203a;" horiz-adv-x="749" d="M178 231l244 293l-244 291l96 78l304 -371l-308 -368z" />
<glyph unicode="&#x205f;" horiz-adv-x="467" />
<glyph unicode="&#x20ac;" horiz-adv-x="1462" d="M139 494v120h178q-4 66 -4 105q0 34 4 96h-178v121h193q49 261 207.5 391.5t384.5 130.5q268 0 452 -158l-88 -108q-171 123 -364 123q-163 0 -275 -96.5t-153 -282.5h753l-28 -121h-744q-4 -62 -4 -94q0 -55 6 -107h709l-29 -120h-659q43 -178 153.5 -276.5t253.5 -98.5 q208 0 389 135l86 -109q-214 -172 -479 -172q-213 0 -367 131.5t-202 389.5h-195z" />
<glyph unicode="&#x2122;" horiz-adv-x="1742" d="M137 1321v113h582v-113h-230v-631h-124v631h-228zM827 690v744h97l295 -535l303 535h90v-744h-125v465l-252 -438h-43l-242 438v-465h-123z" />
<glyph unicode="&#xe000;" horiz-adv-x="1075" d="M0 0v1075h1075v-1075h-1075z" />
<glyph unicode="&#xfb01;" horiz-adv-x="1054" d="M78 948v125h162v178q0 314 340 314q100 0 161.5 -20.5t120.5 -61.5l-71 -107q-68 62 -199 62q-205 0 -205 -183v-182h518v-1073h-143v948h-375v-948h-147v948h-162z" />
<glyph unicode="&#xfb02;" horiz-adv-x="1167" d="M76 948v125h164v150q0 186 91.5 265t270.5 79q193 0 282 -95t89 -262v-1210h-150v1200q0 131 -52.5 185.5t-166.5 54.5q-119 0 -168 -46.5t-49 -164.5v-156h272v-125h-272v-948h-147v948h-164z" />
<glyph unicode="&#xfb03;" horiz-adv-x="1591" d="M78 948v125h162v203q0 150 81 220.5t222 70.5q89 0 157 -21l-28 -121q-52 15 -109 15q-176 0 -176 -158v-209h389v178q0 314 340 314q100 0 162 -20.5t121 -61.5l-72 -107q-68 62 -199 62q-204 0 -204 -183v-182h518v-1073h-144v948h-374v-948h-148v948h-389v-948h-147 v948h-162z" />
<glyph unicode="&#xfb04;" horiz-adv-x="1744" d="M78 948v125h162v203q0 150 81 220.5t222 70.5q89 0 157 -21l-28 -121q-52 15 -109 15q-176 0 -176 -158v-209h447v150q0 186 91.5 265t270.5 79q193 0 282 -95t89 -262v-1210h-150v1200q0 131 -52.5 185.5t-166.5 54.5q-119 0 -168 -46.5t-49 -164.5v-156h272v-125h-272 v-948h-147v948h-447v-948h-147v948h-162z" />
</font>
</defs>
</svg>
